<svg xmlns="http://www.w3.org/2000/svg" viewBox="0 0 63 63">
	<style type="text/css">
		.st0{fill:#FFDA40;stroke:#000000;stroke-width:3;stroke-miterlimit:10;}
	</style>
	<path class="st0" d="M31.5,61.5c-2.14,0-3.6-5.62-5.6-6.06c-2.07-0.46-5.88,3.98-7.74,3.1c-1.89-0.89-0.71-6.57-2.34-7.84
		c-1.63-1.27-7.05,1.11-8.35-0.49c-1.3-1.59,2.28-6.21,1.37-8.06c-0.9-1.82-6.84-1.96-7.31-3.98c-0.45-1.95,4.82-4.59,4.82-6.68
		c0-2.09-5.28-4.72-4.82-6.67c0.47-2.02,6.41-2.16,7.31-3.98c0.91-1.85-2.67-6.47-1.37-8.06c1.31-1.6,6.72,0.79,8.35-0.49
		c1.63-1.27,0.44-6.95,2.34-7.84c1.86-0.88,5.67,3.56,7.74,3.1c2-0.44,3.46-6.06,5.6-6.06c2.14,0,3.6,5.62,5.6,6.06
		c2.07,0.46,5.88-3.98,7.74-3.1c1.89,0.89,0.71,6.57,2.34,7.84c1.63,1.27,7.05-1.11,8.35,0.49c1.3,1.59-2.28,6.21-1.37,8.06
		c0.9,1.82,6.84,1.96,7.31,3.98c0.45,1.95-4.82,4.59-4.82,6.68c0,2.09,5.28,4.72,4.82,6.67c-0.47,2.02-6.41,2.16-7.31,3.98
		c-0.91,1.85,2.67,6.47,1.37,8.06c-1.31,1.6-6.72-0.79-8.35,0.49c-1.63,1.27-0.44,6.95-2.34,7.84c-1.86,0.88-5.67-3.56-7.74-3.1
		C35.1,55.88,33.64,61.5,31.5,61.5z"/>
</svg>
