<svg xmlns="http://www.w3.org/2000/svg" viewBox="0 0 63 43.86">
	<style type="text/css">
		.st0{fill:none;stroke:#8C8C8C;stroke-width:3;stroke-linecap:round;stroke-linejoin:round;stroke-miterlimit:10;}
	</style>
	<path class="st0" d="M1.5,1.5c4.28,0,4.28,3.95,8.57,3.95c4.28,0,4.28-3.95,8.57-3.95c4.28,0,4.28,3.95,8.57,3.95
		c4.29,0,4.29-3.95,8.57-3.95c4.29,0,4.29,3.95,8.57,3.95c4.29,0,4.29-3.95,8.58-3.95s4.29,3.95,8.58,3.95"/>
	<path class="st0" d="M1.5,13.8c4.28,0,4.28,3.95,8.57,3.95c4.28,0,4.28-3.95,8.57-3.95c4.28,0,4.28,3.95,8.57,3.95
		c4.29,0,4.29-3.95,8.57-3.95c4.29,0,4.29,3.95,8.57,3.95c4.29,0,4.29-3.95,8.58-3.95s4.29,3.95,8.58,3.95"/>
	<path class="st0" d="M1.5,26.1c4.28,0,4.28,3.95,8.57,3.95c4.28,0,4.28-3.95,8.57-3.95c4.28,0,4.28,3.95,8.57,3.95
		c4.29,0,4.29-3.95,8.57-3.95c4.29,0,4.29,3.95,8.57,3.95c4.29,0,4.29-3.95,8.58-3.95s4.29,3.95,8.58,3.95"/>
	<path class="st0" d="M1.5,38.4c4.28,0,4.28,3.95,8.57,3.95c4.28,0,4.28-3.95,8.57-3.95c4.28,0,4.28,3.95,8.57,3.95
		c4.29,0,4.29-3.95,8.57-3.95c4.29,0,4.29,3.95,8.57,3.95c4.29,0,4.29-3.95,8.58-3.95s4.29,3.95,8.58,3.95"/>
</svg>
