<svg xmlns="http://www.w3.org/2000/svg" viewBox="0 0 63 60.3">
	<style type="text/css">
		.st0{fill:#E2D6A6;}
		.st1{fill:#FFFFFF;stroke:#000000;stroke-width:3;stroke-linecap:round;stroke-linejoin:round;stroke-miterlimit:10;}
	</style>
	<path class="st0" d="M27.1,0c0,0.3,0,0.6,0,0.9c0,10.3-8.4,18.7-18.7,18.7c-2.8,0-5.5-0.7-8-1.8C1,27.7,9.2,35.6,19.2,35.6
		c10.3,0,18.7-8.4,18.7-18.7C37.9,9.4,33.5,3,27.1,0z"/>
	<path class="st1" d="M52.6,36.2c5.1,1.2,8.9,5.7,8.9,11.2c0,6.3-5.1,11.5-11.5,11.5H13C6.6,58.8,1.5,54.3,1.5,48
		c0-5.4,3.8-10,8.8-11.2c-0.3-0.9-0.5-1.9-0.5-2.9c0-5.1,4.1-9.2,9.2-9.2c2.5,0,4.8,1,6.5,2.7l0,0c2.2-4.9,7.2-8.4,13-8.4
		c7.9,0,14.3,6.4,14.3,14.3C52.9,34.2,52.6,36.2,52.6,36.2L52.6,36.2z"/>
</svg>
