<svg xmlns="http://www.w3.org/2000/svg" viewBox="0 0 63 60.9">
	<style type="text/css">
		.st0{fill:#FFDA40;}
		.st1{fill:#FFFFFF;stroke:#000000;stroke-width:3;stroke-linecap:round;stroke-linejoin:round;stroke-miterlimit:10;}
	</style>
	<path class="st0" d="M42.06,28.16c-0.62,1.56-4.89,1.05-5.84,2.33c-0.99,1.33,0.71,5.27-0.56,6.27c-1.29,1.02-4.73-1.55-6.23-0.91
		c-1.5,0.64-1.99,4.91-3.62,5.15c-1.6,0.24-3.3-3.7-4.94-3.89c-1.59-0.19-4.15,3.26-5.71,2.64c-1.56-0.62-1.05-4.89-2.33-5.84
		c-1.33-0.99-5.27,0.71-6.27-0.56c-1.02-1.29,1.55-4.73,0.91-6.23c-0.64-1.5-4.91-1.99-5.15-3.62c-0.24-1.6,3.7-3.3,3.89-4.94
		c0.19-1.59-3.26-4.15-2.64-5.71c0.62-1.56,4.89-1.05,5.84-2.33c0.99-1.33-0.71-5.27,0.56-6.27c1.29-1.02,4.73,1.55,6.23,0.91
		c1.5-0.64,1.99-4.91,3.62-5.15c1.6-0.24,3.3,3.7,4.94,3.89c1.59,0.19,4.15-3.26,5.71-2.64c1.56,0.62,1.05,4.89,2.33,5.84
		c1.33,0.99,5.27-0.71,6.27,0.56c1.02,1.29-1.55,4.73-0.91,6.23c0.64,1.5,4.91,1.99,5.15,3.62c0.24,1.6-3.7,3.3-3.89,4.94
		C39.23,24.04,42.68,26.61,42.06,28.16z"/>
	<path class="st1" d="M52.56,36.75c5.12,1.15,8.94,5.72,8.94,11.19c0,6.33-5.13,11.47-11.47,11.47H12.97
		C6.63,59.4,1.5,54.9,1.5,48.56c0-5.42,3.76-9.96,8.81-11.16c-0.31-0.92-0.48-1.91-0.48-2.94c0-5.1,4.13-9.23,9.23-9.23
		c2.53,0,4.82,1.02,6.49,2.67l0,0c2.25-4.95,7.23-8.39,13.02-8.39c7.89,0,14.29,6.4,14.29,14.29C52.86,34.81,52.56,36.75,52.56,36.75
		L52.56,36.75z"/>
	<path class="st1" d="M52.56,36.75c5.12,1.15,8.94,5.72,8.94,11.19c0,6.33-5.13,11.47-11.47,11.47H12.97
		C6.63,59.4,1.5,54.9,1.5,48.56c0-5.42,3.76-9.96,8.81-11.16c-0.31-0.92-0.48-1.91-0.48-2.94c0-5.1,4.13-9.23,9.23-9.23
		c2.53,0,4.82,1.02,6.49,2.67l0,0c2.25-4.95,7.23-8.39,13.02-8.39c7.89,0,14.29,6.4,14.29,14.29C52.86,34.81,52.56,36.75,52.56,36.75
		L52.56,36.75z"/>
</svg>
