<svg xmlns="http://www.w3.org/2000/svg" viewBox="0 0 63 61.91">
	<style type="text/css">
		.st0{fill:#FFFFFF;stroke:#000000;stroke-width:3;stroke-linecap:round;stroke-linejoin:round;stroke-miterlimit:10;}
		.st1{fill:none;stroke:#426CD3;stroke-width:3;stroke-linecap:round;stroke-linejoin:round;stroke-miterlimit:10;}
	</style>
	<path class="st0" d="M52.56,18.74c5.12,1.15,8.94,5.72,8.94,11.19c0,6.33-5.13,11.47-11.47,11.47H12.97
		c-6.33,0-11.47-4.5-11.47-10.84c0-5.42,3.76-9.96,8.8-11.15c-0.31-0.92-0.48-1.91-0.48-2.95c0-5.1,4.13-9.23,9.23-9.23
		c2.53,0,4.82,1.02,6.49,2.67h0c2.25-4.95,7.23-8.39,13.02-8.39c7.89,0,14.29,6.4,14.29,14.29C52.86,16.8,52.56,18.74,52.56,18.74
		L52.56,18.74z"/>
	<line class="st1" x1="16.43" y1="46.49" x2="15.45" y2="53.49"/>
	<line class="st1" x1="26.69" y1="46.49" x2="24.71" y2="60.41"/>
	<line class="st1" x1="37.3" y1="46.49" x2="35.33" y2="60.41"/>
	<line class="st1" x1="47.55" y1="46.49" x2="46.57" y2="53.49"/>
</svg>
