<svg xmlns="http://www.w3.org/2000/svg" viewBox="0 0 63 62.28">
	<style type="text/css">
		.st0{fill:#FFFFFF;stroke:#000000;stroke-width:3;stroke-linecap:round;stroke-linejoin:round;stroke-miterlimit:10;}
		.st1{fill:#FFFFFF;}
	</style>
	<path class="st0" d="M52.56,18.74c5.12,1.15,8.94,5.72,8.94,11.19c0,6.33-5.13,11.47-11.47,11.47H12.97
		c-6.33,0-11.47-4.5-11.47-10.84c0-5.42,3.76-9.96,8.8-11.16c-0.31-0.92-0.48-1.91-0.48-2.94c0-5.1,4.13-9.23,9.23-9.23
		c2.53,0,4.82,1.02,6.49,2.67v0c2.25-4.95,7.23-8.39,13.02-8.39c7.89,0,14.29,6.4,14.29,14.29C52.86,16.8,52.56,18.74,52.56,18.74
		L52.56,18.74z"/>
	<g>
		<circle class="st1" cx="13.58" cy="49.31" r="3.06"/>
		<path d="M13.58,46.75c1.42,0,2.56,1.15,2.56,2.56c0,1.42-1.15,2.56-2.56,2.56c-1.42,0-2.56-1.15-2.56-2.56
			C11.02,47.89,12.17,46.75,13.58,46.75 M13.58,45.75c-1.97,0-3.56,1.6-3.56,3.56c0,1.96,1.6,3.56,3.56,3.56
			c1.97,0,3.56-1.6,3.56-3.56C17.15,47.34,15.55,45.75,13.58,45.75L13.58,45.75z"/>
	</g>
	<g>
		<path class="st1" d="M32.13,52.37c-1.69,0-3.06-1.37-3.06-3.06s1.37-3.06,3.06-3.06c1.69,0,3.06,1.37,3.06,3.06
			S33.82,52.37,32.13,52.37z"/>
		<path d="M32.13,46.75c1.42,0,2.57,1.15,2.57,2.56c0,1.42-1.15,2.56-2.57,2.56c-1.42,0-2.56-1.15-2.56-2.56
			C29.57,47.89,30.72,46.75,32.13,46.75 M32.13,45.75c-1.96,0-3.56,1.6-3.56,3.56c0,1.96,1.6,3.56,3.56,3.56
			c1.97,0,3.57-1.6,3.57-3.56C35.7,47.34,34.1,45.75,32.13,45.75L32.13,45.75z"/>
	</g>
	<g>
		<path class="st1" d="M50.68,52.37c-1.69,0-3.06-1.37-3.06-3.06s1.37-3.06,3.06-3.06c1.69,0,3.06,1.37,3.06,3.06
			S52.37,52.37,50.68,52.37z"/>
		<path d="M50.68,46.75c1.42,0,2.56,1.15,2.56,2.56c0,1.42-1.15,2.56-2.56,2.56c-1.42,0-2.56-1.15-2.56-2.56
			C48.12,47.89,49.27,46.75,50.68,46.75 M50.68,45.75c-1.96,0-3.56,1.6-3.56,3.56c0,1.96,1.6,3.56,3.56,3.56
			c1.97,0,3.56-1.6,3.56-3.56C54.25,47.34,52.65,45.75,50.68,45.75L50.68,45.75z"/>
	</g>
	<g>
		<path class="st1" d="M22.99,61.78c-1.69,0-3.06-1.37-3.06-3.06s1.37-3.06,3.06-3.06s3.06,1.37,3.06,3.06S24.68,61.78,22.99,61.78z"
			/>
		<path d="M22.99,56.16c1.42,0,2.56,1.15,2.56,2.56c0,1.42-1.15,2.56-2.56,2.56c-1.42,0-2.56-1.15-2.56-2.56
			C20.43,57.3,21.58,56.16,22.99,56.16 M22.99,55.16c-1.97,0-3.56,1.6-3.56,3.56c0,1.96,1.6,3.56,3.56,3.56
			c1.97,0,3.56-1.6,3.56-3.56C26.56,56.75,24.96,55.16,22.99,55.16L22.99,55.16z"/>
	</g>
	<g>
		<path class="st1" d="M41.54,61.78c-1.69,0-3.06-1.37-3.06-3.06s1.37-3.06,3.06-3.06c1.69,0,3.07,1.37,3.07,3.06
			S43.23,61.78,41.54,61.78z"/>
		<path d="M41.54,56.16c1.42,0,2.57,1.15,2.57,2.56c0,1.42-1.15,2.56-2.57,2.56c-1.42,0-2.56-1.15-2.56-2.56
			C38.98,57.3,40.13,56.16,41.54,56.16 M41.54,55.16c-1.96,0-3.56,1.6-3.56,3.56c0,1.96,1.6,3.56,3.56,3.56
			c1.97,0,3.57-1.6,3.57-3.56C45.11,56.75,43.51,55.16,41.54,55.16L41.54,55.16z"/>
	</g>
</svg>
