<svg xmlns="http://www.w3.org/2000/svg" viewBox="0 0 256 256">
	<style type="text/css">
		.st0{fill:#205BD1;}
		.st1{fill:#FFFFFF;}
	</style>
	<path class="st0" d="M250.2,110.9C250.2,110.9,250.2,110.9,250.2,110.9c0-0.1,0-0.2,0-0.2v-3.4h-0.1c-0.9-30-13.8-57.1-34-76.5
		C193.2,11.8,162.2,0,128,0S62.8,11.8,39.8,30.8c-20.2,19.5-33.1,46.5-34,76.5H5.8v3.1c0,0.1,0,0.3,0,0.4c0,0.1,0,0.3,0,0.4v119.3
		V256c20.4,0,20.4-30.8,40.8-30.8S66.9,256,87.3,256s20.4-30.8,40.8-30.8s20.4,30.8,40.8,30.8s20.4-30.8,40.8-30.8
		s20.4,30.8,40.8,30.8v-25.4L250.2,110.9L250.2,110.9z"/>
	<path class="st1" d="M165.6,134.2c-3.6-1.7-7.9-0.1-9.5,3.5c-3.6,7.9-15.5,13.6-28.1,13.6s-24.5-5.7-28.1-13.6
		c-0.8-1.8-2.2-3.1-4-3.7c-1.8-0.6-3.8-0.6-5.5,0.2c-3.6,1.7-5.2,5.9-3.5,9.5c6.1,13.1,22.6,21.9,41.1,21.9s35.1-8.8,41.1-21.9
		C170.8,140.1,169.2,135.8,165.6,134.2z"/>
	<path class="st1" d="M101.6,103.1c8.1,0,14.2-11.7,14.2-27.2s-6.1-27.2-14.2-27.2S87.4,60.4,87.4,75.9S93.5,103.1,101.6,103.1z"/>
	<path class="st1" d="M154.4,103.1c7.9,0,14.2-12,14.2-27.2c0-15.5-6.1-27.2-14.2-27.2s-14.2,11.7-14.2,27.2
		C140.3,91.1,146.5,103.1,154.4,103.1z"/>
</svg>
