<svg xmlns="http://www.w3.org/2000/svg" viewBox="0 0 331.4 567.8">
	<style type="text/css">
		.st0{opacity:0.15;}
		.st1{fill:#FFFFFF;}
	</style>
	<ellipse class="st0" cx="164.1" cy="553.3" rx="138.4" ry="14.6"/>
	<path class="st1" d="M220.9,460.7c-8,0-12.4-5.9-19.3-16.4c-7.5-11.3-16.8-25.4-36-25.4s-28.5,14.1-36,25.4
		c-6.9,10.5-11.2,16.4-19.3,16.4c-8,0-12.3-5.9-19.3-16.4c-7.5-11.3-16.8-25.4-36-25.4s-28.5,14.1-36,25.4c-3.5,5.3-6.3,9.4-9.3,12.2
		v-20.2V165.7C10,79.8,79.9,10,165.7,10s155.7,69.8,155.7,155.7v290.7c-3-2.8-5.8-6.9-9.3-12.2c-7.5-11.3-16.8-25.4-36-25.4
		c-19.2,0-28.5,14.1-36,25.4C233.3,454.7,229,460.7,220.9,460.7z"/>
	<path d="M165.7,20c38.9,0,75.5,15.2,103,42.7s42.7,64.1,42.7,103v260.5c-7.7-9.1-18.5-17.4-35.2-17.4c-24.6,0-36.4,18-44.3,29.9
		c-2.8,4.3-5.5,8.4-8,10.6c-1.5,1.3-2.1,1.3-2.9,1.3s-1.5,0-2.9-1.3c-2.5-2.2-5.1-6.3-8-10.6c-7.9-11.9-19.7-29.9-44.3-29.9
		s-36.4,18-44.3,29.9c-2.8,4.3-5.5,8.4-8,10.6c-1.5,1.3-2.1,1.3-2.9,1.3s-1.5,0-2.9-1.3c-2.5-2.2-5.1-6.3-8-10.6
		c-7.9-11.9-19.7-29.9-44.3-29.9c-16.7,0-27.5,8.3-35.2,17.4V165.7c0-38.9,15.2-75.5,42.7-103C90.2,35.2,126.8,20,165.7,20 M165.7,0
		C74.2,0,0,74.2,0,165.7v270.5l0,34.4c27.6,0,27.6-41.8,55.2-41.8s27.6,41.8,55.2,41.8c27.6,0,27.6-41.8,55.2-41.8
		c27.6,0,27.6,41.8,55.2,41.8s27.6-41.8,55.2-41.8c27.6,0,27.6,41.8,55.2,41.8v-34.4V165.7C331.4,74.2,257.2,0,165.7,0L165.7,0z"/>
	<path d="M224.5,192.3c-11.8,0-22.2-5.5-25.9-13.6c-0.6-1.2,0-2.7,1.2-3.3s2.7,0,3.3,1.2c2.9,6.3,11.7,10.7,21.4,10.7
		s18.5-4.4,21.4-10.7c0.6-1.2,2.1-1.8,3.3-1.2c1.2,0.6,1.8,2.1,1.2,3.3C246.7,186.8,236.2,192.3,224.5,192.3z"/>
	<ellipse cx="198.7" cy="136.4" rx="12.5" ry="18"/>
	<ellipse cx="250.3" cy="136.4" rx="12.5" ry="18"/>
	<path class="st1" d="M193.4,130.3c-0.1-0.9,0.1-1.7,0.4-2.5c0.3-0.8,0.8-1.5,1.4-2.1c0.6-0.6,1.4-1.1,2.3-1.3
		c0.9-0.2,1.8-0.2,2.6,0.2c-0.8,0.4-1.4,0.8-1.9,1.2c-0.6,0.4-1.1,0.8-1.6,1.3s-1,1-1.5,1.5C194.6,129.1,194.1,129.7,193.4,130.3z"/>
	<path class="st1" d="M244.1,130.3c-0.1-0.9,0.1-1.7,0.4-2.5c0.3-0.8,0.8-1.5,1.4-2.1c0.6-0.6,1.4-1.1,2.3-1.3
		c0.9-0.2,1.8-0.2,2.6,0.2c-0.8,0.4-1.4,0.8-1.9,1.2c-0.6,0.4-1.1,0.8-1.6,1.3s-1,1-1.5,1.5C245.3,129.1,244.8,129.7,244.1,130.3z"/>
</svg>
