<svg xmlns="http://www.w3.org/2000/svg" viewBox="0 0 331.42 567.84">
	<style type="text/css">
		.st0{opacity:0.15;}
		.st1{fill:#FFFFFF;}
	</style>
	<ellipse class="st0" cx="164.07" cy="553.28" rx="138.37" ry="14.56"/>
	<path class="st1" d="M220.94,460.67c-8.04,0-12.35-5.93-19.27-16.41c-7.47-11.31-16.77-25.39-35.96-25.39
			c-19.19,0-28.49,14.08-35.96,25.39c-6.93,10.48-11.24,16.41-19.27,16.41c-8.04,0-12.35-5.93-19.27-16.41
			c-7.47-11.31-16.77-25.39-35.96-25.39c-19.19,0-28.49,14.08-35.96,25.39c-3.48,5.27-6.3,9.39-9.27,12.19l0-20.21V165.7
			C10.01,79.85,79.86,10,165.71,10c85.85,0,155.7,69.85,155.7,155.7l0,290.74c-2.97-2.79-5.79-6.92-9.28-12.19
			c-7.47-11.31-16.78-25.39-35.96-25.39c-19.19,0-28.49,14.08-35.96,25.39C233.29,454.74,228.98,460.67,220.94,460.67z"/>
	<path d="M165.71,20c38.92,0,75.51,15.16,103.03,42.68c27.52,27.52,42.68,64.11,42.68,103.03v260.53
		c-7.7-9.06-18.54-17.37-35.24-17.37c-24.57,0-36.44,17.98-44.3,29.88c-2.84,4.3-5.52,8.36-7.98,10.59
		c-1.47,1.34-2.06,1.34-2.95,1.34c-0.89,0-1.48,0-2.95-1.34c-2.46-2.23-5.14-6.29-7.98-10.59c-7.86-11.9-19.74-29.88-44.31-29.88
		c-24.57,0-36.44,17.98-44.3,29.88c-2.84,4.3-5.52,8.36-7.98,10.59c-1.47,1.34-2.06,1.34-2.95,1.34c-0.89,0-1.48,0-2.95-1.34
		c-2.46-2.23-5.14-6.29-7.98-10.59c-7.86-11.9-19.74-29.88-44.3-29.88c-16.7,0-27.53,8.3-35.23,17.36V165.7
		c0-38.92,15.16-75.51,42.68-103.03C90.2,35.16,126.79,20,165.71,20 M165.71,0C74.2,0,0.01,74.19,0.01,165.7v270.53L0,470.67
		c27.62,0,27.62-41.8,55.24-41.8c27.62,0,27.62,41.8,55.23,41.8c27.62,0,27.62-41.8,55.23-41.8c27.62,0,27.62,41.8,55.24,41.8
		c27.62,0,27.62-41.8,55.23-41.8c27.62,0,27.62,41.8,55.24,41.8l0-34.43V165.7C331.41,74.19,257.23,0,165.71,0L165.71,0z"/>
	<path d="M224.49,192.29c-11.75,0-22.17-5.46-25.92-13.59c-0.58-1.25-0.03-2.74,1.22-3.32c1.25-0.58,2.74-0.03,3.32,1.22
		c2.9,6.29,11.69,10.68,21.38,10.68s18.48-4.39,21.38-10.68c0.58-1.25,2.06-1.8,3.32-1.22c1.25,0.58,1.8,2.06,1.22,3.32
		C246.66,186.83,236.25,192.29,224.49,192.29z"/>
	<ellipse cx="198.72" cy="136.4" rx="11.53" ry="16.99"/>
	<path d="M198.73,154.39c-6.91,0-12.53-8.07-12.53-17.99s5.62-17.99,12.53-17.99c6.91,0,12.53,8.07,12.53,17.99
		S205.63,154.39,198.73,154.39z M198.73,120.41c-5.81,0-10.53,7.17-10.53,15.99s4.72,15.99,10.53,15.99
		c5.8,0,10.53-7.17,10.53-15.99S204.53,120.41,198.73,120.41z"/>
	<ellipse cx="250.26" cy="136.4" rx="11.53" ry="16.99"/>
	<path d="M250.26,154.39c-6.91,0-12.53-8.07-12.53-17.99s5.62-17.99,12.53-17.99s12.53,8.07,12.53,17.99
		S257.17,154.39,250.26,154.39z M250.26,120.41c-5.81,0-10.53,7.17-10.53,15.99s4.72,15.99,10.53,15.99s10.53-7.17,10.53-15.99
		S256.07,120.41,250.26,120.41z"/>
	<path class="st1" d="M193.41,130.26c-0.1-0.88,0.08-1.72,0.39-2.51c0.32-0.78,0.81-1.51,1.45-2.12c0.63-0.6,1.42-1.08,2.29-1.31
		c0.86-0.22,1.81-0.21,2.59,0.21c-0.78,0.42-1.39,0.8-1.95,1.22c-0.56,0.41-1.06,0.85-1.56,1.32c-0.5,0.47-0.99,0.97-1.5,1.51
		C194.61,129.12,194.09,129.69,193.41,130.26z"/>
	<path class="st1" d="M244.07,130.26c-0.1-0.88,0.08-1.72,0.39-2.51c0.32-0.78,0.81-1.51,1.45-2.12c0.63-0.6,1.42-1.08,2.29-1.31
		c0.86-0.22,1.81-0.21,2.59,0.21c-0.78,0.42-1.39,0.8-1.95,1.22c-0.56,0.41-1.06,0.85-1.56,1.32c-0.5,0.47-0.99,0.97-1.5,1.51
		C245.26,129.12,244.75,129.69,244.07,130.26z"/>
</svg>
