<svg xmlns="http://www.w3.org/2000/svg" viewBox="0 0 657.44 87.33">
	<path d="M113.68,25c-1.77-1.64-3.91-2.93-6.43-3.87c-2.52-0.94-5.35-1.41-8.49-1.41c-2.67,0-5.12,0.3-7.35,0.91
		c-2.23,0.61-4.23,1.46-6.01,2.55s-3.34,2.38-4.68,3.87c-1.34,1.49-2.45,3.11-3.34,4.87s-1.56,3.62-2,5.57
		c-0.45,1.96-0.67,3.93-0.67,5.92c0,1.97,0.22,3.92,0.65,5.85s1.08,3.79,1.95,5.55c0.87,1.77,1.96,3.41,3.27,4.9
		c1.31,1.5,2.84,2.81,4.59,3.92c1.75,1.11,3.7,1.98,5.87,2.6c2.17,0.62,4.56,0.93,7.19,0.93c2.74,0,5.21-0.3,7.42-0.91
		s4.14-1.46,5.82-2.55s3.1-2.37,4.27-3.85s2.1-3.08,2.78-4.82c0.07-0.16,0.12-0.33,0.14-0.49c0.02-0.16,0.04-0.34,0.04-0.53
		c0-0.56-0.15-1.07-0.46-1.53s-0.73-0.69-1.27-0.69c-0.35,0-0.71,0.11-1.09,0.32c-0.47,0.26-1.05,0.53-1.76,0.81s-1.47,0.55-2.3,0.81
		c-0.83,0.26-1.7,0.47-2.6,0.63c-0.9,0.16-1.78,0.25-2.62,0.25c-1.59,0-3.05-0.16-4.36-0.47s-2.44-0.92-3.38-1.81
		c-0.94-0.89-1.67-2.14-2.2-3.74c-0.53-1.6-0.79-3.7-0.79-6.28h16.91c1.01,0,1.91-0.04,2.71-0.11s1.46-0.25,2-0.53
		s0.96-0.71,1.25-1.3c0.29-0.58,0.44-1.41,0.44-2.46c0-2.55-0.47-4.94-1.42-7.15S115.45,26.64,113.68,25z M96.01,37.37
		c0-1.5,0.13-2.79,0.4-3.88s0.64-1.99,1.12-2.69s1.05-1.22,1.71-1.56c0.66-0.34,1.36-0.51,2.11-0.51c0.94,0,1.78,0.14,2.51,0.42
		s1.35,0.76,1.85,1.42s0.87,1.56,1.12,2.67c0.26,1.11,0.39,2.49,0.39,4.13H96.01z"/>
	<path d="M173.55,57.25c-0.39-0.13-0.81-0.25-1.28-0.37c-0.47-0.12-0.9-0.32-1.28-0.62c-0.39-0.29-0.71-0.72-0.98-1.28
		s-0.4-1.35-0.4-2.36V40.18c0-3.45-0.46-6.45-1.39-9.02s-2.36-4.69-4.29-6.38s-4.4-2.95-7.4-3.8s-6.57-1.27-10.72-1.27
		c-3.56,0-6.63,0.31-9.21,0.93c-2.58,0.62-4.71,1.45-6.38,2.5c-1.68,1.04-2.92,2.26-3.73,3.64c-0.81,1.38-1.21,2.85-1.21,4.39
		c0,1.1,0.22,2.04,0.67,2.81s1.04,1.41,1.79,1.92c0.75,0.5,1.61,0.9,2.58,1.2c0.97,0.29,2,0.51,3.09,0.65s2.19,0.23,3.3,0.26
		s2.17,0.05,3.18,0.05c0-1.83,0.08-3.46,0.23-4.9s0.41-2.67,0.77-3.69s0.84-1.8,1.44-2.34c0.6-0.54,1.34-0.81,2.23-0.81
		c0.8,0,1.48,0.2,2.04,0.6c0.56,0.4,1.03,1.1,1.41,2.11c0.38,1.01,0.65,2.37,0.83,4.08c0.18,1.71,0.26,3.87,0.26,6.47h-4.82
		c-4.34,0-7.95,0.42-10.83,1.25c-2.88,0.83-5.19,1.96-6.91,3.39c-1.72,1.43-2.94,3.1-3.66,5.01c-0.71,1.91-1.07,3.93-1.07,6.06
		c0,1.81,0.3,3.43,0.91,4.89c0.61,1.45,1.52,2.7,2.74,3.74c1.22,1.04,2.72,1.85,4.5,2.41s3.86,0.84,6.22,0.84
		c1.34,0,2.74-0.13,4.2-0.4s2.86-0.68,4.18-1.23c1.32-0.55,2.51-1.24,3.55-2.06c1.04-0.82,1.8-1.78,2.27-2.88
		c0.63,1.24,1.39,2.24,2.29,2.99c0.89,0.75,1.87,1.32,2.94,1.72c1.07,0.4,2.19,0.66,3.38,0.79c1.18,0.13,2.37,0.19,3.57,0.19
		c4.05,0,7.13-0.65,9.23-1.95s3.15-3.12,3.15-5.47c0-0.51-0.13-0.88-0.4-1.11C174.26,57.56,173.94,57.38,173.55,57.25z M149.12,55.99
		c-0.08,0.67-0.25,1.23-0.51,1.69s-0.63,0.81-1.11,1.05s-1.11,0.37-1.88,0.37c-1.03,0-1.86-0.16-2.48-0.47s-1.1-0.75-1.42-1.3
		c-0.33-0.55-0.54-1.2-0.63-1.93s-0.14-1.52-0.14-2.34c0-1.36,0.1-2.62,0.3-3.78s0.54-2.17,1.04-3.02c0.49-0.86,1.14-1.52,1.95-2
		c0.81-0.48,1.81-0.72,3.01-0.72c0.28,0,0.57,0.02,0.86,0.05s0.6,0.08,0.93,0.12c0.02,1.36,0.06,2.67,0.11,3.94
		c0.02,1.08,0.05,2.18,0.07,3.3s0.04,2.05,0.04,2.78C149.24,54.56,149.2,55.32,149.12,55.99z"/>
	<path d="M211.78,52.73c-0.33,0-0.68,0.11-1.05,0.32c-0.96,0.52-1.89,0.93-2.79,1.25s-1.96,0.47-3.18,0.47
		c-0.87,0-1.55-0.16-2.04-0.49c-0.49-0.33-0.86-0.77-1.09-1.34s-0.38-1.2-0.42-1.92c-0.05-0.71-0.07-1.46-0.07-2.23l-0.07-21.02h8.58
		c0.3,0,0.65-0.02,1.04-0.05s0.76-0.17,1.11-0.4c0.35-0.23,0.64-0.6,0.88-1.09s0.35-1.2,0.35-2.11c0-0.84-0.12-1.49-0.37-1.95
		s-0.54-0.79-0.9-1s-0.72-0.33-1.11-0.37s-0.72-0.05-1-0.05h-8.58V9.35c0-1.03-0.25-1.79-0.74-2.29s-1.1-0.74-1.83-0.74
		c-0.59,0-1.2,0.15-1.83,0.44c-0.63,0.29-1.25,0.74-1.86,1.35c-1.52,1.48-3.25,3.06-5.17,4.75c-1.64,1.45-3.6,3.1-5.87,4.94
		c-2.27,1.84-4.78,3.74-7.52,5.71c-0.66,0.49-0.98,1.1-0.98,1.83c0,0.61,0.25,1.17,0.74,1.67c0.49,0.5,1.17,0.76,2.04,0.76h1.72
		v17.79c0,1.45,0.06,2.99,0.19,4.62c0.13,1.63,0.4,3.25,0.81,4.85c0.41,1.61,1,3.14,1.78,4.61c0.77,1.46,1.8,2.75,3.09,3.87
		c1.29,1.11,2.87,2,4.75,2.67s4.12,1,6.75,1c1.9,0,3.68-0.26,5.34-0.77c1.66-0.51,3.19-1.25,4.59-2.21c1.39-0.96,2.62-2.13,3.69-3.52
		c1.07-1.38,1.94-2.94,2.62-4.68c0.12-0.26,0.18-0.58,0.18-0.98c0-0.58-0.16-1.11-0.47-1.58C212.75,52.97,212.32,52.73,211.78,52.73z
		"/>
	<path d="M279.67,57.11c-0.4-0.13-0.83-0.25-1.28-0.37c-0.46-0.12-0.88-0.32-1.28-0.62c-0.4-0.29-0.73-0.72-0.98-1.28
		s-0.39-1.35-0.39-2.36V41.38c0-1.45-0.07-2.99-0.21-4.62c-0.14-1.63-0.42-3.25-0.84-4.85c-0.42-1.6-1.03-3.14-1.81-4.61
		c-0.79-1.46-1.83-2.76-3.13-3.88s-2.89-2.02-4.76-2.69s-4.12-1-6.75-1c-2.27,0-4.28,0.21-6.03,0.63s-3.28,0.94-4.59,1.56
		c-1.31,0.62-2.41,1.28-3.3,1.99s-1.61,1.35-2.14,1.93l0.07-17.65c0-1.59-0.11-2.92-0.32-3.97s-0.69-1.89-1.44-2.51
		c-0.75-0.62-1.86-1.06-3.32-1.32C235.68,0.13,233.68,0,231.15,0c-5.04,0-8.91,0.59-11.62,1.78c-2.71,1.18-4.06,3.11-4.06,5.78
		c0,0.52,0.12,0.88,0.37,1.11c0.25,0.22,0.56,0.39,0.95,0.51c0.39,0.12,0.8,0.22,1.23,0.32c0.43,0.09,0.84,0.28,1.23,0.54
		c0.39,0.27,0.7,0.66,0.95,1.16c0.25,0.5,0.37,1.24,0.37,2.2v39.52c0,0.96-0.12,1.69-0.37,2.2c-0.25,0.5-0.56,0.89-0.95,1.16
		c-0.39,0.27-0.8,0.45-1.23,0.54c-0.43,0.09-0.84,0.2-1.23,0.32c-0.39,0.12-0.7,0.29-0.95,0.51c-0.25,0.22-0.37,0.59-0.37,1.11
		c0,2.67,1.35,4.6,4.06,5.78c2.71,1.18,6.58,1.78,11.62,1.78c5.23,0,9.22-0.59,11.99-1.78c2.77-1.18,4.15-3.11,4.15-5.78
		c0-0.51-0.13-0.88-0.39-1.11c-0.26-0.22-0.58-0.39-0.97-0.51c-0.39-0.12-0.8-0.23-1.25-0.33s-0.86-0.29-1.25-0.56
		c-0.39-0.27-0.71-0.67-0.97-1.21c-0.26-0.54-0.39-1.29-0.39-2.25V31.39c0.26-0.26,0.57-0.54,0.93-0.84c0.36-0.3,0.79-0.59,1.27-0.86
		c0.48-0.27,1-0.5,1.56-0.69c0.56-0.19,1.18-0.28,1.86-0.28c1.31,0,2.41,0.22,3.29,0.65c0.88,0.43,1.58,1.05,2.09,1.86
		s0.88,1.81,1.09,3.01s0.32,2.54,0.32,4.04v14.34c0,1.01-0.13,1.78-0.39,2.32c-0.26,0.54-0.59,0.95-0.98,1.23s-0.82,0.47-1.27,0.58
		s-0.87,0.22-1.27,0.35c-0.4,0.13-0.73,0.3-0.98,0.53c-0.26,0.22-0.39,0.59-0.39,1.11c0,1.34,0.35,2.48,1.04,3.43
		s1.71,1.74,3.04,2.36c1.34,0.62,2.98,1.07,4.92,1.35s4.18,0.42,6.71,0.42c5.23,0,9.22-0.59,11.97-1.78
		c2.75-1.18,4.13-3.11,4.13-5.78c0-0.51-0.13-0.88-0.39-1.11C280.39,57.42,280.07,57.24,279.67,57.11z"/>
	<path d="M321.49,25c-1.77-1.64-3.91-2.93-6.43-3.87c-2.52-0.94-5.35-1.41-8.49-1.41c-2.67,0-5.12,0.3-7.35,0.91
		c-2.23,0.61-4.23,1.46-6.01,2.55s-3.34,2.38-4.68,3.87c-1.34,1.49-2.45,3.11-3.34,4.87s-1.56,3.62-2,5.57
		c-0.45,1.96-0.67,3.93-0.67,5.92c0,1.97,0.22,3.92,0.65,5.85s1.08,3.79,1.95,5.55c0.87,1.77,1.96,3.41,3.27,4.9
		c1.31,1.5,2.84,2.81,4.59,3.92c1.75,1.11,3.7,1.98,5.87,2.6c2.17,0.62,4.56,0.93,7.19,0.93c2.74,0,5.21-0.3,7.42-0.91
		s4.14-1.46,5.82-2.55s3.1-2.37,4.27-3.85s2.1-3.08,2.78-4.82c0.07-0.16,0.12-0.33,0.14-0.49c0.02-0.16,0.04-0.34,0.04-0.53
		c0-0.56-0.15-1.07-0.46-1.53s-0.73-0.69-1.27-0.69c-0.35,0-0.71,0.11-1.09,0.32c-0.47,0.26-1.05,0.53-1.76,0.81s-1.47,0.55-2.3,0.81
		c-0.83,0.26-1.7,0.47-2.6,0.63c-0.9,0.16-1.78,0.25-2.62,0.25c-1.59,0-3.05-0.16-4.36-0.47s-2.44-0.92-3.38-1.81
		c-0.94-0.89-1.67-2.14-2.2-3.74c-0.53-1.6-0.79-3.7-0.79-6.28h16.91c1.01,0,1.91-0.04,2.71-0.11s1.46-0.25,2-0.53
		s0.96-0.71,1.25-1.3c0.29-0.58,0.44-1.41,0.44-2.46c0-2.55-0.47-4.94-1.42-7.15S323.26,26.64,321.49,25z M303.82,37.37
		c0-1.5,0.13-2.79,0.4-3.88s0.64-1.99,1.12-2.69s1.05-1.22,1.71-1.56c0.66-0.34,1.36-0.51,2.11-0.51c0.94,0,1.78,0.14,2.51,0.42
		s1.35,0.76,1.85,1.42s0.87,1.56,1.12,2.67c0.26,1.11,0.39,2.49,0.39,4.13H303.82z"/>
	<path d="M371.11,22.17c-1.01-0.67-2.16-1.15-3.46-1.44c-1.3-0.29-2.65-0.44-4.06-0.44c-1.12,0-2.16,0.08-3.09,0.25
		c-0.94,0.16-1.8,0.39-2.6,0.69c-0.8,0.29-1.55,0.63-2.25,1.02s-1.38,0.79-2.04,1.21c-0.8-0.89-1.89-1.56-3.29-2.02
		s-3.25-0.69-5.57-0.69c-2.53,0-4.77,0.14-6.71,0.42s-3.59,0.73-4.92,1.35c-1.34,0.62-2.35,1.41-3.04,2.36s-1.04,2.09-1.04,3.43
		c0,0.52,0.13,0.88,0.39,1.11c0.26,0.22,0.57,0.39,0.95,0.51c0.38,0.12,0.79,0.22,1.23,0.32c0.45,0.09,0.86,0.28,1.23,0.54
		c0.38,0.27,0.69,0.66,0.95,1.18c0.26,0.52,0.39,1.24,0.39,2.18v18.77c0,0.96-0.13,1.69-0.39,2.2c-0.26,0.5-0.57,0.89-0.95,1.16
		c-0.38,0.27-0.79,0.45-1.23,0.54c-0.45,0.09-0.86,0.2-1.23,0.32c-0.38,0.12-0.69,0.29-0.95,0.51c-0.26,0.22-0.39,0.59-0.39,1.11
		c0,1.34,0.35,2.48,1.04,3.43s1.71,1.74,3.04,2.36c1.34,0.62,2.98,1.07,4.92,1.35s4.18,0.42,6.71,0.42c5.23,0,9.22-0.59,11.99-1.78
		c2.77-1.18,4.15-3.11,4.15-5.78c0-0.51-0.13-0.88-0.39-1.11c-0.26-0.22-0.58-0.39-0.97-0.51c-0.39-0.12-0.8-0.23-1.25-0.33
		s-0.86-0.29-1.25-0.56c-0.39-0.27-0.71-0.67-0.97-1.21c-0.26-0.54-0.39-1.29-0.39-2.25l0.07-18.81c0-0.94-0.08-1.73-0.25-2.39
		c-0.16-0.66-0.25-1.2-0.25-1.62c0-0.33,0.12-0.58,0.35-0.76s0.71-0.26,1.44-0.26s1.27,0.2,1.63,0.6c0.36,0.4,0.66,0.89,0.88,1.48
		c0.22,0.59,0.43,1.23,0.63,1.92c0.2,0.69,0.51,1.33,0.93,1.92c0.42,0.59,1.02,1.08,1.79,1.48c0.77,0.4,1.84,0.6,3.2,0.6
		s2.56-0.23,3.6-0.7c1.04-0.47,1.91-1.08,2.6-1.85c0.69-0.76,1.21-1.63,1.56-2.62s0.53-1.99,0.53-3.02c0-1.57-0.3-2.89-0.9-3.96
		C372.92,23.7,372.12,22.83,371.11,22.17z"/>
	<path d="M516.02,57.11c-0.4-0.13-0.83-0.25-1.28-0.37c-0.46-0.12-0.88-0.32-1.28-0.62c-0.4-0.29-0.73-0.72-0.98-1.28
		s-0.39-1.35-0.39-2.36V41.38c0-1.45-0.07-2.99-0.21-4.62c-0.14-1.63-0.42-3.25-0.84-4.85c-0.42-1.6-1.03-3.14-1.81-4.61
		c-0.79-1.46-1.83-2.76-3.13-3.88s-2.89-2.02-4.76-2.69s-4.12-1-6.75-1c-2.27,0-4.28,0.21-6.03,0.63s-3.28,0.94-4.59,1.56
		c-1.31,0.62-2.41,1.28-3.3,1.99s-1.61,1.35-2.14,1.93l0.07-17.65c0-1.59-0.11-2.92-0.32-3.97s-0.69-1.89-1.44-2.51
		c-0.75-0.62-1.86-1.06-3.32-1.32C472.04,0.13,470.04,0,467.51,0c-5.04,0-8.91,0.59-11.62,1.78c-2.71,1.18-4.06,3.11-4.06,5.78
		c0,0.52,0.12,0.88,0.37,1.11c0.25,0.22,0.56,0.39,0.95,0.51c0.39,0.12,0.8,0.22,1.23,0.32c0.43,0.09,0.84,0.28,1.23,0.54
		c0.39,0.27,0.7,0.66,0.95,1.16c0.25,0.5,0.37,1.24,0.37,2.2v39.52c0,0.96-0.12,1.69-0.37,2.2c-0.25,0.5-0.56,0.89-0.95,1.16
		c-0.39,0.27-0.8,0.45-1.23,0.54c-0.43,0.09-0.84,0.2-1.23,0.32c-0.39,0.12-0.7,0.29-0.95,0.51c-0.25,0.22-0.37,0.59-0.37,1.11
		c0,2.67,1.35,4.6,4.06,5.78c2.71,1.18,6.58,1.78,11.62,1.78c5.23,0,9.22-0.59,11.99-1.78c2.77-1.18,4.15-3.11,4.15-5.78
		c0-0.51-0.13-0.88-0.39-1.11c-0.26-0.22-0.58-0.39-0.97-0.51c-0.39-0.12-0.8-0.23-1.25-0.33s-0.86-0.29-1.25-0.56
		c-0.39-0.27-0.71-0.67-0.97-1.21c-0.26-0.54-0.39-1.29-0.39-2.25V31.39c0.26-0.26,0.57-0.54,0.93-0.84c0.36-0.3,0.79-0.59,1.27-0.86
		c0.48-0.27,1-0.5,1.56-0.69c0.56-0.19,1.18-0.28,1.86-0.28c1.31,0,2.41,0.22,3.29,0.65c0.88,0.43,1.58,1.05,2.09,1.86
		s0.88,1.81,1.09,3.01s0.32,2.54,0.32,4.04v14.34c0,1.01-0.13,1.78-0.39,2.32c-0.26,0.54-0.59,0.95-0.98,1.23s-0.82,0.47-1.27,0.58
		s-0.87,0.22-1.27,0.35c-0.4,0.13-0.73,0.3-0.98,0.53c-0.26,0.22-0.39,0.59-0.39,1.11c0,1.34,0.35,2.48,1.04,3.43
		s1.71,1.74,3.04,2.36c1.34,0.62,2.98,1.07,4.92,1.35s4.18,0.42,6.71,0.42c5.23,0,9.22-0.59,11.97-1.78
		c2.75-1.18,4.13-3.11,4.13-5.78c0-0.51-0.13-0.88-0.39-1.11C516.75,57.42,516.42,57.24,516.02,57.11z"/>
	<path d="M613.37,42.03c-1.23-1.23-2.63-2.3-4.2-3.2c-1.57-0.9-3.18-1.7-4.82-2.39c-1.64-0.69-3.25-1.31-4.82-1.85
		c-1.57-0.54-2.97-1.08-4.2-1.62c-1.23-0.54-2.22-1.09-2.97-1.67c-0.75-0.57-1.12-1.25-1.12-2.02c0-0.4,0.06-0.75,0.19-1.05
		c0.13-0.3,0.38-0.56,0.76-0.77s0.88-0.37,1.53-0.49c0.64-0.12,1.48-0.18,2.51-0.18c2.02,0,3.52,0.22,4.5,0.67
		c0.98,0.45,1.48,0.94,1.48,1.48c0,0.45-0.07,0.79-0.21,1.02c-0.14,0.23-0.29,0.45-0.44,0.65c-0.15,0.2-0.3,0.4-0.44,0.62
		s-0.21,0.53-0.21,0.95s0.09,0.8,0.28,1.14c0.19,0.34,0.52,0.63,1,0.88s1.12,0.44,1.93,0.58s1.85,0.21,3.11,0.21
		c1.12,0,2.12-0.15,2.99-0.46c0.87-0.3,1.61-0.71,2.21-1.23c0.61-0.51,1.07-1.12,1.39-1.81c0.32-0.69,0.47-1.42,0.47-2.2
		c0-1.1-0.34-2.22-1.02-3.36c-0.68-1.14-1.74-2.16-3.18-3.08s-3.28-1.66-5.5-2.25c-2.23-0.58-4.9-0.88-8.02-0.88
		c-1.8,0-3.56,0.12-5.27,0.37s-3.33,0.65-4.85,1.2c-1.52,0.55-2.93,1.26-4.22,2.13c-1.29,0.87-2.4,1.93-3.32,3.18
		c-0.93,1.25-1.65,2.71-2.16,4.36s-0.77,3.52-0.77,5.61c0,1.9,0.35,3.6,1.04,5.1c0.69,1.5,1.6,2.83,2.72,3.99s2.41,2.18,3.87,3.06
		s2.93,1.65,4.43,2.32s2.98,1.25,4.43,1.74s2.74,0.94,3.87,1.34c1.12,0.4,2.03,0.78,2.72,1.14c0.69,0.36,1.04,0.73,1.04,1.11
		c0,1.03-0.47,1.72-1.42,2.07s-2.42,0.53-4.41,0.53c-1.24,0-2.27-0.13-3.08-0.39c-0.81-0.26-1.47-0.59-1.99-1
		c-0.52-0.41-0.93-0.88-1.23-1.41s-0.59-1.07-0.84-1.63s-0.53-1.11-0.81-1.63s-0.65-1-1.11-1.41c-0.46-0.41-1.05-0.74-1.78-1
		c-0.73-0.26-1.65-0.39-2.78-0.39c-0.7,0-1.38,0.12-2.04,0.35c-0.66,0.23-1.24,0.59-1.74,1.07c-0.5,0.48-0.91,1.09-1.21,1.83
		s-0.46,1.6-0.46,2.58c0,1.67,0.61,3.19,1.83,4.57c1.22,1.38,2.82,2.57,4.82,3.55s4.26,1.75,6.8,2.3c2.54,0.55,5.14,0.83,7.79,0.83
		c2.62,0,5.2-0.29,7.72-0.88c2.52-0.58,4.76-1.49,6.73-2.72s3.56-2.8,4.76-4.71c1.21-1.91,1.81-4.19,1.81-6.84
		c0-2.16-0.38-4.05-1.12-5.7C615.59,44.7,614.6,43.26,613.37,42.03z"/>
	<path d="M656.96,53.44c-0.32-0.47-0.74-0.7-1.28-0.7c-0.33,0-0.68,0.11-1.05,0.32c-0.96,0.52-1.89,0.93-2.79,1.25
		s-1.96,0.47-3.18,0.47c-0.87,0-1.55-0.16-2.04-0.49c-0.49-0.33-0.86-0.77-1.09-1.34s-0.38-1.2-0.42-1.92
		c-0.05-0.71-0.07-1.46-0.07-2.23l-0.07-21.02h8.58c0.3,0,0.65-0.02,1.04-0.05s0.76-0.17,1.11-0.4c0.35-0.23,0.64-0.6,0.88-1.09
		s0.35-1.2,0.35-2.11c0-0.84-0.12-1.49-0.37-1.95s-0.54-0.79-0.9-1s-0.72-0.33-1.11-0.37s-0.72-0.05-1-0.05h-8.58V9.35
		c0-1.03-0.25-1.79-0.74-2.29s-1.1-0.74-1.83-0.74c-0.59,0-1.2,0.15-1.83,0.44c-0.63,0.29-1.25,0.74-1.86,1.35
		c-1.52,1.48-3.25,3.06-5.17,4.75c-1.64,1.45-3.6,3.1-5.87,4.94c-2.27,1.84-4.78,3.74-7.52,5.71c-0.66,0.49-0.98,1.1-0.98,1.83
		c0,0.61,0.25,1.17,0.74,1.67c0.49,0.5,1.17,0.76,2.04,0.76h1.72v17.79c0,1.45,0.06,2.99,0.19,4.62c0.13,1.63,0.4,3.25,0.81,4.85
		c0.41,1.61,1,3.14,1.78,4.61c0.77,1.46,1.8,2.75,3.09,3.87c1.29,1.11,2.87,2,4.75,2.67s4.12,1,6.75,1c1.9,0,3.68-0.26,5.34-0.77
		c1.66-0.51,3.19-1.25,4.59-2.21c1.39-0.96,2.62-2.13,3.69-3.52c1.07-1.38,1.94-2.94,2.62-4.68c0.12-0.26,0.18-0.58,0.18-0.98
		C657.44,54.43,657.28,53.91,656.96,53.44z"/>
	<path d="M75.13,26.86c-0.07-1.41-0.34-2.51-0.81-3.32s-1.09-1.42-1.86-1.83c-0.77-0.41-1.68-0.67-2.72-0.79
		c-1.04-0.12-2.16-0.18-3.36-0.18c-1.73,0-3.26,0.09-4.57,0.28c-1.31,0.19-2.41,0.51-3.29,0.97s-1.54,1.09-1.99,1.9
		s-0.67,1.82-0.67,3.04c0,0.68,0.21,1.24,0.63,1.67c0.42,0.43,0.88,0.82,1.37,1.16c0.49,0.34,0.95,0.66,1.37,0.97
		c0.42,0.3,0.63,0.66,0.63,1.05c0,0.19-0.05,0.36-0.14,0.53l-4.96,9.67L47,29.7c-0.54-1.16-1.7-1.96-3.06-1.96
		c-1.35,0-2.5,0.8-3.05,1.94l-6.48,12.3l-4.54-9.67c-0.19-0.37-0.28-0.71-0.28-1.02c0-0.42,0.16-0.74,0.47-0.97
		c0.32-0.22,0.67-0.46,1.05-0.7s0.74-0.57,1.05-0.97c0.32-0.4,0.47-0.97,0.47-1.72c0-0.87-0.27-1.62-0.81-2.27
		c-0.54-0.64-1.24-1.2-2.11-1.65s-1.86-0.83-2.97-1.12c-1.11-0.29-2.24-0.52-3.39-0.69c-1.15-0.16-2.26-0.28-3.34-0.35
		s-2.03-0.11-2.85-0.11c-2.74,0-5.18,0.08-7.31,0.23c-2.13,0.15-3.93,0.45-5.4,0.9c-1.46,0.45-2.58,1.07-3.34,1.88
		C0.38,24.56,0,25.62,0,26.93c0,0.47,0.13,0.85,0.39,1.14c0.26,0.29,0.6,0.57,1.02,0.83c0.42,0.26,0.91,0.52,1.46,0.77
		c0.55,0.26,1.12,0.58,1.71,0.97s1.18,0.88,1.78,1.48s1.14,1.34,1.63,2.23L25.7,66.02c0.3,0.56,0.73,0.84,1.27,0.84
		c0.28,0,0.56-0.08,0.83-0.23s0.49-0.36,0.65-0.62L38.5,49.25l9.6,16.77c0.33,0.56,0.76,0.84,1.3,0.84c0.28,0,0.56-0.08,0.83-0.23
		s0.47-0.36,0.62-0.62l18-33.71c0.19-0.37,0.47-0.71,0.86-1.02c0.39-0.3,0.81-0.6,1.28-0.88s0.95-0.56,1.44-0.83
		c0.49-0.27,0.94-0.54,1.34-0.83s0.73-0.57,0.98-0.88C75,27.58,75.13,27.23,75.13,26.86z"/>
	<path d="M446.89,26.32c0-3.64-2.95-6.6-6.6-6.6c-2.28,0-4.29,1.16-5.47,2.91c-1.48-0.89-3.2-1.6-5.17-2.11
		c-2.11-0.54-4.51-0.81-7.21-0.81c-4.43,0-8.28,0.45-11.55,1.35c-3.27,0.9-5.98,2.09-8.12,3.55c-2.14,1.46-3.74,3.13-4.8,4.99
		s-1.58,3.77-1.58,5.71c0,1.55,0.21,2.98,0.63,4.31c0.42,1.32,1.01,2.54,1.78,3.64c0.76,1.1,1.68,2.1,2.74,2.99
		c1.07,0.89,2.26,1.67,3.57,2.32c-1.43,0.4-2.72,0.88-3.88,1.46c-1.16,0.58-2.15,1.26-2.97,2.06c-0.82,0.8-1.45,1.71-1.9,2.74
		c-0.45,1.03-0.67,2.19-0.67,3.48c0,1.9,0.35,3.5,1.04,4.8s1.63,2.39,2.83,3.25c-0.68,0.59-1.23,1.34-1.65,2.27s-0.63,2.04-0.63,3.36
		c0,1.99,0.34,3.76,1.02,5.29s1.61,2.87,2.79,4.01s2.58,2.09,4.18,2.85s3.35,1.38,5.22,1.86s3.84,0.82,5.91,1.02s4.14,0.3,6.22,0.3
		c1.97,0,3.92-0.15,5.85-0.44s3.77-0.74,5.5-1.35s3.34-1.38,4.82-2.32s2.75-2.05,3.83-3.34s1.92-2.75,2.53-4.39s0.91-3.48,0.91-5.52
		c0-2.51-0.46-4.62-1.39-6.33c-0.93-1.71-2.14-3.12-3.64-4.24c-1.5-1.11-3.22-1.99-5.15-2.62s-3.9-1.11-5.91-1.44
		c-2-0.33-3.97-0.57-5.91-0.72c-1.93-0.15-3.65-0.31-5.15-0.47c-1.5-0.16-2.71-0.38-3.64-0.65c-0.93-0.27-1.39-0.7-1.39-1.28v-0.88
		c1.85,0.28,3.71,0.42,5.59,0.42c3.68,0,6.93-0.5,9.76-1.51c2.82-1.01,5.19-2.33,7.1-3.97c1.91-1.64,3.35-3.49,4.32-5.54
		c0.97-2.05,1.46-4.13,1.46-6.24c0-0.6-0.05-1.2-0.14-1.79C444.81,31.94,446.89,29.38,446.89,26.32z M417.81,70.15
		c1.46,0.06,2.84,0.12,4.11,0.19s2.39,0.2,3.34,0.39s1.7,0.46,2.25,0.81s0.83,0.83,0.83,1.44c0,0.47-0.08,0.97-0.25,1.49
		s-0.52,1.01-1.07,1.46s-1.34,0.81-2.37,1.09s-2.41,0.42-4.15,0.42c-2.02,0-3.7-0.11-5.04-0.33s-2.46-0.53-3.34-0.93
		s-1.55-0.86-2-1.37s-0.79-1.07-1-1.67s-0.33-1.21-0.35-1.83s-0.05-1.24-0.07-1.85c1.5,0.21,3.03,0.36,4.59,0.46
		S416.35,70.1,417.81,70.15z M425.16,38.16c-0.2,0.76-0.5,1.44-0.9,2.04s-0.9,1.08-1.51,1.44c-0.61,0.36-1.31,0.54-2.11,0.54
		c-0.73,0-1.4-0.25-2.02-0.74s-1.16-1.12-1.62-1.9s-0.81-1.63-1.07-2.58s-0.39-1.89-0.39-2.83c0-0.73,0.09-1.42,0.26-2.07
		c0.18-0.66,0.45-1.23,0.81-1.72s0.84-0.88,1.44-1.18c0.6-0.29,1.32-0.44,2.16-0.44c0.87,0,1.62,0.21,2.27,0.62
		c0.64,0.41,1.19,0.95,1.63,1.62s0.78,1.42,1,2.27s0.33,1.7,0.33,2.57C425.46,36.61,425.36,37.4,425.16,38.16z"/>
	<path d="M563.68,26.36c-4.9-4.07-11.53-6.58-18.83-6.58s-13.93,2.51-18.83,6.58c-4.48,4.32-7.28,10.38-7.28,17.09
		s2.79,12.77,7.28,17.09c4.9,4.07,11.53,6.58,18.83,6.58s13.93-2.51,18.83-6.58c4.48-4.32,7.28-10.38,7.28-17.09
		C570.96,36.74,568.16,30.68,563.68,26.36z M550.5,31.09c1.72,0,3.03,2.5,3.03,5.81c0,3.31-1.3,5.81-3.03,5.81s-3.02-2.5-3.02-5.81
		C547.47,33.59,548.77,31.09,550.5,31.09z M539.21,31.09c1.72,0,3.02,2.5,3.02,5.81c0,3.31-1.3,5.81-3.02,5.81s-3.03-2.5-3.03-5.81
		C536.18,33.59,537.48,31.09,539.21,31.09z M553.63,51.38c-1.29,2.8-4.82,4.68-8.78,4.68c-3.96,0-7.49-1.88-8.78-4.68
		c-0.35-0.77-0.02-1.68,0.75-2.03c0.37-0.17,0.79-0.19,1.17-0.05c0.38,0.14,0.69,0.42,0.86,0.8c0.78,1.68,3.3,2.9,6,2.9
		s5.22-1.22,6-2.9c0.17-0.37,0.48-0.65,0.86-0.79c0.38-0.14,0.8-0.12,1.17,0.05C553.65,49.71,553.98,50.62,553.63,51.38z"/>
</svg>
