<svg xmlns="http://www.w3.org/2000/svg" viewBox="0 0 725.98 87.33">
	<style type="text/css">
		.st0{fill:#205BD1;}
		.st1{fill:#FFFFFF;}
	</style>
	<path class="st0" d="M725.98,32.35c0-0.01,0-0.02,0-0.02s0-0.02,0-0.02v-0.8h-0.02c-0.22-7.03-3.22-13.36-7.96-17.92
		c-5.37-4.46-12.64-7.21-20.64-7.21s-15.27,2.75-20.64,7.21c-4.73,4.56-7.74,10.88-7.96,17.92h-0.02v0.73c0,0.03,0,0.06,0,0.09
		c0,0.03,0,0.06,0,0.09v27.94l0,5.95c4.77,0,4.77-7.22,9.54-7.22c4.77,0,4.77,7.22,9.54,7.22s4.77-7.22,9.54-7.22
		c4.77,0,4.77,7.22,9.54,7.22c4.77,0,4.77-7.22,9.54-7.22c4.77,0,4.77,7.22,9.54,7.22l0-5.95V32.35z"/>
	<path class="st1" d="M706.17,37.8c-0.84-0.39-1.84-0.02-2.23,0.82c-0.85,1.84-3.62,3.18-6.58,3.18c-2.96,0-5.73-1.34-6.58-3.18
		c-0.19-0.41-0.52-0.72-0.94-0.87c-0.42-0.15-0.88-0.14-1.28,0.05c-0.84,0.39-1.21,1.39-0.82,2.23c1.42,3.07,5.28,5.13,9.62,5.13
		c4.34,0,8.21-2.06,9.62-5.13C707.37,39.18,707.01,38.18,706.17,37.8z"/>
	<path class="st1" d="M691.17,30.51c1.89,0,3.32-2.74,3.32-6.37s-1.43-6.37-3.32-6.37s-3.32,2.74-3.32,6.37
		S689.28,30.51,691.17,30.51z"/>
	<path class="st1" d="M703.55,30.51c1.86,0,3.32-2.8,3.32-6.37c0-3.63-1.43-6.37-3.32-6.37c-1.89,0-3.32,2.74-3.32,6.37
		C700.23,27.71,701.69,30.51,703.55,30.51z"/>
	<g>
		<path class="st0" d="M75.13,26.86c0,0.38-0.13,0.72-0.39,1.02c-0.26,0.3-0.59,0.6-0.98,0.88s-0.84,0.56-1.34,0.83
			c-0.49,0.27-0.97,0.54-1.44,0.83s-0.9,0.57-1.28,0.88c-0.39,0.3-0.67,0.65-0.86,1.02l-18,33.71c-0.14,0.26-0.35,0.46-0.62,0.62
			s-0.54,0.23-0.83,0.23c-0.54,0-0.97-0.28-1.3-0.84l-9.6-16.77L28.44,66.02c-0.16,0.26-0.38,0.46-0.65,0.62s-0.54,0.23-0.83,0.23
			c-0.54,0-0.96-0.28-1.27-0.84L7.98,34.35c-0.49-0.89-1.04-1.63-1.63-2.23s-1.19-1.09-1.78-1.48s-1.15-0.71-1.71-0.97
			c-0.55-0.26-1.04-0.52-1.46-0.77c-0.42-0.26-0.76-0.53-1.02-0.83C0.13,27.78,0,27.4,0,26.93c0-1.31,0.38-2.37,1.14-3.18
			c0.76-0.81,1.88-1.44,3.34-1.88c1.46-0.44,3.26-0.74,5.4-0.9c2.13-0.15,4.57-0.23,7.31-0.23c0.82,0,1.77,0.04,2.85,0.11
			s2.19,0.19,3.34,0.35c1.15,0.16,2.28,0.39,3.39,0.69c1.11,0.29,2.1,0.67,2.97,1.12s1.57,1.01,2.11,1.65
			c0.54,0.65,0.81,1.4,0.81,2.27c0,0.75-0.16,1.32-0.47,1.72c-0.32,0.4-0.67,0.72-1.05,0.97s-0.74,0.48-1.05,0.7
			c-0.32,0.22-0.47,0.54-0.47,0.97c0,0.3,0.09,0.65,0.28,1.02l4.54,9.67l4.54-9.67c0.09-0.16,0.14-0.34,0.14-0.53
			c0-0.42-0.21-0.79-0.63-1.09c-0.42-0.3-0.88-0.63-1.39-0.98s-0.97-0.74-1.39-1.18c-0.42-0.43-0.63-0.99-0.63-1.67
			c0-1.29,0.21-2.34,0.62-3.15s1.03-1.43,1.86-1.86c0.83-0.43,1.89-0.73,3.16-0.88c1.28-0.15,2.78-0.23,4.52-0.23
			c1.34,0,2.53,0.09,3.57,0.26s1.92,0.49,2.62,0.95s1.24,1.08,1.6,1.88c0.36,0.8,0.54,1.83,0.54,3.09c-0.82,0.68-1.54,1.32-2.14,1.93
			c-0.54,0.54-1.03,1.09-1.48,1.65s-0.67,1.04-0.67,1.44c0,0.16,0.02,0.28,0.07,0.35l5.45,9.67l4.96-9.67
			c0.09-0.16,0.14-0.34,0.14-0.53c0-0.4-0.21-0.75-0.63-1.05c-0.42-0.3-0.88-0.63-1.37-0.97c-0.49-0.34-0.95-0.73-1.37-1.16
			c-0.42-0.43-0.63-0.99-0.63-1.67c0-1.22,0.22-2.23,0.67-3.04s1.11-1.44,1.99-1.9s1.97-0.78,3.29-0.97
			c1.31-0.19,2.84-0.28,4.57-0.28c1.2,0,2.31,0.06,3.36,0.18c1.04,0.12,1.95,0.38,2.72,0.79c0.77,0.41,1.39,1.02,1.86,1.83
			S75.06,25.45,75.13,26.86z"/>
		<path class="st0" d="M99.11,19.72c3.14,0,5.97,0.47,8.49,1.41c2.52,0.94,4.66,2.23,6.43,3.87c1.77,1.64,3.13,3.57,4.08,5.78
			s1.42,4.6,1.42,7.15c0,1.05-0.15,1.88-0.44,2.46c-0.29,0.59-0.71,1.02-1.25,1.3s-1.21,0.46-2,0.53s-1.7,0.11-2.71,0.11H96.23
			c0,2.58,0.26,4.67,0.79,6.28c0.53,1.61,1.26,2.85,2.2,3.74c0.94,0.89,2.06,1.49,3.38,1.81s2.77,0.47,4.36,0.47
			c0.84,0,1.72-0.08,2.62-0.25c0.9-0.16,1.77-0.37,2.6-0.63c0.83-0.26,1.6-0.53,2.3-0.81s1.29-0.55,1.76-0.81
			c0.38-0.21,0.74-0.32,1.09-0.32c0.54,0,0.96,0.23,1.27,0.69s0.46,0.97,0.46,1.53c0,0.19-0.01,0.36-0.04,0.53
			c-0.02,0.16-0.07,0.33-0.14,0.49c-0.68,1.73-1.61,3.34-2.78,4.82s-2.6,2.76-4.27,3.85s-3.62,1.94-5.82,2.55s-4.68,0.91-7.42,0.91
			c-2.62,0-5.02-0.31-7.19-0.93c-2.17-0.62-4.12-1.49-5.87-2.6c-1.75-1.11-3.28-2.42-4.59-3.92c-1.31-1.5-2.4-3.13-3.27-4.9
			c-0.87-1.77-1.52-3.62-1.95-5.55s-0.65-3.88-0.65-5.85c0-1.99,0.22-3.97,0.67-5.92c0.45-1.96,1.11-3.81,2-5.57s2-3.38,3.34-4.87
			c1.34-1.49,2.89-2.78,4.68-3.87s3.79-1.94,6.01-2.55C93.99,20.03,96.44,19.72,99.11,19.72z M101.72,28.72
			c-0.75,0-1.45,0.17-2.11,0.51c-0.66,0.34-1.22,0.86-1.71,1.56s-0.86,1.6-1.12,2.69s-0.4,2.39-0.4,3.88h11.21
			c0-1.64-0.13-3.02-0.39-4.13c-0.26-1.11-0.63-2-1.12-2.67s-1.11-1.14-1.85-1.42S102.65,28.72,101.72,28.72z"/>
		<path class="st0" d="M163.28,66.3c-1.2,0-2.38-0.06-3.57-0.19c-1.18-0.13-2.31-0.39-3.38-0.79c-1.07-0.4-2.04-0.97-2.94-1.72
			c-0.89-0.75-1.65-1.75-2.29-2.99c-0.47,1.1-1.22,2.06-2.27,2.88c-1.04,0.82-2.23,1.51-3.55,2.06c-1.32,0.55-2.72,0.96-4.18,1.23
			s-2.87,0.4-4.2,0.4c-2.37,0-4.44-0.28-6.22-0.84s-3.28-1.37-4.5-2.41c-1.22-1.04-2.13-2.29-2.74-3.74
			c-0.61-1.45-0.91-3.08-0.91-4.89c0-2.13,0.36-4.15,1.07-6.06c0.71-1.91,1.93-3.58,3.66-5.01c1.72-1.43,4.03-2.56,6.91-3.39
			c2.88-0.83,6.49-1.25,10.83-1.25h4.82c0-2.6-0.09-4.76-0.26-6.47c-0.18-1.71-0.45-3.07-0.83-4.08c-0.38-1.01-0.84-1.71-1.41-2.11
			c-0.56-0.4-1.24-0.6-2.04-0.6c-0.89,0-1.63,0.27-2.23,0.81c-0.6,0.54-1.08,1.32-1.44,2.34s-0.62,2.25-0.77,3.69
			s-0.23,3.08-0.23,4.9c-1.01,0-2.07-0.02-3.18-0.05s-2.21-0.12-3.3-0.26s-2.12-0.36-3.09-0.65c-0.97-0.29-1.83-0.69-2.58-1.2
			c-0.75-0.5-1.35-1.14-1.79-1.92s-0.67-1.71-0.67-2.81c0-1.55,0.4-3.01,1.21-4.39c0.81-1.38,2.05-2.6,3.73-3.64
			c1.68-1.04,3.8-1.88,6.38-2.5c2.58-0.62,5.65-0.93,9.21-0.93c4.15,0,7.72,0.42,10.72,1.27s5.47,2.11,7.4,3.8s3.36,3.81,4.29,6.38
			s1.39,5.57,1.39,9.02v12.45c0,1.01,0.13,1.79,0.4,2.36s0.6,0.99,0.98,1.28c0.39,0.29,0.81,0.5,1.28,0.62
			c0.47,0.12,0.9,0.24,1.28,0.37c0.39,0.13,0.71,0.3,0.98,0.53c0.27,0.22,0.4,0.59,0.4,1.11c0,2.34-1.05,4.17-3.15,5.47
			S167.34,66.3,163.28,66.3z M146.34,59.1c0.77,0,1.4-0.12,1.88-0.37s0.85-0.6,1.11-1.05s0.43-1.02,0.51-1.69s0.12-1.42,0.12-2.27
			c0-0.73-0.01-1.65-0.04-2.78s-0.05-2.23-0.07-3.3c-0.05-1.27-0.08-2.58-0.11-3.94c-0.33-0.05-0.64-0.09-0.93-0.12
			s-0.58-0.05-0.86-0.05c-1.2,0-2.2,0.24-3.01,0.72c-0.81,0.48-1.46,1.15-1.95,2c-0.49,0.86-0.84,1.86-1.04,3.02s-0.3,2.42-0.3,3.78
			c0,0.82,0.05,1.6,0.14,2.34s0.3,1.38,0.63,1.93c0.33,0.55,0.8,0.98,1.42,1.3S145.31,59.1,146.34,59.1z"/>
		<path class="st0" d="M202.21,48.8c0,0.77,0.02,1.52,0.07,2.23c0.05,0.72,0.19,1.35,0.42,1.92s0.6,1.01,1.09,1.34
			c0.49,0.33,1.17,0.49,2.04,0.49c1.22,0,2.28-0.16,3.18-0.47s1.83-0.73,2.79-1.25c0.38-0.21,0.73-0.32,1.05-0.32
			c0.54,0,0.97,0.23,1.28,0.7c0.32,0.47,0.47,1,0.47,1.58c0,0.4-0.06,0.73-0.18,0.98c-0.68,1.73-1.55,3.29-2.62,4.68
			c-1.07,1.38-2.3,2.55-3.69,3.52c-1.39,0.96-2.92,1.7-4.59,2.21c-1.66,0.52-3.45,0.77-5.34,0.77c-2.62,0-4.88-0.33-6.75-1
			s-3.46-1.56-4.75-2.67c-1.29-1.11-2.32-2.4-3.09-3.87c-0.77-1.46-1.37-3-1.78-4.61c-0.41-1.6-0.68-3.22-0.81-4.85
			c-0.13-1.63-0.19-3.17-0.19-4.62V27.77h-1.72c-0.87,0-1.55-0.25-2.04-0.76c-0.49-0.5-0.74-1.06-0.74-1.67
			c0-0.73,0.33-1.34,0.98-1.83c2.74-1.97,5.25-3.87,7.52-5.71c2.27-1.84,4.23-3.49,5.87-4.94c1.92-1.69,3.64-3.27,5.17-4.75
			c0.61-0.61,1.23-1.06,1.86-1.35c0.63-0.29,1.24-0.44,1.83-0.44c0.73,0,1.34,0.25,1.83,0.74s0.74,1.25,0.74,2.29v11.39h8.58
			c0.28,0,0.62,0.02,1,0.05s0.76,0.16,1.11,0.37s0.65,0.54,0.9,1s0.37,1.11,0.37,1.95c0,0.91-0.12,1.62-0.35,2.11
			s-0.53,0.86-0.88,1.09c-0.35,0.23-0.72,0.37-1.11,0.4s-0.73,0.05-1.04,0.05h-8.58L202.21,48.8z"/>
		<path class="st0" d="M243.6,25.84c0.54-0.59,1.25-1.23,2.14-1.93s1.99-1.37,3.3-1.99c1.31-0.62,2.84-1.14,4.59-1.56
			s3.76-0.63,6.03-0.63c2.62,0,4.88,0.33,6.75,1s3.46,1.56,4.76,2.69s2.34,2.42,3.13,3.88c0.79,1.46,1.39,3,1.81,4.61
			c0.42,1.61,0.7,3.22,0.84,4.85c0.14,1.63,0.21,3.17,0.21,4.62v11.11c0,1.01,0.13,1.79,0.39,2.36s0.59,0.99,0.98,1.28
			c0.4,0.29,0.83,0.5,1.28,0.62c0.46,0.12,0.88,0.24,1.28,0.37c0.4,0.13,0.73,0.3,0.98,0.53c0.26,0.22,0.39,0.59,0.39,1.11
			c0,2.67-1.38,4.6-4.13,5.78c-2.75,1.18-6.74,1.78-11.97,1.78c-2.53,0-4.77-0.14-6.71-0.42s-3.59-0.73-4.92-1.35
			c-1.34-0.62-2.35-1.41-3.04-2.36s-1.04-2.09-1.04-3.43c0-0.52,0.13-0.88,0.39-1.11c0.26-0.22,0.59-0.4,0.98-0.53
			c0.4-0.13,0.82-0.25,1.27-0.35s0.87-0.3,1.27-0.58s0.73-0.69,0.98-1.23c0.26-0.54,0.39-1.31,0.39-2.32V38.29
			c0-1.5-0.11-2.85-0.32-4.04s-0.57-2.2-1.09-3.01s-1.21-1.43-2.09-1.86c-0.88-0.43-1.97-0.65-3.29-0.65c-0.68,0-1.3,0.09-1.86,0.28
			c-0.56,0.19-1.08,0.42-1.56,0.69c-0.48,0.27-0.9,0.56-1.27,0.86c-0.36,0.3-0.67,0.59-0.93,0.84v21.38c0,0.96,0.13,1.71,0.39,2.25
			c0.26,0.54,0.58,0.94,0.97,1.21c0.39,0.27,0.8,0.46,1.25,0.56s0.86,0.22,1.25,0.33c0.39,0.12,0.71,0.29,0.97,0.51
			c0.26,0.22,0.39,0.59,0.39,1.11c0,2.67-1.38,4.6-4.15,5.78c-2.77,1.18-6.76,1.78-11.99,1.78c-5.04,0-8.91-0.59-11.62-1.78
			c-2.71-1.18-4.06-3.11-4.06-5.78c0-0.52,0.12-0.88,0.37-1.11c0.25-0.22,0.56-0.39,0.95-0.51c0.39-0.12,0.8-0.22,1.23-0.32
			c0.43-0.09,0.84-0.28,1.23-0.54c0.39-0.27,0.7-0.66,0.95-1.16c0.25-0.5,0.37-1.24,0.37-2.2V13.39c0-0.96-0.12-1.69-0.37-2.2
			c-0.25-0.5-0.56-0.89-0.95-1.16c-0.39-0.27-0.8-0.45-1.23-0.54c-0.43-0.09-0.84-0.2-1.23-0.32c-0.39-0.12-0.7-0.29-0.95-0.51
			c-0.25-0.22-0.37-0.59-0.37-1.11c0-2.67,1.35-4.6,4.06-5.78C223.68,0.59,227.55,0,232.59,0c2.53,0,4.53,0.13,5.99,0.39
			c1.46,0.26,2.57,0.7,3.32,1.32c0.75,0.62,1.23,1.46,1.44,2.51s0.32,2.38,0.32,3.97L243.6,25.84z"/>
		<path class="st0" d="M308.36,19.72c3.14,0,5.97,0.47,8.49,1.41c2.52,0.94,4.66,2.23,6.43,3.87c1.77,1.64,3.13,3.57,4.08,5.78
			s1.42,4.6,1.42,7.15c0,1.05-0.15,1.88-0.44,2.46c-0.29,0.59-0.71,1.02-1.25,1.3s-1.21,0.46-2,0.53s-1.7,0.11-2.71,0.11h-16.91
			c0,2.58,0.26,4.67,0.79,6.28c0.53,1.61,1.26,2.85,2.2,3.74c0.94,0.89,2.06,1.49,3.38,1.81s2.77,0.47,4.36,0.47
			c0.84,0,1.72-0.08,2.62-0.25c0.9-0.16,1.77-0.37,2.6-0.63c0.83-0.26,1.6-0.53,2.3-0.81s1.29-0.55,1.76-0.81
			c0.38-0.21,0.74-0.32,1.09-0.32c0.54,0,0.96,0.23,1.27,0.69s0.46,0.97,0.46,1.53c0,0.19-0.01,0.36-0.04,0.53
			c-0.02,0.16-0.07,0.33-0.14,0.49c-0.68,1.73-1.61,3.34-2.78,4.82s-2.6,2.76-4.27,3.85s-3.62,1.94-5.82,2.55s-4.68,0.91-7.42,0.91
			c-2.62,0-5.02-0.31-7.19-0.93c-2.17-0.62-4.12-1.49-5.87-2.6c-1.75-1.11-3.28-2.42-4.59-3.92c-1.31-1.5-2.4-3.13-3.27-4.9
			c-0.87-1.77-1.52-3.62-1.95-5.55s-0.65-3.88-0.65-5.85c0-1.99,0.22-3.97,0.67-5.92c0.45-1.96,1.11-3.81,2-5.57s2-3.38,3.34-4.87
			c1.34-1.49,2.89-2.78,4.68-3.87s3.79-1.94,6.01-2.55C303.24,20.03,305.69,19.72,308.36,19.72z M310.96,28.72
			c-0.75,0-1.45,0.17-2.11,0.51c-0.66,0.34-1.22,0.86-1.71,1.56s-0.86,1.6-1.12,2.69s-0.4,2.39-0.4,3.88h11.21
			c0-1.64-0.13-3.02-0.39-4.13c-0.26-1.11-0.63-2-1.12-2.67s-1.11-1.14-1.85-1.42S311.9,28.72,310.96,28.72z"/>
		<path class="st0" d="M357.84,52.77c0,0.96,0.13,1.71,0.39,2.25c0.26,0.54,0.58,0.94,0.97,1.21c0.39,0.27,0.8,0.46,1.25,0.56
			c0.45,0.11,0.86,0.22,1.25,0.33c0.39,0.12,0.71,0.29,0.97,0.51c0.26,0.22,0.39,0.59,0.39,1.11c0,2.67-1.38,4.6-4.15,5.78
			c-2.77,1.18-6.76,1.78-11.99,1.78c-2.53,0-4.77-0.14-6.71-0.42s-3.59-0.73-4.92-1.35c-1.34-0.62-2.35-1.41-3.04-2.36
			s-1.04-2.09-1.04-3.43c0-0.52,0.13-0.88,0.39-1.11c0.26-0.22,0.57-0.39,0.95-0.51c0.38-0.12,0.79-0.22,1.23-0.32
			c0.45-0.09,0.86-0.28,1.23-0.54c0.38-0.27,0.69-0.66,0.95-1.16c0.26-0.5,0.39-1.24,0.39-2.2V34.14c0-0.94-0.13-1.66-0.39-2.18
			c-0.26-0.52-0.57-0.91-0.95-1.18c-0.38-0.27-0.79-0.45-1.23-0.54c-0.45-0.09-0.86-0.2-1.23-0.32c-0.38-0.12-0.69-0.29-0.95-0.51
			c-0.26-0.22-0.39-0.59-0.39-1.11c0-1.34,0.35-2.48,1.04-3.43s1.71-1.73,3.04-2.36c1.34-0.62,2.98-1.07,4.92-1.35
			s4.18-0.42,6.71-0.42c2.32,0,4.18,0.23,5.57,0.69s2.49,1.13,3.29,2.02c0.66-0.42,1.34-0.83,2.04-1.21s1.45-0.73,2.25-1.02
			c0.8-0.29,1.66-0.52,2.6-0.69c0.94-0.16,1.97-0.25,3.09-0.25c1.41,0,2.76,0.15,4.06,0.44c1.3,0.29,2.46,0.77,3.46,1.44
			s1.81,1.54,2.41,2.6c0.6,1.07,0.9,2.39,0.9,3.96c0,1.03-0.18,2.04-0.53,3.02s-0.87,1.86-1.56,2.62c-0.69,0.76-1.56,1.38-2.6,1.85
			c-1.04,0.47-2.24,0.7-3.6,0.7s-2.43-0.2-3.2-0.6c-0.77-0.4-1.37-0.89-1.79-1.48c-0.42-0.59-0.73-1.22-0.93-1.92
			c-0.2-0.69-0.41-1.33-0.63-1.92c-0.22-0.59-0.52-1.08-0.88-1.48c-0.36-0.4-0.91-0.6-1.63-0.6s-1.21,0.09-1.44,0.26
			s-0.35,0.43-0.35,0.76c0,0.42,0.08,0.96,0.25,1.62c0.16,0.66,0.25,1.45,0.25,2.39L357.84,52.77z"/>
		<path class="st0" d="M406.82,19.72c2.7,0,5.1,0.27,7.21,0.81c2.11,0.54,3.94,1.3,5.48,2.29c0.66-0.42,1.39-0.82,2.2-1.2
			c0.81-0.37,1.65-0.7,2.53-0.98s1.78-0.5,2.69-0.67c0.91-0.16,1.8-0.25,2.67-0.25c0.96,0,1.87,0.11,2.72,0.33
			c0.86,0.22,1.6,0.57,2.23,1.05c0.63,0.48,1.14,1.11,1.51,1.88s0.56,1.72,0.56,2.85c0,0.73-0.12,1.44-0.37,2.13
			c-0.25,0.69-0.62,1.31-1.11,1.86c-0.49,0.55-1.11,1-1.85,1.34c-0.74,0.34-1.6,0.51-2.58,0.51s-1.75-0.14-2.3-0.42
			s-0.98-0.63-1.28-1.05s-0.53-0.88-0.67-1.37s-0.29-0.95-0.46-1.37s-0.37-0.77-0.62-1.05s-0.63-0.42-1.14-0.42
			c-0.12,0-0.25,0.01-0.39,0.04c-0.14,0.02-0.3,0.06-0.49,0.11c1.05,1.24,1.84,2.58,2.36,4.01c0.52,1.43,0.77,2.88,0.77,4.36
			c0,2.11-0.49,4.19-1.46,6.24c-0.97,2.05-2.41,3.9-4.32,5.54c-1.91,1.64-4.28,2.97-7.1,3.97c-2.82,1.01-6.08,1.51-9.76,1.51
			c-1.88,0-3.74-0.14-5.59-0.42v0.88c0,0.59,0.46,1.01,1.39,1.28c0.93,0.27,2.14,0.49,3.64,0.65c1.5,0.16,3.22,0.32,5.15,0.47
			c1.93,0.15,3.9,0.39,5.91,0.72c2,0.33,3.97,0.81,5.91,1.44s3.65,1.51,5.15,2.62c1.5,1.11,2.71,2.53,3.64,4.24
			c0.93,1.71,1.39,3.82,1.39,6.33c0,2.04-0.3,3.88-0.91,5.52s-1.45,3.11-2.53,4.39s-2.36,2.4-3.83,3.34s-3.08,1.71-4.82,2.32
			s-3.57,1.06-5.5,1.35s-3.88,0.44-5.85,0.44c-2.09,0-4.16-0.1-6.22-0.3s-4.03-0.54-5.91-1.02s-3.62-1.1-5.22-1.86s-3-1.71-4.18-2.85
			s-2.12-2.47-2.79-4.01s-1.02-3.3-1.02-5.29c0-1.31,0.21-2.43,0.63-3.36s0.97-1.68,1.65-2.27c-1.2-0.87-2.14-1.95-2.83-3.25
			s-1.04-2.9-1.04-4.8c0-1.29,0.22-2.45,0.67-3.48c0.45-1.03,1.08-1.95,1.9-2.74c0.82-0.8,1.81-1.48,2.97-2.06
			c1.16-0.57,2.46-1.06,3.88-1.46c-1.31-0.66-2.5-1.43-3.57-2.32c-1.07-0.89-1.98-1.89-2.74-2.99c-0.76-1.1-1.35-2.31-1.78-3.64
			c-0.42-1.32-0.63-2.76-0.63-4.31c0-1.95,0.53-3.85,1.58-5.71s2.65-3.53,4.8-4.99c2.14-1.46,4.85-2.65,8.12-3.55
			C398.54,20.17,402.39,19.72,406.82,19.72z M412.72,72.98c0-0.61-0.28-1.09-0.83-1.44s-1.3-0.62-2.25-0.81s-2.06-0.32-3.34-0.39
			s-2.65-0.13-4.11-0.19s-2.98-0.13-4.54-0.23s-3.09-0.25-4.59-0.46c0.02,0.61,0.05,1.22,0.07,1.85s0.14,1.23,0.35,1.83
			s0.54,1.15,1,1.67s1.12,0.97,2,1.37s1.99,0.71,3.34,0.93s3.03,0.33,5.04,0.33c1.73,0,3.12-0.14,4.15-0.42s1.82-0.64,2.37-1.09
			s0.91-0.93,1.07-1.46S412.72,73.45,412.72,72.98z M404.6,28.72c-0.84,0-1.56,0.15-2.16,0.44c-0.6,0.29-1.08,0.69-1.44,1.18
			s-0.63,1.07-0.81,1.72c-0.18,0.66-0.26,1.35-0.26,2.07c0,0.94,0.13,1.88,0.39,2.83s0.62,1.81,1.07,2.58s1,1.41,1.62,1.9
			s1.29,0.74,2.02,0.74c0.8,0,1.5-0.18,2.11-0.54c0.61-0.36,1.11-0.84,1.51-1.44s0.7-1.28,0.9-2.04c0.2-0.76,0.3-1.55,0.3-2.37
			c0-0.87-0.11-1.72-0.33-2.57s-0.56-1.6-1-2.27s-0.99-1.21-1.63-1.62C406.22,28.93,405.47,28.72,404.6,28.72z"/>
		<path class="st0" d="M463.25,25.84c0.54-0.59,1.25-1.23,2.14-1.93s1.99-1.37,3.3-1.99c1.31-0.62,2.84-1.14,4.59-1.56
			s3.76-0.63,6.03-0.63c2.62,0,4.88,0.33,6.75,1s3.46,1.56,4.76,2.69s2.34,2.42,3.13,3.88c0.79,1.46,1.39,3,1.81,4.61
			c0.42,1.61,0.7,3.22,0.84,4.85c0.14,1.63,0.21,3.17,0.21,4.62v11.11c0,1.01,0.13,1.79,0.39,2.36s0.59,0.99,0.98,1.28
			c0.4,0.29,0.83,0.5,1.28,0.62c0.46,0.12,0.88,0.24,1.28,0.37c0.4,0.13,0.73,0.3,0.98,0.53c0.26,0.22,0.39,0.59,0.39,1.11
			c0,2.67-1.38,4.6-4.13,5.78c-2.75,1.18-6.74,1.78-11.97,1.78c-2.53,0-4.77-0.14-6.71-0.42s-3.59-0.73-4.92-1.35
			c-1.34-0.62-2.35-1.41-3.04-2.36s-1.04-2.09-1.04-3.43c0-0.52,0.13-0.88,0.39-1.11c0.26-0.22,0.59-0.4,0.98-0.53
			c0.4-0.13,0.82-0.25,1.27-0.35s0.87-0.3,1.27-0.58s0.73-0.69,0.98-1.23c0.26-0.54,0.39-1.31,0.39-2.32V38.29
			c0-1.5-0.11-2.85-0.32-4.04s-0.57-2.2-1.09-3.01s-1.21-1.43-2.09-1.86c-0.88-0.43-1.97-0.65-3.29-0.65c-0.68,0-1.3,0.09-1.86,0.28
			c-0.56,0.19-1.08,0.42-1.56,0.69c-0.48,0.27-0.9,0.56-1.27,0.86c-0.36,0.3-0.67,0.59-0.93,0.84v21.38c0,0.96,0.13,1.71,0.39,2.25
			c0.26,0.54,0.58,0.94,0.97,1.21c0.39,0.27,0.8,0.46,1.25,0.56s0.86,0.22,1.25,0.33c0.39,0.12,0.71,0.29,0.97,0.51
			c0.26,0.22,0.39,0.59,0.39,1.11c0,2.67-1.38,4.6-4.15,5.78c-2.77,1.18-6.76,1.78-11.99,1.78c-5.04,0-8.91-0.59-11.62-1.78
			c-2.71-1.18-4.06-3.11-4.06-5.78c0-0.52,0.12-0.88,0.37-1.11c0.25-0.22,0.56-0.39,0.95-0.51c0.39-0.12,0.8-0.22,1.23-0.32
			c0.43-0.09,0.84-0.28,1.23-0.54c0.39-0.27,0.7-0.66,0.95-1.16c0.25-0.5,0.37-1.24,0.37-2.2V13.39c0-0.96-0.12-1.69-0.37-2.2
			c-0.25-0.5-0.56-0.89-0.95-1.16c-0.39-0.27-0.8-0.45-1.23-0.54c-0.43-0.09-0.84-0.2-1.23-0.32c-0.39-0.12-0.7-0.29-0.95-0.51
			c-0.25-0.22-0.37-0.59-0.37-1.11c0-2.67,1.35-4.6,4.06-5.78C443.33,0.59,447.21,0,452.25,0c2.53,0,4.53,0.13,5.99,0.39
			c1.46,0.26,2.57,0.7,3.32,1.32c0.75,0.62,1.23,1.46,1.44,2.51s0.32,2.38,0.32,3.97L463.25,25.84z"/>
		<path class="st0" d="M529.11,67.18c-2.79,0-5.35-0.33-7.68-0.98c-2.33-0.66-4.43-1.55-6.29-2.69c-1.86-1.14-3.5-2.48-4.9-4.03
			s-2.58-3.22-3.52-5.01s-1.64-3.66-2.11-5.61c-0.47-1.95-0.7-3.89-0.7-5.84c0-1.99,0.25-3.96,0.76-5.89s1.27-3.77,2.29-5.5
			c1.02-1.73,2.29-3.33,3.81-4.78c1.52-1.45,3.31-2.71,5.36-3.76s4.36-1.88,6.93-2.48s5.4-0.9,8.49-0.9c2.72,0,5.21,0.3,7.47,0.91
			c2.26,0.61,4.31,1.45,6.13,2.51c1.83,1.07,3.43,2.33,4.8,3.78c1.37,1.45,2.51,3.04,3.43,4.75c0.91,1.71,1.6,3.52,2.06,5.41
			s0.69,3.81,0.69,5.73c0,1.99-0.25,3.98-0.74,5.98c-0.49,1.99-1.24,3.89-2.23,5.7c-1,1.81-2.24,3.48-3.74,5.03s-3.25,2.89-5.26,4.03
			c-2,1.14-4.26,2.03-6.77,2.67S532.11,67.18,529.11,67.18z M530.69,58.18c0.77,0,1.42-0.23,1.95-0.69s0.96-1.12,1.28-1.99
			c0.33-0.87,0.56-1.92,0.7-3.15s0.21-2.61,0.21-4.13c0-1.34-0.01-2.75-0.04-4.24c-0.02-1.49-0.08-2.95-0.18-4.39
			s-0.25-2.82-0.46-4.13c-0.21-1.31-0.51-2.47-0.9-3.48c-0.39-1.01-0.87-1.8-1.46-2.39c-0.59-0.59-1.3-0.88-2.14-0.88
			c-0.82,0-1.52,0.23-2.09,0.69s-1.05,1.1-1.42,1.92c-0.38,0.82-0.65,1.81-0.83,2.95c-0.18,1.15-0.26,2.41-0.26,3.8
			c0,1.29,0.02,2.68,0.07,4.18c0.05,1.5,0.14,2.99,0.28,4.48c0.14,1.49,0.35,2.92,0.62,4.31c0.27,1.38,0.61,2.6,1.02,3.66
			s0.91,1.9,1.51,2.53S529.87,58.18,530.69,58.18z"/>
		<path class="st0" d="M586.67,28.93c0-0.54-0.49-1.03-1.48-1.48c-0.98-0.44-2.48-0.67-4.5-0.67c-1.03,0-1.87,0.06-2.51,0.18
			c-0.64,0.12-1.15,0.28-1.53,0.49s-0.63,0.47-0.76,0.77c-0.13,0.3-0.19,0.66-0.19,1.05c0,0.77,0.38,1.45,1.12,2.02
			c0.75,0.57,1.74,1.13,2.97,1.67c1.23,0.54,2.63,1.08,4.2,1.62c1.57,0.54,3.18,1.15,4.82,1.85c1.64,0.69,3.25,1.49,4.82,2.39
			c1.57,0.9,2.97,1.97,4.2,3.2s2.22,2.67,2.97,4.31c0.75,1.64,1.12,3.54,1.12,5.7c0,2.65-0.6,4.93-1.81,6.84
			c-1.21,1.91-2.79,3.48-4.76,4.71s-4.21,2.14-6.73,2.72c-2.52,0.59-5.09,0.88-7.72,0.88c-2.65,0-5.24-0.28-7.79-0.83
			c-2.54-0.55-4.81-1.32-6.8-2.3s-3.6-2.17-4.82-3.55c-1.22-1.38-1.83-2.91-1.83-4.57c0-0.98,0.15-1.85,0.46-2.58
			s0.71-1.35,1.21-1.83c0.5-0.48,1.08-0.84,1.74-1.07c0.66-0.23,1.34-0.35,2.04-0.35c1.12,0,2.05,0.13,2.78,0.39
			c0.73,0.26,1.32,0.59,1.78,1c0.46,0.41,0.83,0.88,1.11,1.41s0.55,1.07,0.81,1.63s0.54,1.11,0.84,1.63s0.71,1,1.23,1.41
			c0.52,0.41,1.18,0.74,1.99,1c0.81,0.26,1.83,0.39,3.08,0.39c1.99,0,3.46-0.18,4.41-0.53s1.42-1.04,1.42-2.07
			c0-0.37-0.35-0.74-1.04-1.11c-0.69-0.36-1.6-0.74-2.72-1.14c-1.12-0.4-2.41-0.84-3.87-1.34s-2.93-1.07-4.43-1.74
			s-2.98-1.44-4.43-2.32s-2.74-1.9-3.87-3.06s-2.03-2.49-2.72-3.99c-0.69-1.5-1.04-3.2-1.04-5.1c0-2.09,0.26-3.96,0.77-5.61
			s1.24-3.11,2.16-4.36c0.93-1.25,2.03-2.31,3.32-3.18c1.29-0.87,2.7-1.58,4.22-2.13c1.52-0.55,3.14-0.95,4.85-1.2
			s3.47-0.37,5.27-0.37c3.12,0,5.79,0.29,8.02,0.88c2.23,0.59,4.06,1.34,5.5,2.25s2.5,1.94,3.18,3.08c0.68,1.14,1.02,2.26,1.02,3.36
			c0,0.77-0.16,1.51-0.47,2.2c-0.32,0.69-0.78,1.3-1.39,1.81c-0.61,0.52-1.35,0.93-2.21,1.23c-0.87,0.3-1.86,0.46-2.99,0.46
			c-1.27,0-2.3-0.07-3.11-0.21s-1.45-0.33-1.93-0.58s-0.81-0.54-1-0.88c-0.19-0.34-0.28-0.72-0.28-1.14s0.07-0.74,0.21-0.95
			s0.29-0.42,0.44-0.62c0.15-0.2,0.3-0.42,0.44-0.65C586.6,29.72,586.67,29.38,586.67,28.93z"/>
		<path class="st0" d="M629.85,48.8c0,0.77,0.02,1.52,0.07,2.23c0.05,0.72,0.19,1.35,0.42,1.92s0.6,1.01,1.09,1.34
			c0.49,0.33,1.17,0.49,2.04,0.49c1.22,0,2.28-0.16,3.18-0.47s1.83-0.73,2.79-1.25c0.38-0.21,0.73-0.32,1.05-0.32
			c0.54,0,0.97,0.23,1.28,0.7c0.32,0.47,0.47,1,0.47,1.58c0,0.4-0.06,0.73-0.18,0.98c-0.68,1.73-1.55,3.29-2.62,4.68
			c-1.07,1.38-2.3,2.55-3.69,3.52c-1.39,0.96-2.92,1.7-4.59,2.21c-1.66,0.52-3.45,0.77-5.34,0.77c-2.62,0-4.88-0.33-6.75-1
			s-3.46-1.56-4.75-2.67c-1.29-1.11-2.32-2.4-3.09-3.87c-0.77-1.46-1.37-3-1.78-4.61c-0.41-1.6-0.68-3.22-0.81-4.85
			c-0.13-1.63-0.19-3.17-0.19-4.62V27.77h-1.72c-0.87,0-1.55-0.25-2.04-0.76c-0.49-0.5-0.74-1.06-0.74-1.67
			c0-0.73,0.33-1.34,0.98-1.83c2.74-1.97,5.25-3.87,7.52-5.71c2.27-1.84,4.23-3.49,5.87-4.94c1.92-1.69,3.64-3.27,5.17-4.75
			c0.61-0.61,1.23-1.06,1.86-1.35c0.63-0.29,1.24-0.44,1.83-0.44c0.73,0,1.34,0.25,1.83,0.74s0.74,1.25,0.74,2.29v11.39h8.58
			c0.28,0,0.62,0.02,1,0.05s0.76,0.16,1.11,0.37s0.65,0.54,0.9,1s0.37,1.11,0.37,1.95c0,0.91-0.12,1.62-0.35,2.11
			s-0.53,0.86-0.88,1.09c-0.35,0.23-0.72,0.37-1.11,0.4s-0.73,0.05-1.04,0.05h-8.58L629.85,48.8z"/>
	</g>
</svg>
