<?xml version="1.0" encoding="utf-8"?>
<!-- Generator: Adobe Illustrator 25.3.1, SVG Export Plug-In . SVG Version: 6.00 Build 0)  -->
<svg version="1.1" id="Layer_1" xmlns="http://www.w3.org/2000/svg" xmlns:xlink="http://www.w3.org/1999/xlink" x="0px" y="0px"
	 viewBox="0 0 500 740" style="enable-background:new 0 0 500 740;" xml:space="preserve">
<style type="text/css">
	.st0{fill:#317C2D;}
	.st1{fill:#FFDA40;}
	.st2{fill:#FFFFFF;}
	.st3{opacity:0.2;}
	.st4{fill:#EA2424;}
	.st5{fill:#F45353;}
	.st6{fill:#FFCB48;}
</style>
<path class="st0" d="M50.09,522.25c0-36.81,22.24-73.11,49.67-73.11s49.67,36.31,49.67,73.11"/>
<path d="M154.43,522.25h-10.01c0-35.64-21.29-68.1-44.67-68.1s-44.67,32.46-44.67,68.1H45.08c0-36.95,22.46-78.12,54.68-78.12
	S154.43,485.31,154.43,522.25z"/>
<path class="st0" d="M106.14,522.25c0-22.63-22.59-40.98-50.45-40.98S5.25,499.62,5.25,522.25"/>
<path d="M111.15,522.25h-10.01c0-19.84-20.38-35.98-45.44-35.98s-45.44,16.14-45.44,35.98H0.24c0-25.36,24.88-45.99,55.45-45.99
	C86.27,476.27,111.15,496.9,111.15,522.25z"/>
<path class="st0" d="M225.82,523.52v-41.98c-76.39-61.11-90.96-6.32-118.38,17.7c-27.42,24.02-67.73,24.28-67.73,24.28"/>
<path d="M39.73,528.53l-0.06-10.01c0.38,0,38.83-0.57,64.47-23.04c5.06-4.43,9.7-10.02,14.61-15.95
	c10.67-12.87,21.7-26.17,38.97-29.91c19.43-4.22,42.07,4.68,71.23,28.01l1.88,1.5v44.39h-10.01v-39.56
	c-25.36-19.92-45.32-27.95-60.97-24.56c-13.89,3.01-23.36,14.43-33.39,26.52c-4.94,5.96-10.06,12.13-15.72,17.09
	C82.24,527.98,41.45,528.52,39.73,528.53z"/>
<rect y="516.23" class="st0" width="212.28" height="21.69"/>
<path class="st1" d="M331.77,161.7c0,7.31-14.47,13.51-15.47,20.54c-1.03,7.21,11.1,17.21,9.1,24.05
	c-2.04,6.96-17.67,8.83-20.64,15.33c-3.01,6.58,5.79,19.61,1.91,25.64c-3.91,6.07-19.42,3.45-24.13,8.88
	c-4.72,5.44,0.07,20.43-5.37,25.15c-5.43,4.71-19.59-2.15-25.65,1.76c-6.03,3.88-5.64,19.62-12.22,22.62
	c-6.5,2.98-18.14-7.6-25.1-5.56c-6.84,2.01-10.92,17.2-18.13,18.23c-7.03,1-15.21-12.43-22.52-12.43
	c-7.31,0-15.48,13.43-22.52,12.43c-7.21-1.03-11.29-16.23-18.13-18.23c-6.96-2.04-18.6,8.53-25.1,5.56
	c-6.58-3.01-6.19-18.74-12.22-22.62c-6.07-3.91-20.22,2.95-25.65-1.76c-5.44-4.72-0.65-19.71-5.37-25.15
	c-4.71-5.43-20.23-2.81-24.13-8.88c-3.88-6.03,4.92-19.06,1.91-25.64c-2.98-6.5-18.6-8.37-20.64-15.33
	c-2.01-6.84,10.12-16.84,9.1-24.05c-1-7.03-15.47-13.23-15.47-20.54c0-7.31,14.47-13.51,15.47-20.54c1.03-7.21-11.1-17.21-9.1-24.05
	c2.04-6.96,17.67-8.83,20.64-15.33c3.01-6.58-5.79-19.61-1.91-25.64c3.91-6.07,19.42-3.45,24.13-8.88
	c4.72-5.44-0.07-20.43,5.37-25.15c5.43-4.71,19.59,2.15,25.65-1.76c6.03-3.88,5.64-19.62,12.22-22.62c6.5-2.98,18.14,7.6,25.1,5.56
	c6.84-2.01,10.92-17.2,18.13-18.23c7.03-1,15.21,12.43,22.52,12.43c7.31,0,15.48-13.43,22.52-12.43
	c7.21,1.03,11.29,16.23,18.13,18.23c6.96,2.04,18.6-8.53,25.1-5.56c6.58,3.01,6.19,18.74,12.22,22.62
	c6.07,3.91,20.22-2.95,25.65,1.76c5.44,4.72,0.65,19.71,5.37,25.15c4.71,5.43,20.23,2.81,24.13,8.88
	c3.88,6.03-4.92,19.06-1.91,25.64c2.98,6.5,18.6,8.37,20.64,15.33c2.01,6.84-10.12,16.84-9.1,24.05
	C317.31,148.2,331.77,154.39,331.77,161.7z"/>
<path d="M151.79,323.41c-0.49,0-0.98-0.03-1.47-0.1c-5.98-0.85-9.72-6.49-13.02-11.47c-1.71-2.58-4.29-6.47-5.81-6.92
	c-1.61-0.47-5.96,1.44-8.84,2.7c-5.41,2.38-11.54,5.07-16.94,2.6c-5.46-2.5-7.44-8.94-9.19-14.62c-0.91-2.97-2.3-7.47-3.66-8.34
	c-1.39-0.89-6.08-0.29-9.18,0.11c-5.88,0.76-12.53,1.61-17.04-2.29c-4.51-3.92-4.61-10.64-4.69-16.57
	c-0.04-3.12-0.11-7.84-1.18-9.08c-1.07-1.23-5.72-1.96-8.8-2.45c-5.87-0.92-12.51-1.97-15.76-7c-3.22-5.01-1.43-11.47,0.15-17.17
	c0.84-3.02,2.11-7.59,1.41-9.1c-0.67-1.46-4.9-3.46-7.71-4.79c-5.39-2.55-11.49-5.44-13.18-11.21c-1.67-5.68,1.87-11.35,4.99-16.35
	c1.77-2.83,4.19-6.72,3.95-8.4c-0.22-1.55-3.7-4.65-5.99-6.7c-4.46-3.98-9.52-8.49-9.52-14.55c0-6.06,5.06-10.57,9.52-14.55
	c2.3-2.05,5.77-5.15,5.99-6.7c0.24-1.68-2.18-5.56-3.95-8.4c-3.12-5-6.66-10.67-4.99-16.35c1.69-5.78,7.8-8.67,13.19-11.22
	c2.8-1.33,7.04-3.33,7.71-4.79c0.69-1.51-0.57-6.08-1.41-9.1c-1.58-5.7-3.38-12.16-0.15-17.17c3.24-5.03,9.89-6.08,15.76-7
	c3.08-0.48,7.73-1.22,8.8-2.45c1.07-1.24,1.14-5.96,1.18-9.08c0.08-5.93,0.18-12.65,4.69-16.57c4.51-3.91,11.17-3.05,17.04-2.29
	c3.1,0.4,7.79,1,9.18,0.11c1.36-0.88,2.74-5.37,3.66-8.34c1.75-5.68,3.73-12.13,9.19-14.62c5.4-2.47,11.53,0.22,16.94,2.6
	c2.88,1.26,7.23,3.17,8.84,2.7c1.52-0.45,4.1-4.34,5.81-6.92c3.3-4.98,7.04-10.62,13.02-11.47c5.84-0.83,10.93,3.46,15.43,7.25
	c2.57,2.16,6.08,5.12,7.8,5.12s5.23-2.96,7.8-5.12c4.49-3.79,9.59-8.08,15.43-7.25c5.98,0.85,9.72,6.49,13.02,11.47
	c1.71,2.58,4.29,6.47,5.81,6.92c1.62,0.47,5.96-1.44,8.84-2.7c5.41-2.38,11.54-5.07,16.94-2.6c5.46,2.5,7.44,8.94,9.19,14.62
	c0.91,2.97,2.3,7.47,3.66,8.34c1.39,0.89,6.08,0.29,9.18-0.11c5.88-0.76,12.53-1.61,17.04,2.29c4.51,3.91,4.61,10.64,4.69,16.57
	c0.04,3.12,0.11,7.84,1.18,9.08c1.07,1.23,5.72,1.96,8.8,2.45c5.87,0.92,12.51,1.97,15.76,7c3.22,5.01,1.43,11.47-0.15,17.17
	c-0.84,3.02-2.11,7.59-1.41,9.1c0.67,1.46,4.9,3.46,7.71,4.79c5.39,2.55,11.49,5.44,13.18,11.21c1.67,5.68-1.87,11.35-4.99,16.35
	c-1.77,2.83-4.19,6.72-3.95,8.4c0.22,1.55,3.69,4.65,5.99,6.7c4.46,3.98,9.52,8.49,9.52,14.55c0,6.06-5.06,10.57-9.52,14.55
	c-2.3,2.05-5.77,5.15-5.99,6.7c-0.24,1.68,2.18,5.56,3.95,8.4c3.12,5,6.66,10.67,4.99,16.35c-1.69,5.78-7.8,8.67-13.18,11.21
	c-2.8,1.33-7.04,3.33-7.71,4.79c-0.69,1.51,0.57,6.08,1.41,9.1c1.58,5.7,3.38,12.16,0.15,17.17c-3.24,5.03-9.89,6.08-15.76,7
	c-3.08,0.48-7.74,1.22-8.8,2.45c-1.07,1.24-1.14,5.96-1.18,9.08c-0.08,5.93-0.18,12.65-4.69,16.57c-4.51,3.91-11.17,3.05-17.04,2.29
	c-3.1-0.4-7.79-1-9.18-0.11c-1.36,0.88-2.74,5.37-3.66,8.34c-1.75,5.68-3.73,12.13-9.19,14.62c-5.4,2.47-11.53-0.22-16.94-2.6
	c-2.88-1.27-7.23-3.17-8.84-2.7c-1.52,0.45-4.1,4.34-5.81,6.92c-3.3,4.98-7.04,10.62-13.02,11.47c-5.84,0.83-10.93-3.46-15.43-7.25
	c-2.57-2.16-6.08-5.13-7.8-5.13s-5.23,2.96-7.8,5.13C161.63,319.52,157.02,323.41,151.79,323.41z M130.91,294.84
	c1.14,0,2.27,0.14,3.39,0.47c5.03,1.47,8.24,6.31,11.34,10.99c1.7,2.57,4.56,6.87,6.09,7.09c1.39,0.21,5.41-3.18,7.56-4.99
	c4.36-3.68,8.88-7.48,14.25-7.48s9.89,3.8,14.25,7.48c2.15,1.82,6.15,5.2,7.56,4.99c1.53-0.22,4.38-4.52,6.09-7.09
	c3.1-4.68,6.31-9.52,11.34-10.99c5.11-1.5,10.49,0.86,15.68,3.15c2.6,1.14,7.43,3.26,8.75,2.66c1.38-0.63,2.88-5.53,3.79-8.46
	c1.66-5.39,3.37-10.96,7.81-13.82c4.46-2.87,10.27-2.13,15.88-1.4c3.02,0.39,8.08,1.04,9.2,0.07c1.13-0.98,1.2-6.09,1.24-9.14
	c0.08-5.65,0.16-11.5,3.63-15.5c3.46-3.99,9.23-4.9,14.81-5.78c3.02-0.48,8.08-1.27,8.89-2.53c0.79-1.23-0.62-6.33-1.38-9.07
	c-1.51-5.46-3.08-11.11-0.87-15.94c2.19-4.78,7.45-7.27,12.53-9.68c2.78-1.32,7.43-3.52,7.86-4.98c0.4-1.38-2.38-5.84-3.88-8.24
	c-3.01-4.83-6.12-9.82-5.37-15.11c0.74-5.18,5.06-9.03,9.24-12.76c2.31-2.06,6.17-5.5,6.17-7.07c0-1.57-3.86-5.01-6.17-7.07
	c-4.18-3.73-8.51-7.58-9.24-12.76c-0.75-5.3,2.36-10.29,5.37-15.11c1.5-2.4,4.28-6.86,3.88-8.24c-0.43-1.47-5.08-3.67-7.86-4.98
	c-5.09-2.41-10.34-4.89-12.53-9.68c-2.21-4.84-0.64-10.48,0.87-15.94c0.76-2.74,2.17-7.84,1.38-9.07c-0.81-1.26-5.87-2.06-8.89-2.53
	c-5.58-0.88-11.35-1.78-14.81-5.78c-3.47-4-3.55-9.85-3.63-15.5c-0.04-3.05-0.11-8.17-1.24-9.14c-1.12-0.97-6.18-0.32-9.2,0.07
	c-5.61,0.72-11.42,1.47-15.88-1.4c-4.43-2.86-6.15-8.43-7.81-13.82c-0.9-2.93-2.41-7.84-3.79-8.46c-1.32-0.6-6.15,1.52-8.75,2.66
	c-5.2,2.28-10.57,4.65-15.68,3.15c-5.03-1.47-8.24-6.31-11.34-10.99c-1.7-2.57-4.56-6.87-6.09-7.09c-1.42-0.22-5.41,3.18-7.56,4.99
	c-4.36,3.68-8.87,7.48-14.25,7.48s-9.89-3.8-14.25-7.48c-2.15-1.81-6.17-5.2-7.56-4.99c-1.53,0.22-4.38,4.52-6.09,7.09
	c-3.1,4.68-6.31,9.52-11.34,10.99c-5.12,1.5-10.49-0.86-15.68-3.15c-2.6-1.14-7.43-3.27-8.75-2.66c-1.38,0.63-2.88,5.53-3.79,8.46
	c-1.66,5.39-3.37,10.96-7.81,13.82c-4.46,2.87-10.27,2.13-15.88,1.4c-3.02-0.39-8.08-1.04-9.2-0.07c-1.13,0.98-1.2,6.09-1.24,9.14
	c-0.08,5.65-0.16,11.5-3.63,15.5c-3.46,3.99-9.23,4.9-14.81,5.78c-3.02,0.48-8.08,1.27-8.89,2.53c-0.79,1.23,0.62,6.33,1.38,9.07
	c1.52,5.46,3.08,11.11,0.87,15.94c-2.19,4.78-7.45,7.27-12.53,9.68c-2.78,1.32-7.43,3.52-7.86,4.98c-0.4,1.38,2.38,5.84,3.88,8.24
	c3.01,4.83,6.13,9.82,5.37,15.11c-0.74,5.17-5.06,9.03-9.24,12.76c-2.31,2.06-6.17,5.5-6.17,7.07c0,1.57,3.86,5.01,6.17,7.07
	c4.18,3.73,8.51,7.58,9.24,12.76c0.75,5.3-2.36,10.29-5.37,15.11c-1.5,2.4-4.28,6.86-3.88,8.24c0.43,1.47,5.08,3.67,7.86,4.98
	c5.09,2.41,10.34,4.89,12.53,9.68c2.21,4.83,0.64,10.48-0.87,15.94c-0.76,2.74-2.18,7.84-1.38,9.07c0.81,1.26,5.87,2.06,8.89,2.53
	c5.58,0.88,11.35,1.78,14.81,5.78c3.47,4,3.55,9.85,3.63,15.5c0.04,3.05,0.11,8.16,1.24,9.14c1.12,0.97,6.18,0.32,9.2-0.07
	c5.61-0.72,11.42-1.47,15.88,1.4c4.43,2.86,6.15,8.43,7.81,13.82c0.9,2.93,2.41,7.84,3.79,8.46c1.32,0.6,6.15-1.52,8.75-2.66
	C122.68,296.67,126.85,294.84,130.91,294.84z"/>
<path class="st2" d="M389.39,632.7c-8.05,0-12.36-5.94-19.3-16.43c-7.48-11.32-16.79-25.42-36.01-25.42s-28.52,14.09-36,25.42
	c-6.93,10.49-11.25,16.43-19.3,16.43s-12.36-5.94-19.3-16.43c-7.48-11.32-16.79-25.42-36-25.42c-19.21,0-28.52,14.09-36.01,25.42
	c-3.49,5.28-6.31,9.4-9.28,12.2l0-20.23V337.37c0-85.96,69.93-155.89,155.89-155.89c85.96,0,155.89,69.93,155.89,155.89l0,291.09
	c-2.97-2.8-5.8-6.92-9.29-12.2c-7.48-11.32-16.8-25.42-36.01-25.42c-19.21,0-28.52,14.09-36,25.42
	C401.75,626.76,397.44,632.7,389.39,632.7z"/>
<path d="M334.09,191.49c38.97,0,75.6,15.17,103.15,42.73c27.55,27.55,42.73,64.19,42.73,103.15v260.85
	c-7.71-9.07-18.56-17.39-35.28-17.39c-24.6,0-36.49,18-44.36,29.91c-2.84,4.3-5.53,8.37-7.99,10.6c-1.47,1.34-2.06,1.34-2.96,1.34
	c-0.89,0-1.48,0-2.96-1.34c-2.46-2.23-5.15-6.3-7.99-10.6c-7.87-11.91-19.76-29.91-44.36-29.91c-24.6,0-36.49,18-44.36,29.91
	c-2.84,4.3-5.53,8.37-7.99,10.6c-1.47,1.34-2.06,1.34-2.96,1.34c-0.89,0-1.48,0-2.95-1.34c-2.46-2.23-5.15-6.3-7.99-10.6
	c-7.87-11.91-19.76-29.91-44.36-29.91c-16.72,0-27.57,8.31-35.27,17.38V337.37c0-38.97,15.17-75.6,42.73-103.15
	C258.49,206.67,295.13,191.49,334.09,191.49 M334.09,171.47c-91.63,0-165.91,74.28-165.91,165.91v270.86l-0.01,34.48
	c27.65,0,27.65-41.85,55.3-41.85c27.65,0,27.65,41.85,55.3,41.85c27.65,0,27.65-41.85,55.3-41.85c27.65,0,27.65,41.85,55.3,41.85
	c27.65,0,27.65-41.85,55.3-41.85c27.65,0,27.65,41.85,55.31,41.85l0-34.48V337.37C500,245.75,425.72,171.47,334.09,171.47
	L334.09,171.47z"/>
<path d="M392.95,363.99c-11.77,0-22.2-5.47-25.95-13.6c-0.58-1.26-0.03-2.74,1.23-3.32c1.26-0.58,2.74-0.03,3.32,1.22
	c2.9,6.3,11.71,10.7,21.4,10.7s18.5-4.4,21.4-10.7c0.58-1.26,2.07-1.81,3.32-1.22c1.26,0.58,1.8,2.07,1.23,3.32
	C415.14,358.53,404.72,363.99,392.95,363.99z"/>
<ellipse class="st3" cx="334.07" cy="725.42" rx="138.53" ry="14.58"/>
<path d="M459.6,283.14l-4.38-1.28c-3.71-1.63-24.8-10.09-62.3-10.09c-37.93,0-59.07,8.66-62.41,10.14l-4.21,1.23v10.47h3.73v25.69
	c0,2.87,1.88,5.41,4.63,6.25l21.26,6.49c7.31,2.23,15.21-0.82,19.12-7.39l13.09-22l0.09,0.06c1.17-1.59,3.04-2.55,5.01-2.55
	c1.41,0,2.73,0.46,3.81,1.3l13.79,23.18c3.91,6.57,11.8,9.62,19.12,7.39l21.26-6.49c2.75-0.84,4.63-3.38,4.63-6.25v-25.69h3.79
	V283.14z"/>
<path class="st2" d="M372.27,296.57c-2.25,2.81-4.72,5.4-7.24,7.95c-2.54,2.52-5.14,4.99-7.95,7.24c2.25-2.81,4.72-5.41,7.24-7.95
	C366.87,301.29,369.46,298.82,372.27,296.57z"/>
<path class="st2" d="M357.55,296.57c-2.25,2.81-4.72,5.4-7.24,7.95c-2.54,2.52-5.14,4.99-7.95,7.24c2.25-2.81,4.72-5.41,7.24-7.95
	C352.15,301.29,354.74,298.82,357.55,296.57z"/>
<path class="st2" d="M438.6,296.57c-2.25,2.81-4.72,5.4-7.24,7.95c-2.54,2.52-5.14,4.99-7.95,7.24c2.25-2.81,4.72-5.41,7.24-7.95
	C433.19,301.29,435.79,298.82,438.6,296.57z"/>
<path d="M104.82,409.38c2,7.36,3.93,21.79,1.63,22.42c-2.3,0.62-7.95-12.79-9.95-20.15s-3.63-13.34,0.53-14.47
	S102.82,402.01,104.82,409.38z"/>
<path d="M98.49,399.49c-1.5-5.51-0.59-16.03,3.14-22.9l1.76,0.96c-3.45,6.36-4.34,16.39-2.97,21.42L98.49,399.49z"/>
<path d="M94.99,400.44c-1.37-5.03-7.21-13.24-13.41-16.97l1.03-1.71c6.7,4.03,12.81,12.65,14.31,18.16L94.99,400.44z"/>
<path class="st4" d="M67.42,420.04l28.22-7.68c0,0-19.87-42.88-57.4-34.95c-16.03,4.36,0.98,14.92,2.02,17.06
	C51.05,416.65,51.78,424.3,67.42,420.04z"/>
<path d="M60.32,424.18c-9.47,0-12.83-7.2-18.81-20.03c-1.13-2.43-2.41-5.18-3.86-8.15c-0.27-0.3-0.99-0.95-1.58-1.48
	c-3.48-3.14-8.74-7.87-7.5-13.1c0.77-3.22,3.67-5.47,8.88-6.89l0.17-0.04c16.39-3.46,32.14,1.84,45.53,15.32
	c9.92,9.99,15.01,20.84,15.22,21.3l1.5,3.23l-31.66,8.61C65.16,423.77,62.57,424.18,60.32,424.18z M38.95,380.34
	c-3.33,0.92-4.41,1.98-4.53,2.46c-0.42,1.76,4.17,5.89,5.67,7.24c1.5,1.35,2.4,2.16,2.87,3.12c1.51,3.1,2.83,5.93,4,8.44
	c7.32,15.71,8.64,18.54,19.67,15.54l24.59-6.69C85.84,401.04,67.77,374.31,38.95,380.34z"/>
<path class="st4" d="M89.45,453.63c-13.94,3.79-24.49-22.84-24.49-22.84c-1.48-5.44,1.73-11.04,7.16-12.52l24.19-6.58
	C96.32,411.69,101.34,450.4,89.45,453.63z"/>
<path d="M86.71,457.01c-14.42,0-24.1-24.02-24.54-25.12l-0.11-0.32c-1.91-7.02,2.25-14.29,9.27-16.2l27.52-7.48l0.44,3.42
	c0.9,6.9,4.66,41.49-9.06,45.23h0C89.04,456.85,87.86,457.01,86.71,457.01z M67.82,429.84c2.75,6.82,11.63,23.38,20.84,20.89l0,0
	c5.9-1.6,6.5-20.83,5.07-35.23l-20.82,5.66C69.14,422.19,66.88,426.06,67.82,429.84z"/>
<path class="st4" d="M132.58,402.32L104.36,410c0,0-4.58-47.03,31.79-59.2c16.03-4.36,6.72,13.36,6.9,15.73
	C144.98,391.1,148.22,398.07,132.58,402.32z"/>
<path d="M101.71,413.83l-0.35-3.54c-0.05-0.5-1.16-12.44,2.33-26.07c4.72-18.41,15.61-30.95,31.49-36.27l0.17-0.05
	c5.21-1.42,8.85-0.94,11.14,1.45c3.72,3.87,1.58,10.62,0.17,15.09c-0.24,0.75-0.53,1.68-0.61,2.08c0.26,3.3,0.55,6.32,0.8,8.99
	c1.66,17.44,2.42,25.4-13.5,29.73h0L101.71,413.83z M137.02,353.67c-27.9,9.4-29.95,41.6-29.82,52.44l24.59-6.69
	c11.03-3,10.74-6.11,9.09-23.36c-0.26-2.75-0.56-5.87-0.83-9.3c-0.08-1.06,0.28-2.22,0.89-4.14c0.61-1.93,2.47-7.82,1.22-9.12
	C141.83,353.14,140.35,352.78,137.02,353.67z"/>
<path class="st4" d="M131.52,442.68c13.94-3.79,9.55-32.1,9.55-32.1c-1.48-5.44-7.08-8.64-12.52-7.16L104.36,410
	C104.36,410,119.63,445.92,131.52,442.68z"/>
<path d="M130.03,445.89c-12.99,0-25.87-28.66-28.44-34.71l-1.35-3.17l27.52-7.48c3.4-0.93,6.96-0.47,10.02,1.28
	c3.06,1.75,5.26,4.59,6.18,7.99l0.07,0.33c0.2,1.26,4.62,31.01-11.72,35.46l0,0C131.55,445.79,130.79,445.89,130.03,445.89z
	 M108.52,411.98c6.06,13.14,16.33,29.39,22.21,27.81h0c9.21-2.51,8.48-21.29,7.39-28.57c-0.53-1.79-1.7-3.28-3.33-4.2
	c-1.67-0.95-3.61-1.2-5.46-0.7L108.52,411.98z"/>
<path class="st5" d="M75.08,405.87c0,4.03-7.18,3.37-11.2,3.37s-7.29-3.26-7.29-7.29s3.26-7.29,7.29-7.29S75.08,401.85,75.08,405.87
	z"/>
<path class="st5" d="M120.51,393.5c2.32,3.29,7.81-1.38,11.1-3.7s4.08-6.87,1.76-10.16c-2.32-3.29-6.87-4.08-10.16-1.76
	C119.91,380.21,118.19,390.21,120.51,393.5z"/>
<circle class="st5" cx="82.51" cy="434.9" r="3.24"/>
<circle class="st5" cx="127.19" cy="422.21" r="3.24"/>
<path class="st3" d="M233.05,143.65c-11.87,0-22.38-5.51-26.16-13.72l4.58-2.11c2.93,6.35,11.8,10.78,21.58,10.78
	c9.78,0,18.65-4.43,21.58-10.78l4.58,2.11C255.43,138.14,244.92,143.65,233.05,143.65z"/>
<path class="st3" d="M258.78,103.41c4.81,0,8.94,2.92,10.71,7.09c0.59-2.06,0.92-4.32,0.92-6.7c0-9.47-5.21-17.15-11.64-17.15
	c-6.43,0-11.64,7.68-11.64,17.15c0,2.38,0.33,4.64,0.92,6.7C249.84,106.34,253.97,103.41,258.78,103.41z"/>
<path class="st3" d="M209.78,103.41c4.81,0,8.94,2.92,10.71,7.09c0.59-2.06,0.92-4.32,0.92-6.7c0-9.47-5.21-17.15-11.64-17.15
	c-6.43,0-11.64,7.68-11.64,17.15c0,2.38,0.33,4.64,0.92,6.7C200.84,106.34,204.97,103.41,209.78,103.41z"/>
<circle class="st6" cx="168.18" cy="127.82" r="25.97"/>
</svg>
