<?xml version="1.0" encoding="utf-8"?>
<!-- Generator: Adobe Illustrator 25.3.1, SVG Export Plug-In . SVG Version: 6.00 Build 0)  -->
<svg version="1.1" id="Layer_1" xmlns="http://www.w3.org/2000/svg" xmlns:xlink="http://www.w3.org/1999/xlink" x="0px" y="0px"
	 viewBox="0 0 500 740" style="enable-background:new 0 0 500 740;" xml:space="preserve">
<style type="text/css">
	.st0{fill:#245620;}
	.st1{fill:#E2D6A6;}
	.st2{opacity:0.2;}
	.st3{fill:#FFFFFF;}
</style>
<path class="st0" d="M50.09,527.41c0-36.81,22.24-73.11,49.67-73.11s49.67,36.31,49.67,73.11"/>
<path d="M154.43,527.41h-10.01c0-35.64-21.29-68.1-44.67-68.1s-44.67,32.46-44.67,68.1H45.08c0-36.95,22.46-78.12,54.68-78.12
	S154.43,490.46,154.43,527.41z"/>
<path class="st0" d="M106.14,527.41c0-22.63-22.59-40.98-50.45-40.98S5.25,504.77,5.25,527.41"/>
<path d="M111.15,527.41h-10.01c0-19.84-20.38-35.98-45.44-35.98s-45.44,16.14-45.44,35.98H0.24c0-25.36,24.88-45.99,55.45-45.99
	S111.15,502.05,111.15,527.41z"/>
<path class="st0" d="M225.82,528.68V486.7c-76.39-61.11-90.96-6.32-118.38,17.7S39.7,528.68,39.7,528.68"/>
<path d="M39.73,533.68l-0.06-10.01c0.38,0,38.83-0.57,64.47-23.04c5.06-4.43,9.7-10.02,14.61-15.95
	c10.67-12.87,21.7-26.17,38.97-29.91c19.43-4.22,42.07,4.68,71.23,28.01l1.88,1.5v44.39h-10.01v-39.56
	c-25.36-19.92-45.32-27.95-60.97-24.56c-13.89,3.01-23.36,14.43-33.39,26.52c-4.94,5.96-10.06,12.13-15.72,17.09
	C82.24,533.13,41.45,533.67,39.73,533.68z"/>
<rect y="521.38" class="st0" width="212.28" height="21.69"/>
<circle class="st1" cx="162.77" cy="161.33" r="156.33"/>
<path d="M162.77,322.66c-88.96,0-161.33-72.37-161.33-161.33S73.81,0,162.77,0S324.1,72.37,324.1,161.33
	S251.73,322.66,162.77,322.66z M162.77,10.01c-83.44,0-151.32,67.88-151.32,151.32s67.88,151.32,151.32,151.32
	c83.44,0,151.32-67.88,151.32-151.32S246.21,10.01,162.77,10.01z"/>
<circle class="st2" cx="69.24" cy="156.17" r="23.52"/>
<circle class="st2" cx="145.62" cy="239.83" r="14.06"/>
<circle class="st2" cx="67.16" cy="205.94" r="6.54"/>
<circle class="st2" cx="228.07" cy="70.88" r="5.64"/>
<circle class="st2" cx="129.42" cy="73.89" r="13.12"/>
<path class="st2" d="M206.83,187.03c-12.85,0-24.23-5.97-28.32-14.85l4.96-2.29c3.17,6.87,12.78,11.67,23.36,11.67
	c10.59,0,20.19-4.8,23.36-11.67l4.96,2.29C231.06,181.06,219.68,187.03,206.83,187.03z"/>
<path class="st2" d="M234.68,143.47c5.21,0,9.68,3.16,11.6,7.67c0.64-2.23,1-4.68,1-7.26c0-10.25-5.64-18.57-12.6-18.57
	c-6.96,0-12.6,8.31-12.6,18.57c0,2.58,0.36,5.03,1,7.26C225,146.63,229.47,143.47,234.68,143.47z"/>
<path class="st2" d="M181.64,143.47c5.21,0,9.68,3.16,11.6,7.67c0.64-2.23,1-4.68,1-7.26c0-10.25-5.64-18.57-12.6-18.57
	c-6.96,0-12.6,8.31-12.6,18.57c0,2.58,0.36,5.03,1,7.26C171.96,146.63,176.43,143.47,181.64,143.47z"/>
<path class="st1" d="M119.39,394.08l0.04-0.14c-4.33-6.68-3.36-16.4,2.72-23.13c1.4-1.55,2.97-2.82,4.63-3.81l0.15-0.54
	c-3.61-6.12-2.63-14.75,2.82-20.78c0.82-0.9,1.69-1.7,2.62-2.4c-22.94-0.03-40.66,14.51-40.66,14.51l-12.05,29.18
	c-1.27-1.39-2.86-2.36-4.57-2.88c0.33-1.2,0.17-2.8-0.55-4.37c-1.21-2.63-7.21-7.86-7.21-7.86s0.05,7.97,1.26,10.59
	c0.25,0.55,0.56,1.05,0.89,1.49c-1.2,0.31-2.36,0.82-3.43,1.58c-1.09,0.77-1.98,1.72-2.67,2.78c-0.29-0.42-0.64-0.84-1.04-1.23
	c-2.08-2.01-9.58-4.7-9.58-4.7s2.94,7.4,5.02,9.41c1.23,1.19,2.67,1.87,3.91,1.96c-0.03,1.43,0.22,2.88,0.8,4.24l-29.77,1.59
	l-10.65,12.4L119.39,394.08z"/>
<path class="st1" d="M22.04,413.46c-0.53,0-1.03-0.28-1.3-0.75c-0.32-0.55-0.25-1.24,0.16-1.73l10.65-12.39
	c0.27-0.31,0.65-0.5,1.06-0.52l27.83-1.48c-0.12-0.53-0.2-1.07-0.24-1.61c-1.22-0.37-2.44-1.11-3.48-2.12
	c-2.25-2.17-5.06-9.15-5.37-9.94c-0.22-0.55-0.09-1.17,0.32-1.6c0.41-0.42,1.03-0.57,1.59-0.37c0.79,0.28,7.74,2.82,10.05,4.98
	c0.56-0.61,1.18-1.16,1.86-1.64c0.65-0.46,1.34-0.85,2.07-1.17c-0.01-0.02-0.02-0.03-0.02-0.05c-1.3-2.84-1.39-10.36-1.39-11.21
	c0-0.59,0.34-1.13,0.88-1.37c0.54-0.25,1.17-0.16,1.61,0.23c0.64,0.56,6.29,5.53,7.59,8.37c0.61,1.33,0.9,2.73,0.84,4.01
	c0.83,0.36,1.61,0.81,2.33,1.34l11.24-27.22c0.09-0.23,0.24-0.43,0.44-0.59c0.74-0.61,18.37-14.85,41.55-14.85
	c0.69,0,1.28,0.39,1.49,1.02c0.2,0.61,0,1.29-0.52,1.67c-0.86,0.65-1.67,1.4-2.41,2.21c-4.93,5.46-6.02,13.28-2.64,19.01
	c0.21,0.35,0.26,0.77,0.16,1.16l-0.15,0.54c-0.1,0.37-0.35,0.7-0.68,0.9c-1.58,0.94-3.02,2.13-4.28,3.53
	c-5.53,6.12-6.61,15.08-2.57,21.31c0.23,0.36,0.3,0.8,0.19,1.21l-0.04,0.14c-0.15,0.56-0.61,0.98-1.18,1.08l-97.35,17.88
	C22.22,413.45,22.13,413.46,22.04,413.46z M33.41,401.03l-7.46,8.68l91.2-16.75c-3.52-7.19-2.04-16.61,3.88-23.16
	c1.22-1.35,2.59-2.54,4.08-3.53c-3.36-6.65-2.06-15.23,3.29-21.35c-18.69,1.37-33.27,12.1-35.47,13.8l-11.9,28.81
	c-0.2,0.48-0.62,0.82-1.13,0.91c-0.5,0.09-1.02-0.09-1.37-0.46c-1.06-1.15-2.41-2-3.91-2.46c-0.78-0.24-1.22-1.05-1.01-1.83
	c0.25-0.91,0.08-2.16-0.46-3.34c-0.52-1.13-2.38-3.14-4.22-4.94c0.16,2.57,0.48,5.29,0.99,6.42c0.2,0.43,0.44,0.84,0.72,1.22
	c0.3,0.4,0.38,0.93,0.22,1.4c-0.17,0.47-0.56,0.83-1.05,0.96c-1.07,0.27-2.06,0.73-2.94,1.35c-0.9,0.64-1.67,1.44-2.28,2.37
	c-0.27,0.42-0.74,0.67-1.24,0.68c-0.5,0.01-0.97-0.24-1.25-0.65c-0.24-0.35-0.53-0.69-0.85-1c-0.89-0.86-3.35-2.06-5.72-3.07
	c1.08,2.33,2.36,4.76,3.26,5.62c0.93,0.89,2.04,1.47,2.98,1.55c0.8,0.06,1.4,0.74,1.38,1.53c-0.03,1.26,0.2,2.48,0.68,3.63
	c0.19,0.45,0.15,0.97-0.11,1.38c-0.26,0.41-0.7,0.68-1.19,0.7L33.41,401.03z M119.39,394.08L119.39,394.08L119.39,394.08z"/>
<path d="M91.69,357.78l-12.05,29.18c-1.27-1.39-2.86-2.36-4.57-2.88c0.33-1.2,0.17-2.8-0.55-4.37c-1.21-2.63-7.21-7.86-7.21-7.86
	s0.05,7.97,1.26,10.59c0.25,0.55,0.56,1.05,0.89,1.49c-1.2,0.31-2.36,0.82-3.43,1.58c-1.09,0.77-1.98,1.72-2.67,2.78
	c-0.29-0.42-0.64-0.84-1.04-1.23c-2.08-2.01-9.58-4.7-9.58-4.7s2.94,7.4,5.02,9.41c1.23,1.19,2.67,1.87,3.91,1.96
	c-0.03,1.43,0.22,2.88,0.8,4.24l-29.77,1.59c0,0-19.6,11.89-27.19,33.54c0.96-0.64,2.01-1.2,3.13-1.67
	c7.49-3.14,15.96-1.2,20.54,4.24l0.56,0.04c1.48-1.24,3.2-2.29,5.13-3.1c8.37-3.5,17.86-1.18,22.72,5.11l0.14,0.01
	c2.48-5.26,21.7-15.35,38.46,0.79l-2.99-16.06l14.15,8.15c-9.66-21.17,6.24-35.96,12.03-36.54l0.04-0.14
	c-4.33-6.68-3.36-16.4,2.72-23.13c1.4-1.55,2.97-2.82,4.63-3.81l0.15-0.54c-3.61-6.12-2.63-14.75,2.82-20.78
	c0.82-0.9,1.69-1.7,2.62-2.4C109.41,343.24,91.69,357.78,91.69,357.78z"/>
<ellipse class="st2" cx="332.45" cy="725.42" rx="138.53" ry="14.58"/>
<path class="st3" d="M389.39,632.7c-8.05,0-12.36-5.94-19.3-16.43c-7.48-11.33-16.79-25.42-36.01-25.42
	c-19.21,0-28.52,14.09-36,25.42c-6.93,10.5-11.25,16.43-19.3,16.43s-12.36-5.94-19.3-16.43c-7.48-11.33-16.79-25.42-36-25.42
	s-28.52,14.09-36,25.42c-3.49,5.28-6.31,9.4-9.28,12.2l0-20.23V337.37c0-85.96,69.93-155.89,155.89-155.89
	c85.96,0,155.89,69.93,155.89,155.89l0,291.09c-2.97-2.8-5.8-6.92-9.29-12.21c-7.48-11.32-16.8-25.42-36.01-25.42
	c-19.21,0-28.52,14.09-36,25.42C401.75,626.76,397.44,632.7,389.39,632.7z"/>
<path d="M334.09,191.49c38.97,0,75.6,15.17,103.15,42.73c27.55,27.55,42.73,64.19,42.73,103.15v260.85
	c-7.71-9.07-18.56-17.39-35.28-17.39c-24.6,0-36.49,18-44.36,29.91c-2.84,4.3-5.53,8.37-7.99,10.6c-1.47,1.34-2.06,1.34-2.96,1.34
	c-0.89,0-1.48,0-2.96-1.34c-2.46-2.23-5.15-6.3-7.99-10.6c-7.87-11.91-19.76-29.91-44.36-29.91c-24.6,0-36.49,18-44.36,29.91
	c-2.84,4.3-5.53,8.37-7.99,10.6c-1.47,1.34-2.06,1.34-2.96,1.34c-0.89,0-1.48,0-2.95-1.34c-2.46-2.23-5.15-6.3-7.99-10.6
	c-7.87-11.91-19.76-29.91-44.36-29.91c-16.72,0-27.57,8.31-35.27,17.38V337.37c0-38.97,15.17-75.6,42.73-103.15
	C258.49,206.67,295.13,191.49,334.09,191.49 M334.09,171.47c-91.63,0-165.91,74.28-165.91,165.91v270.86l-0.01,34.48
	c27.65,0,27.65-41.85,55.3-41.85c27.65,0,27.65,41.85,55.3,41.85c27.65,0,27.65-41.85,55.3-41.85c27.65,0,27.65,41.85,55.3,41.85
	c27.65,0,27.65-41.85,55.3-41.85c27.65,0,27.65,41.85,55.31,41.85l0-34.48V337.37C500,245.75,425.72,171.47,334.09,171.47
	L334.09,171.47z"/>
<path d="M392.95,363.99c-11.77,0-22.2-5.47-25.95-13.6c-0.58-1.26-0.03-2.74,1.23-3.32c1.26-0.58,2.74-0.03,3.32,1.22
	c2.9,6.3,11.71,10.7,21.4,10.7s18.5-4.4,21.4-10.7c0.58-1.26,2.07-1.8,3.32-1.22c1.26,0.58,1.8,2.07,1.23,3.32
	C415.14,358.53,404.72,363.99,392.95,363.99z"/>
<ellipse cx="367.15" cy="308.03" rx="12.54" ry="18.01"/>
<path d="M418.75,290.02c-6.92,0-12.54,8.08-12.54,18.01s5.63,18.01,12.54,18.01c6.92,0,12.54-8.08,12.54-18.01
	S425.66,290.02,418.75,290.02z"/>
<path class="st3" d="M361.83,301.89c-0.1-0.88,0.08-1.72,0.39-2.51c0.32-0.78,0.81-1.52,1.45-2.12c0.63-0.6,1.42-1.08,2.29-1.31
	c0.86-0.22,1.81-0.21,2.59,0.21c-0.78,0.42-1.39,0.8-1.95,1.22c-0.56,0.41-1.06,0.85-1.56,1.32c-0.5,0.47-0.99,0.97-1.5,1.51
	C363.02,300.75,362.5,301.32,361.83,301.89z"/>
<path class="st3" d="M412.55,301.89c-0.1-0.88,0.08-1.72,0.39-2.51c0.32-0.78,0.81-1.52,1.45-2.12c0.63-0.6,1.42-1.08,2.29-1.31
	c0.86-0.22,1.81-0.21,2.59,0.21c-0.78,0.42-1.39,0.8-1.95,1.22c-0.56,0.41-1.06,0.85-1.56,1.32c-0.5,0.47-0.99,0.97-1.5,1.51
	C413.74,300.75,413.22,301.32,412.55,301.89z"/>
</svg>
