<?xml version="1.0" encoding="utf-8"?>
<!-- Generator: Adobe Illustrator 25.3.1, SVG Export Plug-In . SVG Version: 6.00 Build 0)  -->
<svg version="1.1" id="Layer_1" xmlns="http://www.w3.org/2000/svg" xmlns:xlink="http://www.w3.org/1999/xlink" x="0px" y="0px"
	 viewBox="0 0 500 740" style="enable-background:new 0 0 500 740;" xml:space="preserve">
<style type="text/css">
	.st0{fill:#DDDDCE;}
	.st1{opacity:0.2;}
	.st2{fill:#245620;}
	.st3{fill:#FFFFFF;}
</style>
<path class="st0" d="M399.37,63.28c-5.49-20.06-23.84-34.81-45.64-34.81c-21.8,0-40.15,14.75-45.64,34.81
	c-20.3,1.7-36.25,18.7-36.25,39.44v0c0,21.87,17.73,39.59,39.59,39.59h84.6c21.87,0,39.59-17.73,39.59-39.59v0
	C435.62,81.98,419.67,64.97,399.37,63.28z"/>
<path d="M396.03,147.31h-84.6c-24.59,0-44.59-20-44.59-44.59c0-21.84,16.18-40.54,37.43-44c7.22-20.91,27.09-35.25,49.46-35.25
	c22.37,0,42.25,14.33,49.46,35.25c21.25,3.46,37.43,22.16,37.43,44C440.62,127.3,420.62,147.31,396.03,147.31z M353.73,33.47
	c-19.02,0-35.8,12.8-40.82,31.13c-0.55,2.02-2.31,3.49-4.41,3.66c-17.76,1.49-31.67,16.62-31.67,34.46
	c0,19.07,15.52,34.59,34.59,34.59h84.6c19.07,0,34.59-15.52,34.59-34.59c0-17.84-13.91-32.97-31.67-34.46
	c-2.09-0.17-3.85-1.64-4.41-3.66C389.53,46.27,372.75,33.47,353.73,33.47z"/>
<path class="st0" d="M307.43,91.06l-14.18-1.93c-4.57-19.68-20.86-35.44-42.07-38.32c-8.61-1.17-17.01-0.07-24.59,2.82
	c-9.69-24.98-32.29-44.08-60.72-47.94c-41.64-5.65-79.97,23.51-85.63,65.15c-0.47,3.47-0.68,6.91-0.68,10.31
	c-37.31,5-68.21,34.35-73.53,73.46v0c-6.37,46.93,26.5,90.14,73.43,96.51l105.49,14.33l0,0l97,13.17
	c46.93,6.37,90.68-30.45,97.71-82.25l0,0C386.7,144.59,354.35,97.43,307.43,91.06z"/>
<path d="M292.61,284.36c-3.77,0-7.55-0.25-11.33-0.77L78.8,256.1c-49.59-6.73-84.45-52.55-77.71-102.14
	c5.29-38.94,35.26-70.07,73.59-77.08c0.11-2.28,0.32-4.52,0.62-6.7c2.91-21.46,14.01-40.5,31.25-53.62
	c17.24-13.11,38.55-18.73,60.01-15.82c27.65,3.76,51.34,21.48,62.86,46.69c7.26-2.05,14.93-2.6,22.46-1.58
	c21.37,2.9,39.19,18.29,45.36,38.76l10.88,1.48c24.11,3.27,45.35,16.68,59.8,37.76c14.35,20.92,20.28,46.92,16.71,73.2
	c-3.57,26.28-16.22,49.76-35.63,66.09C332.51,277.03,312.83,284.36,292.61,284.36z M155.48,10c-15.44,0-30.39,5.01-42.89,14.53
	c-15.11,11.5-24.84,28.19-27.39,47c-0.42,3.09-0.63,6.34-0.63,9.64c0,2.5-1.85,4.62-4.34,4.96c-35.89,4.81-64.36,33.26-69.24,69.18
	C5,199.43,36.02,240.2,80.14,246.19l202.48,27.5c21.28,2.89,42.56-3.57,59.92-18.18c17.5-14.73,28.92-35.97,32.16-59.79
	c3.23-23.82-2.11-47.33-15.05-66.2c-12.83-18.72-31.62-30.61-52.9-33.5l-14.18-1.93c-2.06-0.28-3.73-1.8-4.2-3.82
	c-4.21-18.13-19.43-31.99-37.87-34.49c-7.48-1.02-15.13-0.14-22.13,2.54c-2.57,0.98-5.45-0.3-6.45-2.86
	c-9.37-24.15-31.11-41.31-56.73-44.79C161.95,10.22,158.7,10,155.48,10z"/>
<path class="st1" d="M155.7,118.49c-11.85,0-22.35-5.51-26.13-13.7l4.58-2.11c2.93,6.34,11.79,10.77,21.55,10.77
	c9.77,0,18.63-4.43,21.55-10.77l4.58,2.11C178.05,112.99,167.55,118.49,155.7,118.49z"/>
<path class="st1" d="M181.39,78.31c4.81,0,8.93,2.92,10.7,7.08c0.59-2.06,0.92-4.32,0.92-6.7c0-9.46-5.2-17.13-11.62-17.13
	c-6.42,0-11.62,7.67-11.62,17.13c0,2.38,0.33,4.64,0.92,6.7C172.46,81.23,176.58,78.31,181.39,78.31z"/>
<path class="st1" d="M132.45,78.31c4.81,0,8.93,2.92,10.7,7.08c0.59-2.06,0.92-4.32,0.92-6.7c0-9.46-5.2-17.13-11.62-17.13
	c-6.42,0-11.62,7.67-11.62,17.13c0,2.38,0.33,4.64,0.92,6.7C123.52,81.23,127.64,78.31,132.45,78.31z"/>
<path class="st0" d="M189.03,250.96l-6.36,0.07c-3.29-8.36-11.47-14.25-20.99-14.14c-3.87,0.04-7.49,1.07-10.64,2.83
	c-5.88-10.36-17.06-17.31-29.82-17.17c-18.69,0.21-33.67,15.52-33.47,34.21c0.02,1.56,0.15,3.08,0.37,4.58
	c-16.1,4.62-27.8,19.53-27.6,37.08l0,0c0.23,21.06,17.49,37.95,38.56,37.72l47.35-0.52l0,0l43.54-0.48
	c21.06-0.23,37.93-19.27,37.68-42.52l0,0C227.38,269.39,210.1,250.73,189.03,250.96z"/>
<path d="M98.65,341.16c-23.57,0-42.87-19.04-43.13-42.67c-0.2-17.96,10.83-34.09,27.26-40.6c-0.01-0.36-0.02-0.71-0.03-1.07
	c-0.24-21.42,17-39.03,38.41-39.26c12.59-0.18,24.38,5.85,31.74,15.86c2.79-0.98,5.74-1.5,8.72-1.53
	c10.08-0.16,19.39,5.44,24.19,14.11l3.17-0.03c11.61-0.17,22.57,4.71,30.83,13.64c8.14,8.78,12.69,20.5,12.83,32.99
	c0.28,25.97-18.84,47.31-42.62,47.57l-90.89,1C98.97,341.16,98.8,341.16,98.65,341.16z M121.59,227.56c-0.11,0-0.21,0-0.32,0
	c-7.7,0.08-14.91,3.16-20.3,8.67c-5.39,5.51-8.31,12.78-8.22,20.48c0.01,1.26,0.12,2.58,0.32,3.91c0.36,2.48-1.16,4.84-3.57,5.53
	c-14.28,4.1-24.15,17.35-23.98,32.22c0.2,18.15,15.03,32.78,33.14,32.78c0.12,0,0.25,0,0.37,0l90.89-1
	c18.27-0.2,32.96-17.01,32.73-37.46c-0.11-10-3.72-19.34-10.17-26.3c-6.32-6.82-14.59-10.51-23.38-10.43l0,0l-6.36,0.07
	c-0.02,0-0.04,0-0.06,0c-2.05,0-3.9-1.26-4.65-3.17c-2.61-6.64-9.14-11.02-16.28-10.97c-2.89,0.03-5.74,0.79-8.25,2.2
	c-2.4,1.35-5.44,0.5-6.79-1.89C141.55,233.14,131.96,227.56,121.59,227.56z"/>
<path class="st2" d="M50.04,528.53c0-36.77,22.22-73.05,49.63-73.05s49.63,36.27,49.63,73.05"/>
<path d="M154.3,528.53h-10c0-35.61-21.27-68.04-44.62-68.04s-44.63,32.43-44.63,68.04h-10c0-36.92,22.44-78.05,54.63-78.05
	C131.86,450.48,154.3,491.62,154.3,528.53z"/>
<path class="st2" d="M106.05,528.53c0-22.61-22.57-40.95-50.4-40.95s-50.4,18.33-50.4,40.95"/>
<path d="M111.05,528.53h-10c0-19.82-20.37-35.95-45.4-35.95s-45.4,16.13-45.4,35.95h-10c0-25.34,24.85-45.95,55.4-45.95
	S111.05,503.19,111.05,528.53z"/>
<path class="st2" d="M225.61,529.8v-41.94c-76.32-61.06-90.88-6.31-118.28,17.69c-27.4,24-67.67,24.26-67.67,24.26"/>
<path d="M39.7,534.8l-0.06-10c0.38,0,38.79-0.57,64.41-23.02c5.05-4.43,9.69-10.02,14.6-15.93c10.66-12.85,21.68-26.14,38.94-29.89
	c19.42-4.21,42.03,4.68,71.16,27.99l1.88,1.5v44.35h-10v-39.53c-25.34-19.9-45.28-27.93-60.92-24.54
	c-13.88,3.01-23.34,14.42-33.36,26.5c-4.94,5.96-10.05,12.12-15.7,17.07C82.16,534.25,41.42,534.79,39.7,534.8z"/>
<rect y="522.51" class="st2" width="212.09" height="21.67"/>
<ellipse class="st1" cx="332.59" cy="725.43" rx="138.41" ry="14.57"/>
<path class="st3" d="M389.49,632.79c-8.04,0-12.35-5.93-19.28-16.42c-7.48-11.32-16.78-25.4-35.97-25.4
	c-19.19,0-28.5,14.08-35.97,25.4c-6.93,10.49-11.24,16.42-19.28,16.42c-8.04,0-12.35-5.93-19.28-16.42
	c-7.48-11.32-16.78-25.4-35.97-25.4c-19.19,0-28.5,14.08-35.97,25.4c-3.48,5.27-6.31,9.4-9.28,12.19l0-20.21V337.73
	c0-85.88,69.87-155.75,155.75-155.75s155.75,69.87,155.75,155.75l0,290.84c-2.97-2.79-5.79-6.92-9.28-12.19
	c-7.48-11.31-16.78-25.4-35.98-25.4c-19.19,0-28.5,14.08-35.97,25.4C401.84,626.86,397.53,632.79,389.49,632.79z"/>
<path d="M334.24,191.98c38.93,0,75.53,15.16,103.06,42.69c27.53,27.53,42.69,64.13,42.69,103.06v260.62
	c-7.7-9.06-18.54-17.38-35.25-17.38c-24.57,0-36.46,17.98-44.32,29.89c-2.84,4.3-5.52,8.36-7.98,10.59
	c-1.47,1.34-2.06,1.34-2.95,1.34c-0.89,0-1.48,0-2.95-1.34c-2.46-2.23-5.14-6.29-7.98-10.59c-7.86-11.9-19.75-29.89-44.32-29.89
	c-24.57,0-36.46,17.98-44.32,29.89c-2.84,4.3-5.52,8.36-7.98,10.59c-1.47,1.34-2.06,1.34-2.95,1.34c-0.89,0-1.48,0-2.95-1.34
	c-2.46-2.23-5.14-6.29-7.98-10.59c-7.86-11.9-19.74-29.89-44.32-29.89c-16.7,0-27.54,8.31-35.24,17.37V337.73
	c0-38.93,15.16-75.53,42.69-103.06C258.71,207.14,295.31,191.98,334.24,191.98 M334.24,171.97c-91.55,0-165.76,74.21-165.76,165.76
	v270.62l-0.01,34.45c27.63,0,27.63-41.81,55.25-41.81c27.63,0,27.63,41.81,55.25,41.81c27.63,0,27.63-41.81,55.25-41.81
	c27.63,0,27.63,41.81,55.25,41.81c27.63,0,27.63-41.81,55.25-41.81c27.63,0,27.63,41.81,55.26,41.81l0-34.45V337.73
	C500,246.19,425.78,171.97,334.24,171.97L334.24,171.97z"/>
<path d="M393.04,364.33c-11.76,0-22.18-5.46-25.93-13.59c-0.58-1.25-0.03-2.74,1.22-3.32c1.26-0.58,2.74-0.03,3.32,1.22
	c2.9,6.29,11.7,10.69,21.38,10.69s18.48-4.39,21.39-10.69c0.58-1.25,2.06-1.8,3.32-1.22c1.25,0.58,1.8,2.06,1.22,3.32
	C415.22,358.87,404.8,364.33,393.04,364.33z"/>
<ellipse cx="366.82" cy="309.35" rx="12.53" ry="17.99"/>
<path d="M418.38,291.36c-6.91,0-12.53,8.07-12.53,17.99c0,9.92,5.62,17.99,12.53,17.99c6.91,0,12.53-8.07,12.53-17.99
	C430.91,299.43,425.29,291.36,418.38,291.36z"/>
<path class="st3" d="M361.95,302.28c-0.1-0.88,0.08-1.72,0.39-2.51c0.32-0.78,0.81-1.51,1.45-2.12c0.63-0.6,1.42-1.08,2.29-1.31
	c0.86-0.22,1.81-0.21,2.59,0.21c-0.78,0.42-1.39,0.8-1.95,1.22c-0.56,0.41-1.06,0.85-1.56,1.32c-0.5,0.47-0.99,0.97-1.5,1.51
	C363.14,301.14,362.63,301.71,361.95,302.28z"/>
<path class="st3" d="M412.62,302.28c-0.1-0.88,0.08-1.72,0.39-2.51c0.32-0.78,0.81-1.51,1.45-2.12c0.63-0.6,1.42-1.08,2.29-1.31
	c0.86-0.22,1.81-0.21,2.59,0.21c-0.78,0.42-1.39,0.8-1.95,1.22c-0.56,0.41-1.06,0.85-1.56,1.32c-0.5,0.47-0.99,0.97-1.5,1.51
	C413.82,301.14,413.3,301.71,412.62,302.28z"/>
</svg>
