<?xml version="1.0" encoding="utf-8"?>
<!-- Generator: Adobe Illustrator 25.3.1, SVG Export Plug-In . SVG Version: 6.00 Build 0)  -->
<svg version="1.1" id="Layer_1" xmlns="http://www.w3.org/2000/svg" xmlns:xlink="http://www.w3.org/1999/xlink" x="0px" y="0px"
	 viewBox="0 0 500 740" style="enable-background:new 0 0 500 740;" xml:space="preserve">
<style type="text/css">
	.st0{fill:#245620;}
	.st1{fill:#E2D6A6;}
	.st2{opacity:0.2;}
	.st3{fill:#AAAAA3;}
	.st4{fill:#FFFFFF;}
</style>
<path class="st0" d="M50.3,528.45c0-36.79,22.23-73.08,49.65-73.08s49.65,36.29,49.65,73.08"/>
<path d="M154.6,528.44h-10.01c0-35.63-21.28-68.07-44.64-68.07s-44.64,32.45-44.64,68.07H45.3c0-36.93,22.44-78.08,54.65-78.08
	S154.6,491.51,154.6,528.44z"/>
<path class="st0" d="M106.33,528.45c0-22.62-22.57-40.96-50.42-40.96S5.49,505.82,5.49,528.45"/>
<path d="M111.33,528.44h-10.01c0-19.83-20.37-35.96-45.42-35.96s-45.42,16.13-45.42,35.96H0.49c0-25.35,24.86-45.97,55.42-45.97
	S111.33,503.1,111.33,528.44z"/>
<path class="st0" d="M225.95,529.71v-41.96c-76.35-61.08-90.92-6.32-118.33,17.69c-27.41,24.01-67.7,24.27-67.7,24.27"/>
<path d="M39.95,534.72l-0.06-10.01c0.38,0,38.81-0.57,64.43-23.03c5.06-4.43,9.69-10.02,14.6-15.94
	c10.66-12.86,21.69-26.15,38.95-29.9c19.42-4.22,42.05,4.68,71.19,28l1.88,1.5v44.37h-10.01v-39.54
	c-25.35-19.91-45.3-27.94-60.94-24.55c-13.89,3.01-23.35,14.43-33.37,26.51c-4.94,5.96-10.05,12.12-15.71,17.08
	C82.44,534.16,41.67,534.71,39.95,534.72z"/>
<rect x="0.24" y="522.42" class="st0" width="212.18" height="21.68"/>
<circle class="st1" cx="284.99" cy="96.07" r="75.87"/>
<path d="M284.87,176.99c-13.55,0-26.96-3.44-39.13-10.2l0,0c-18.89-10.48-32.57-27.7-38.51-48.47c-5.94-20.77-3.44-42.61,7.04-61.5
	c21.64-38.99,70.97-53.11,109.97-31.47C363.23,47,377.35,96.33,355.7,135.32c-10.48,18.89-27.7,32.57-48.47,38.51
	C299.86,175.94,292.34,176.99,284.87,176.99z M285.11,25.21c-24.93,0-49.15,13.16-62.09,36.47c-9.19,16.55-11.38,35.69-6.17,53.89
	c5.21,18.2,17.19,33.28,33.74,42.47l0,0c16.55,9.19,35.69,11.38,53.89,6.17c18.2-5.21,33.28-17.19,42.47-33.74
	s11.38-35.69,6.17-53.89c-5.21-18.2-17.19-33.28-33.74-42.47C308.51,28.08,296.73,25.21,285.11,25.21z"/>
<circle class="st2" cx="309.21" cy="60.6" r="11.41"/>
<circle class="st2" cx="288.58" cy="44.99" r="3.17"/>
<path class="st3" d="M282.91,68.77l-13.72,0.02c-6.91-18.44-24.44-31.52-44.96-31.49c-8.33,0.02-16.16,2.19-22.98,6.01
	C188.78,20.43,164.82,4.95,137.32,5c-40.28,0.07-72.87,33.42-72.8,74.47c0.01,3.42,0.26,6.78,0.7,10.07
	C30.45,99.36,4.94,131.89,5,170.46l0,0c0.08,46.28,36.95,83.73,82.35,83.64l102.04-0.18l0,0l93.83-0.17
	c45.4-0.08,82.13-41.56,82.04-92.64l0,0C365.18,110.03,328.3,68.69,282.91,68.77z"/>
<path d="M87.2,259.1c-23.25,0-45.12-9.2-61.58-25.93C9.14,216.43,0.04,194.16,0,170.46c-0.07-38.4,24.32-72.53,59.8-84.47
	c-0.19-2.2-0.28-4.38-0.28-6.51C59.44,35.73,94.34,0.08,137.31,0c0.05,0,0.09,0,0.14,0c26.73,0,51.49,13.96,65.75,36.76
	c6.6-2.91,13.78-4.44,21.02-4.45c0.03,0,0.06,0,0.09,0c20.69,0,39.64,12.51,48.21,31.48l10.37-0.02c0.05,0,0.1,0,0.14,0
	c23.35,0,45.28,10.17,61.77,28.66c16.37,18.36,25.41,42.75,25.46,68.68c0.09,53.76-38.95,97.56-87.04,97.65L87.36,259.1
	C87.31,259.1,87.25,259.1,87.2,259.1z M137.45,10.01c-0.04,0-0.08,0-0.12,0c-37.45,0.07-67.87,31.23-67.81,69.46
	c0.01,3.05,0.23,6.22,0.66,9.41c0.33,2.47-1.2,4.81-3.6,5.48c-33.37,9.42-56.64,40.7-56.58,76.08c0.04,21.06,8.11,40.85,22.74,55.71
	c14.57,14.8,33.9,22.94,54.45,22.94c0.05,0,0.09,0,0.14,0l195.88-0.35c42.57-0.08,77.13-39.39,77.04-87.62
	c-0.04-23.48-8.18-45.51-22.92-62.03c-14.56-16.32-33.84-25.31-54.3-25.31c-0.04,0-0.08,0-0.13,0l0,0L269.2,73.8c0,0-0.01,0-0.01,0
	c-2.09,0-3.95-1.29-4.69-3.25c-6.35-16.92-22.52-28.29-40.26-28.24c-7.18,0.01-14.29,1.87-20.55,5.37
	c-1.17,0.65-2.55,0.81-3.83,0.44c-1.28-0.37-2.37-1.24-3.01-2.41C184.86,23.68,162.1,10.01,137.45,10.01z"/>
<path class="st3" d="M351.67,276.73c12.44,0,22.52-10.08,22.52-22.52c0-12.44-10.08-22.52-22.52-22.52h0
	c-31.52,0-31.52-24.02-63.05-24.02s-31.52,24.02-63.05,24.02c-31.52,0-31.52-24.02-63.05-24.02c-31.52,0-31.52,24.02-63.04,24.02
	c-31.52,0-31.52-24.02-63.04-24.02c-12.44,0-22.52,10.08-22.52,22.52s10.08,22.52,22.52,22.52c31.52,0,31.52,24.02,63.05,24.02
	s31.52-24.02,63.05-24.02c31.52,0,31.52,24.02,63.05,24.02c31.52,0,31.52-24.02,63.04-24.02
	C320.15,252.71,320.15,276.73,351.67,276.73z"/>
<path d="M351.67,281.73c-17.45,0-26.54-6.92-34.55-13.03c-7.74-5.89-14.42-10.99-28.49-10.99c-14.07,0-20.75,5.09-28.49,10.99
	c-8.02,6.11-17.1,13.03-34.56,13.03s-26.54-6.92-34.56-13.03c-7.74-5.89-14.42-10.99-28.49-10.99c-14.07,0-20.76,5.09-28.49,10.99
	c-8.02,6.11-17.11,13.03-34.56,13.03s-26.54-6.92-34.56-13.03c-7.74-5.89-14.42-10.99-28.49-10.99c-15.17,0-27.52-12.35-27.52-27.52
	s12.35-27.52,27.52-27.52c17.45,0,26.54,6.92,34.55,13.03c7.74,5.89,14.42,10.99,28.49,10.99c14.07,0,20.75-5.09,28.49-10.99
	c8.02-6.11,17.1-13.03,34.55-13.03s26.54,6.92,34.56,13.03c7.74,5.89,14.42,10.99,28.49,10.99s20.76-5.09,28.49-10.99
	c8.02-6.11,17.11-13.03,34.56-13.03c17.45,0,26.54,6.92,34.56,13.03c7.74,5.89,14.42,10.99,28.49,10.99
	c15.17,0,27.52,12.35,27.52,27.52S366.85,281.73,351.67,281.73z M288.63,247.71c17.45,0,26.54,6.92,34.55,13.03
	c7.74,5.89,14.42,10.99,28.49,10.99c9.66,0,17.51-7.86,17.51-17.51c0-9.66-7.86-17.51-17.51-17.51c-17.45,0-26.54-6.92-34.56-13.03
	c-7.74-5.89-14.42-10.99-28.49-10.99c-14.07,0-20.76,5.09-28.49,10.99c-8.02,6.11-17.11,13.03-34.56,13.03s-26.54-6.92-34.56-13.03
	c-7.74-5.89-14.42-10.99-28.49-10.99c-14.07,0-20.75,5.09-28.49,10.99c-8.02,6.11-17.1,13.03-34.55,13.03
	c-17.45,0-26.54-6.92-34.55-13.03c-7.74-5.89-14.42-10.99-28.49-10.99c-9.66,0-17.51,7.86-17.51,17.51s7.86,17.51,17.51,17.51
	c17.45,0,26.54,6.92,34.56,13.03c7.74,5.89,14.42,10.99,28.49,10.99c14.07,0,20.76-5.09,28.49-10.99
	c8.02-6.11,17.11-13.03,34.56-13.03c17.45,0,26.54,6.92,34.56,13.03c7.74,5.89,14.42,10.99,28.49,10.99
	c14.07,0,20.75-5.09,28.49-10.99C262.1,254.63,271.18,247.71,288.63,247.71z"/>
<path class="st3" d="M351.67,321.76c12.44,0,22.52-10.08,22.52-22.52s-10.08-22.52-22.52-22.52h0c-31.52,0-31.52-24.02-63.05-24.02
	s-31.52,24.02-63.05,24.02c-31.52,0-31.52-24.02-63.05-24.02c-31.52,0-31.52,24.02-63.04,24.02c-31.52,0-31.52-24.02-63.04-24.02
	c-12.44,0-22.52,10.08-22.52,22.52s10.08,22.52,22.52,22.52c31.52,0,31.52,24.02,63.05,24.02s31.52-24.02,63.05-24.02
	c31.52,0,31.52,24.02,63.05,24.02c31.52,0,31.52-24.02,63.04-24.02C320.15,297.75,320.15,321.76,351.67,321.76z"/>
<path d="M351.67,326.77c-17.45,0-26.54-6.92-34.55-13.03c-7.74-5.89-14.42-10.99-28.49-10.99c-14.07,0-20.75,5.09-28.49,10.99
	c-8.02,6.11-17.1,13.03-34.56,13.03s-26.54-6.92-34.56-13.03c-7.74-5.89-14.42-10.99-28.49-10.99c-14.07,0-20.76,5.09-28.49,10.99
	c-8.02,6.11-17.11,13.03-34.56,13.03s-26.54-6.92-34.56-13.03c-7.74-5.89-14.42-10.99-28.49-10.99c-15.17,0-27.52-12.35-27.52-27.52
	c0-15.17,12.35-27.52,27.52-27.52c17.45,0,26.54,6.92,34.55,13.03c7.74,5.89,14.42,10.99,28.49,10.99
	c14.07,0,20.75-5.09,28.49-10.99c8.02-6.11,17.1-13.03,34.55-13.03s26.54,6.92,34.56,13.03c7.74,5.89,14.42,10.99,28.49,10.99
	s20.76-5.09,28.49-10.99c8.02-6.11,17.11-13.03,34.56-13.03c17.45,0,26.54,6.92,34.56,13.03c7.74,5.89,14.42,10.99,28.49,10.99
	c15.17,0,27.52,12.35,27.52,27.52C379.19,314.42,366.85,326.77,351.67,326.77z M288.63,292.74c17.45,0,26.54,6.92,34.55,13.03
	c7.74,5.89,14.42,10.99,28.49,10.99c9.66,0,17.51-7.86,17.51-17.51c0-9.66-7.86-17.51-17.51-17.51c-17.45,0-26.54-6.92-34.56-13.03
	c-7.74-5.89-14.42-10.99-28.49-10.99c-14.07,0-20.76,5.09-28.49,10.99c-8.02,6.11-17.11,13.03-34.56,13.03s-26.54-6.92-34.56-13.03
	c-7.74-5.89-14.42-10.99-28.49-10.99c-14.07,0-20.75,5.09-28.49,10.99c-8.02,6.11-17.1,13.03-34.55,13.03
	c-17.45,0-26.54-6.92-34.55-13.03c-7.74-5.89-14.42-10.99-28.49-10.99c-9.66,0-17.51,7.86-17.51,17.51
	c0,9.66,7.86,17.51,17.51,17.51c17.45,0,26.54,6.92,34.56,13.03c7.74,5.89,14.42,10.99,28.49,10.99c14.07,0,20.76-5.09,28.49-10.99
	c8.02-6.11,17.11-13.03,34.56-13.03c17.45,0,26.54,6.92,34.56,13.03c7.74,5.89,14.42,10.99,28.49,10.99
	c14.07,0,20.75-5.09,28.49-10.99C262.1,299.67,271.18,292.74,288.63,292.74z"/>
<path class="st3" d="M351.67,366.8c12.44,0,22.52-10.08,22.52-22.52c0-12.44-10.08-22.52-22.52-22.52h0
	c-31.52,0-31.52-24.02-63.05-24.02s-31.52,24.02-63.05,24.02c-31.52,0-31.52-24.02-63.05-24.02c-31.52,0-31.52,24.02-63.04,24.02
	c-31.52,0-31.52-24.02-63.04-24.02c-12.44,0-22.52,10.08-22.52,22.52s10.08,22.52,22.52,22.52c31.52,0,31.52,24.02,63.05,24.02
	s31.52-24.02,63.05-24.02c31.52,0,31.52,24.02,63.05,24.02c31.52,0,31.52-24.02,63.04-24.02
	C320.15,342.78,320.15,366.8,351.67,366.8z"/>
<path d="M351.67,371.8c-17.45,0-26.54-6.92-34.55-13.03c-7.74-5.89-14.42-10.99-28.49-10.99c-14.07,0-20.75,5.09-28.49,10.99
	c-8.02,6.11-17.1,13.03-34.56,13.03s-26.54-6.92-34.56-13.03c-7.74-5.89-14.42-10.99-28.49-10.99c-14.07,0-20.76,5.09-28.49,10.99
	c-8.02,6.11-17.11,13.03-34.56,13.03s-26.54-6.92-34.56-13.03c-7.74-5.89-14.42-10.99-28.49-10.99c-15.17,0-27.52-12.35-27.52-27.52
	c0-15.17,12.35-27.52,27.52-27.52c17.45,0,26.54,6.92,34.55,13.03c7.74,5.89,14.42,10.99,28.49,10.99
	c14.07,0,20.75-5.09,28.49-10.99c8.02-6.11,17.1-13.03,34.55-13.03s26.54,6.92,34.56,13.03c7.74,5.89,14.42,10.99,28.49,10.99
	s20.76-5.09,28.49-10.99c8.02-6.11,17.11-13.03,34.56-13.03c17.45,0,26.54,6.92,34.56,13.03c7.74,5.89,14.42,10.99,28.49,10.99
	c15.17,0,27.52,12.35,27.52,27.52C379.19,359.46,366.85,371.8,351.67,371.8z M288.63,337.78c17.45,0,26.54,6.92,34.55,13.03
	c7.74,5.89,14.42,10.99,28.49,10.99c9.66,0,17.51-7.86,17.51-17.51c0-9.66-7.86-17.51-17.51-17.51c-17.45,0-26.54-6.92-34.56-13.03
	c-7.74-5.89-14.42-10.99-28.49-10.99c-14.07,0-20.76,5.09-28.49,10.99c-8.02,6.11-17.11,13.03-34.56,13.03s-26.54-6.92-34.56-13.03
	c-7.74-5.89-14.42-10.99-28.49-10.99c-14.07,0-20.75,5.09-28.49,10.99c-8.02,6.11-17.1,13.03-34.55,13.03
	c-17.45,0-26.54-6.92-34.55-13.03c-7.74-5.89-14.42-10.99-28.49-10.99c-9.66,0-17.51,7.86-17.51,17.51
	c0,9.66,7.86,17.51,17.51,17.51c17.45,0,26.54,6.92,34.56,13.03c7.74,5.89,14.42,10.99,28.49,10.99c14.07,0,20.76-5.09,28.49-10.99
	c8.02-6.11,17.11-13.03,34.56-13.03c17.45,0,26.54,6.92,34.56,13.03c7.74,5.89,14.42,10.99,28.49,10.99
	c14.07,0,20.75-5.09,28.49-10.99C262.1,344.7,271.18,337.78,288.63,337.78z"/>
<path class="st2" d="M144.71,129.21c-11.86,0-22.37-5.51-26.15-13.71l4.58-2.11c2.93,6.35,11.8,10.78,21.57,10.78
	c9.77,0,18.64-4.43,21.57-10.78l4.58,2.11C167.08,123.7,156.57,129.21,144.71,129.21z"/>
<path class="st2" d="M170.43,88.99c4.81,0,8.94,2.92,10.71,7.08c0.59-2.06,0.92-4.32,0.92-6.7c0-9.47-5.21-17.14-11.63-17.14
	c-6.42,0-11.63,7.67-11.63,17.14c0,2.38,0.33,4.64,0.92,6.7C161.49,91.91,165.62,88.99,170.43,88.99z"/>
<path class="st2" d="M121.45,88.99c4.81,0,8.94,2.92,10.71,7.08c0.59-2.06,0.92-4.32,0.92-6.7c0-9.47-5.21-17.14-11.63-17.14
	c-6.42,0-11.63,7.67-11.63,17.14c0,2.38,0.33,4.64,0.92,6.7C112.51,91.91,116.64,88.99,121.45,88.99z"/>
<ellipse class="st2" cx="332.53" cy="725.43" rx="138.47" ry="14.57"/>
<path class="st4" d="M389.44,632.75c-8.04,0-12.36-5.94-19.29-16.43c-7.48-11.32-16.79-25.41-35.99-25.41
	c-19.2,0-28.51,14.09-35.99,25.41c-6.93,10.49-11.24,16.43-19.29,16.43s-12.36-5.94-19.29-16.43
	c-7.48-11.32-16.79-25.41-35.99-25.41c-19.2,0-28.51,14.09-35.99,25.41c-3.49,5.28-6.31,9.4-9.28,12.2l0-20.22V337.57
	c0-85.92,69.9-155.82,155.82-155.82c85.92,0,155.82,69.9,155.82,155.82l0,290.95c-2.97-2.8-5.8-6.92-9.28-12.2
	c-7.48-11.32-16.79-25.41-35.99-25.41c-19.2,0-28.51,14.09-35.99,25.41C401.8,626.81,397.49,632.75,389.44,632.75z"/>
<path d="M334.17,191.76c38.95,0,75.56,15.17,103.1,42.71c27.54,27.54,42.71,64.16,42.71,103.1v260.72
	c-7.7-9.07-18.55-17.38-35.26-17.38c-24.58,0-36.47,17.99-44.34,29.9c-2.84,4.3-5.53,8.36-7.98,10.6c-1.47,1.34-2.06,1.34-2.95,1.34
	c-0.89,0-1.48,0-2.95-1.34c-2.46-2.23-5.14-6.3-7.98-10.6c-7.87-11.91-19.75-29.9-44.34-29.9c-24.58,0-36.47,17.99-44.34,29.9
	c-2.84,4.3-5.52,8.36-7.98,10.6c-1.47,1.34-2.06,1.34-2.95,1.34c-0.89,0-1.48,0-2.95-1.34c-2.46-2.23-5.14-6.3-7.98-10.6
	c-7.87-11.91-19.75-29.9-44.34-29.9c-16.71,0-27.55,8.31-35.25,17.37V337.57c0-38.95,15.17-75.56,42.71-103.1
	C258.61,206.93,295.22,191.76,334.17,191.76 M334.17,171.74c-91.58,0-165.82,74.24-165.82,165.82V608.3l-0.01,34.46
	c27.64,0,27.64-41.83,55.28-41.83c27.64,0,27.64,41.83,55.27,41.83c27.64,0,27.64-41.83,55.27-41.83
	c27.64,0,27.64,41.83,55.28,41.83c27.64,0,27.64-41.83,55.28-41.83c27.64,0,27.64,41.83,55.28,41.83l0-34.46V337.57
	C500,245.99,425.75,171.74,334.17,171.74L334.17,171.74z"/>
<path d="M393,364.18c-11.76,0-22.19-5.46-25.94-13.6c-0.58-1.25-0.03-2.74,1.22-3.32c1.26-0.58,2.74-0.03,3.32,1.22
	c2.9,6.29,11.7,10.69,21.39,10.69c9.69,0,18.49-4.4,21.39-10.69c0.58-1.26,2.07-1.81,3.32-1.22c1.25,0.58,1.8,2.06,1.22,3.32
	C415.19,358.71,404.76,364.18,393,364.18z"/>
<ellipse cx="367.21" cy="309.18" rx="12.54" ry="18"/>
<path d="M418.79,291.17c-6.91,0-12.54,8.08-12.54,18s5.62,18,12.54,18c6.91,0,12.54-8.08,12.54-18S425.7,291.17,418.79,291.17z"/>
<path class="st4" d="M361.89,302.1c-0.1-0.88,0.08-1.72,0.39-2.51c0.32-0.78,0.81-1.51,1.45-2.12c0.63-0.6,1.42-1.08,2.29-1.31
	c0.86-0.22,1.81-0.21,2.59,0.21c-0.78,0.42-1.39,0.8-1.95,1.22c-0.56,0.41-1.06,0.85-1.56,1.32c-0.5,0.47-0.99,0.97-1.5,1.51
	C363.09,300.96,362.57,301.53,361.89,302.1z"/>
<path class="st4" d="M412.59,302.1c-0.1-0.88,0.08-1.72,0.39-2.51c0.32-0.78,0.81-1.51,1.45-2.12c0.63-0.6,1.42-1.08,2.29-1.31
	c0.86-0.22,1.81-0.21,2.59,0.21c-0.78,0.42-1.39,0.8-1.95,1.22c-0.56,0.41-1.06,0.85-1.56,1.32c-0.5,0.47-0.99,0.97-1.5,1.51
	C413.78,300.96,413.27,301.53,412.59,302.1z"/>
<path class="st3" d="M383.56,484.89c12.44,0,22.52-10.08,22.52-22.52s-10.08-22.52-22.52-22.52h0c-31.52,0-31.52-24.02-63.05-24.02
	s-31.52,24.02-63.05,24.02c-31.52,0-31.52-24.02-63.05-24.02c-31.52,0-31.52,24.02-63.04,24.02c-31.52,0-31.52-24.02-63.04-24.02
	c-12.44,0-22.52,10.08-22.52,22.52s10.08,22.52,22.52,22.52c31.52,0,31.52,24.02,63.05,24.02s31.52-24.02,63.05-24.02
	c31.52,0,31.52,24.02,63.05,24.02c31.52,0,31.52-24.02,63.04-24.02C352.04,460.87,352.04,484.89,383.56,484.89z"/>
<path d="M383.56,489.9c-17.45,0-26.54-6.92-34.55-13.03c-7.74-5.89-14.42-10.98-28.49-10.98c-14.07,0-20.75,5.09-28.49,10.98
	c-8.02,6.11-17.11,13.03-34.56,13.03c-17.45,0-26.54-6.92-34.56-13.03c-7.74-5.89-14.42-10.99-28.49-10.99
	c-14.07,0-20.76,5.09-28.49,10.99c-8.02,6.11-17.11,13.03-34.56,13.03s-26.54-6.92-34.56-13.03c-7.74-5.89-14.42-10.99-28.49-10.99
	c-15.17,0-27.52-12.35-27.52-27.52c0-15.17,12.35-27.52,27.52-27.52c17.45,0,26.54,6.92,34.55,13.03
	c7.74,5.89,14.42,10.99,28.49,10.99c14.07,0,20.75-5.09,28.49-10.99c8.02-6.11,17.1-13.03,34.55-13.03s26.54,6.92,34.56,13.03
	c7.74,5.89,14.42,10.99,28.49,10.99s20.75-5.09,28.49-10.99c8.02-6.11,17.11-13.03,34.56-13.03c17.45,0,26.54,6.92,34.56,13.03
	c7.74,5.89,14.42,10.99,28.49,10.99c15.17,0,27.52,12.35,27.52,27.52S398.74,489.9,383.56,489.9z M320.52,455.87
	c17.45,0,26.54,6.92,34.55,13.03c7.74,5.89,14.42,10.99,28.49,10.99c9.66,0,17.51-7.86,17.51-17.51s-7.86-17.51-17.51-17.51
	c-17.45,0-26.54-6.92-34.56-13.03c-7.74-5.89-14.42-10.99-28.49-10.99c-14.07,0-20.76,5.09-28.49,10.99
	c-8.02,6.11-17.11,13.03-34.56,13.03c-17.45,0-26.54-6.92-34.56-13.03c-7.74-5.89-14.42-10.99-28.49-10.99
	c-14.07,0-20.75,5.09-28.49,10.99c-8.02,6.11-17.1,13.03-34.55,13.03c-17.45,0-26.54-6.92-34.55-13.03
	c-7.74-5.89-14.42-10.98-28.49-10.98c-9.66,0-17.51,7.86-17.51,17.51c0,9.66,7.86,17.51,17.51,17.51c17.45,0,26.54,6.92,34.56,13.03
	c7.74,5.89,14.42,10.99,28.49,10.99s20.76-5.09,28.49-10.99c8.02-6.11,17.11-13.03,34.56-13.03c17.45,0,26.54,6.92,34.56,13.03
	c7.74,5.89,14.42,10.99,28.49,10.99c14.07,0,20.75-5.09,28.49-10.99C293.98,462.79,303.07,455.87,320.52,455.87z"/>
</svg>
