<?xml version="1.0" encoding="utf-8"?>
<!-- Generator: Adobe Illustrator 25.3.1, SVG Export Plug-In . SVG Version: 6.00 Build 0)  -->
<svg version="1.1" id="Layer_1" xmlns="http://www.w3.org/2000/svg" xmlns:xlink="http://www.w3.org/1999/xlink" x="0px" y="0px"
	 viewBox="0 0 500 740" style="enable-background:new 0 0 500 740;" xml:space="preserve">
<style type="text/css">
	.st0{fill:#317C2D;}
	.st1{fill:#FFDA40;}
	.st2{fill:#D8D8D2;}
	.st3{opacity:0.2;}
	.st4{fill:#FFFFFF;}
</style>
<path class="st0" d="M50.3,528.45c0-36.79,22.23-73.08,49.65-73.08s49.65,36.29,49.65,73.08"/>
<path d="M154.6,528.45h-10.01c0-35.63-21.28-68.07-44.64-68.07s-44.64,32.45-44.64,68.07H45.3c0-36.93,22.44-78.08,54.65-78.08
	S154.6,491.51,154.6,528.45z"/>
<path class="st0" d="M106.33,528.45c0-22.62-22.57-40.96-50.42-40.96S5.49,505.82,5.49,528.45"/>
<path d="M111.33,528.45h-10.01c0-19.83-20.37-35.96-45.42-35.96s-45.42,16.13-45.42,35.96H0.49c0-25.35,24.86-45.97,55.42-45.97
	S111.33,503.1,111.33,528.45z"/>
<path class="st0" d="M225.95,529.71v-41.96c-76.35-61.08-90.92-6.32-118.33,17.69s-67.7,24.27-67.7,24.27"/>
<path d="M39.95,534.72l-0.06-10.01c0.38,0,38.81-0.57,64.43-23.03c5.06-4.43,9.69-10.02,14.6-15.94
	c10.66-12.86,21.69-26.15,38.95-29.9c19.43-4.22,42.05,4.68,71.19,28l1.88,1.5v44.37h-10.01v-39.54
	c-25.35-19.91-45.3-27.94-60.94-24.55c-13.89,3.01-23.35,14.43-33.37,26.51c-4.94,5.96-10.05,12.12-15.71,17.08
	C82.44,534.16,41.68,534.71,39.95,534.72z"/>
<rect x="0.24" y="522.42" class="st0" width="212.18" height="21.68"/>
<path class="st1" d="M255.42,170.28c-5.39-2.15-6.65-11.86-11.24-15.02c-4.74-3.26-14.25-1.01-18.04-5.15
	c-3.86-4.21-0.78-13.51-3.58-18.42c-2.81-4.94-12.37-7.03-14.02-12.47c-1.64-5.41,5.14-12.46,4.74-18.15
	c-0.39-5.6-8.11-11.64-7.22-17.32c0.86-5.5,10.02-8.89,12.17-14.28c2.15-5.39-2.17-14.15,0.99-18.74c3.26-4.74,13.01-3.81,17.15-7.6
	c4.21-3.86,4.14-13.64,9.05-16.44c4.94-2.81,13.32,2.24,18.75,0.6c5.41-1.64,9.57-10.51,15.27-10.91c5.6-0.39,10.96,7.78,16.64,8.67
	c5.5,0.86,13.1-5.32,18.49-3.17c5.39,2.15,6.65,11.86,11.24,15.02c4.74,3.26,14.25,1.01,18.04,5.15c3.86,4.21,0.78,13.51,3.58,18.42
	c2.81,4.94,12.37,7.03,14.02,12.47c1.64,5.41-5.14,12.46-4.74,18.15c0.39,5.6,8.11,11.64,7.22,17.32
	c-0.86,5.5-10.02,8.89-12.17,14.28c-2.15,5.39,2.17,14.15-0.99,18.74c-3.26,4.74-13.01,3.81-17.15,7.6
	c-4.21,3.86-4.14,13.64-9.05,16.44c-4.94,2.81-13.32-2.24-18.75-0.6c-5.41,1.64-9.57,10.51-15.27,10.91
	c-5.6,0.39-10.96-7.78-16.64-8.67C268.4,166.24,260.81,172.42,255.42,170.28z"/>
<path d="M290.13,180.79c-4.56,0-8.26-2.85-11.55-5.39c-1.92-1.48-4.09-3.15-5.45-3.36c-1.23-0.19-3.83,0.75-5.92,1.51
	c-4.19,1.52-8.94,3.25-13.64,1.37c-4.71-1.88-6.97-6.39-8.96-10.38c-0.99-1.99-2.23-4.46-3.26-5.17c-1.14-0.78-3.86-1.06-6.27-1.31
	c-4.36-0.45-9.3-0.95-12.62-4.58c-3.38-3.68-3.45-8.69-3.52-13.11c-0.04-2.38-0.08-5.07-0.72-6.21c-0.66-1.15-2.97-2.57-5.01-3.82
	c-3.76-2.3-8.01-4.92-9.46-9.67c-1.44-4.73,0.65-9.26,2.49-13.25c1.01-2.18,2.14-4.66,2.05-6c-0.09-1.28-1.6-3.62-2.82-5.51
	c-2.41-3.73-5.14-7.96-4.35-12.93c0.76-4.82,4.56-7.96,7.93-10.73c1.88-1.55,4.02-3.31,4.54-4.63c0.52-1.32,0.19-4.06-0.11-6.49
	c-0.53-4.32-1.14-9.22,1.63-13.24c2.85-4.15,7.74-5.34,12.06-6.39c2.18-0.53,4.89-1.19,5.84-2.06c0.99-0.91,1.87-3.49,2.64-5.77
	c1.41-4.16,3.01-8.88,7.31-11.33c4.32-2.46,9.2-1.43,13.51-0.51c2.34,0.49,4.99,1.05,6.26,0.67c1.25-0.38,3.13-2.31,4.79-4.01
	c3.09-3.16,6.59-6.75,11.57-7.1c4.9-0.35,8.84,2.69,12.31,5.36c1.92,1.48,4.09,3.15,5.45,3.36c1.23,0.19,3.83-0.75,5.92-1.51
	c4.19-1.52,8.94-3.25,13.64-1.37c4.71,1.88,6.97,6.39,8.96,10.38c0.99,1.99,2.23,4.46,3.26,5.17c1.14,0.78,3.86,1.06,6.27,1.31
	c4.36,0.45,9.3,0.95,12.62,4.58c3.38,3.68,3.45,8.69,3.52,13.11c0.04,2.38,0.08,5.07,0.72,6.21c0.66,1.15,2.97,2.57,5.01,3.82
	c3.76,2.3,8.01,4.92,9.46,9.67c1.44,4.73-0.65,9.26-2.49,13.25c-1,2.18-2.14,4.66-2.05,6c0.09,1.28,1.6,3.62,2.82,5.51
	c2.41,3.73,5.14,7.96,4.35,12.93c-0.76,4.82-4.56,7.96-7.92,10.73c-1.88,1.55-4.02,3.31-4.54,4.63c-0.52,1.32-0.19,4.06,0.11,6.49
	c0.53,4.32,1.14,9.22-1.63,13.24c-2.85,4.15-7.74,5.34-12.06,6.39c-2.18,0.53-4.89,1.19-5.84,2.06c-0.99,0.91-1.87,3.49-2.64,5.77
	c-1.41,4.16-3.01,8.88-7.31,11.33c-4.32,2.46-9.2,1.43-13.51,0.51c-2.34-0.49-4.99-1.06-6.26-0.67c-1.25,0.38-3.13,2.31-4.8,4.01
	c-3.09,3.16-6.59,6.75-11.57,7.1C290.64,180.78,290.38,180.79,290.13,180.79z M272.81,162.02c0.62,0,1.25,0.04,1.88,0.14
	c3.89,0.61,7.14,3.11,10.01,5.32c1.72,1.32,4.29,3.31,5.44,3.31c0.02,0,0.04,0,0.06,0c1.18-0.08,3.45-2.41,5.11-4.11
	c2.5-2.56,5.34-5.47,9.05-6.6c3.73-1.13,7.72-0.29,11.24,0.45c2.18,0.46,5.48,1.16,6.49,0.58c1-0.57,2.07-3.74,2.79-5.85
	c1.16-3.41,2.47-7.28,5.36-9.93c2.84-2.6,6.76-3.56,10.23-4.41c2.32-0.57,5.5-1.34,6.19-2.34c0.61-0.89,0.21-4.17-0.06-6.34
	c-0.45-3.62-0.95-7.72,0.52-11.42c1.47-3.7,4.66-6.33,7.47-8.65c1.69-1.39,4.24-3.49,4.41-4.56c0.19-1.2-1.58-3.95-2.88-5.96
	c-1.93-3-4.12-6.39-4.39-10.23c-0.27-3.91,1.43-7.62,2.94-10.89c0.93-2.02,2.33-5.06,2-6.16c-0.34-1.12-3.21-2.88-5.11-4.04
	c-3.07-1.88-6.54-4.01-8.47-7.4c-1.92-3.37-1.98-7.43-2.03-11.01c-0.04-2.37-0.08-5.62-0.89-6.5c-0.75-0.82-4.07-1.16-6.27-1.39
	c-3.6-0.37-7.68-0.79-10.92-3.02c-3.15-2.17-4.95-5.76-6.54-8.93c-1.08-2.15-2.55-5.09-3.72-5.56c-1.17-0.46-4.26,0.66-6.53,1.48
	c-3.33,1.21-7.11,2.58-10.89,1.99c-3.89-0.61-7.14-3.11-10-5.32c-1.72-1.32-4.29-3.31-5.44-3.31c-0.02,0-0.04,0-0.06,0
	c-1.18,0.08-3.46,2.41-5.11,4.11c-2.5,2.56-5.34,5.47-9.05,6.6c-3.73,1.13-7.72,0.29-11.24-0.45c-2.18-0.46-5.48-1.16-6.49-0.58
	c-1,0.57-2.07,3.74-2.79,5.85c-1.16,3.41-2.47,7.28-5.36,9.93c-2.84,2.6-6.76,3.56-10.23,4.41c-2.32,0.57-5.5,1.34-6.19,2.34
	c-0.61,0.89-0.21,4.17,0.06,6.34c0.45,3.62,0.95,7.72-0.52,11.42c-1.47,3.7-4.66,6.33-7.47,8.65c-1.69,1.39-4.24,3.49-4.41,4.56
	c-0.19,1.2,1.58,3.95,2.88,5.96c1.93,3,4.12,6.39,4.39,10.23c0.27,3.91-1.43,7.62-2.94,10.89c-0.93,2.02-2.33,5.06-2,6.16
	c0.34,1.12,3.21,2.88,5.11,4.04c3.07,1.88,6.54,4.01,8.47,7.4c1.92,3.37,1.98,7.43,2.03,11.01c0.04,2.37,0.08,5.62,0.89,6.5
	c0.75,0.82,4.07,1.16,6.27,1.39c3.6,0.37,7.68,0.79,10.92,3.02c3.15,2.17,4.95,5.76,6.54,8.93c1.08,2.15,2.55,5.09,3.72,5.56
	c1.17,0.46,4.26-0.66,6.53-1.48C266.57,163.14,269.67,162.02,272.81,162.02z"/>
<path class="st2" d="M282.91,68.77l-13.72,0.02c-6.91-18.44-24.44-31.52-44.96-31.49c-8.33,0.02-16.16,2.19-22.98,6.01
	C188.78,20.43,164.82,4.95,137.32,5c-40.28,0.07-72.87,33.42-72.8,74.47c0.01,3.42,0.26,6.78,0.7,10.07
	C30.45,99.36,4.94,131.89,5,170.46l0,0c0.08,46.28,36.95,83.73,82.35,83.64l102.04-0.18l0,0l93.83-0.17
	c45.4-0.08,82.13-41.56,82.04-92.64l0,0C365.18,110.03,328.3,68.69,282.91,68.77z"/>
<path d="M87.2,259.1c-23.25,0-45.12-9.2-61.58-25.93C9.14,216.43,0.04,194.16,0,170.46c-0.07-38.4,24.32-72.53,59.8-84.47
	c-0.19-2.2-0.28-4.38-0.28-6.51C59.44,35.73,94.34,0.08,137.31,0c0.04,0,0.09,0,0.14,0c26.73,0,51.49,13.96,65.75,36.76
	c6.6-2.91,13.78-4.44,21.02-4.45c0.03,0,0.06,0,0.09,0c20.69,0,39.64,12.51,48.21,31.48l10.37-0.02
	c23.41-0.03,45.39,10.13,61.91,28.66c16.37,18.36,25.42,42.75,25.46,68.68c0.09,53.76-38.95,97.56-87.03,97.65L87.36,259.1
	C87.31,259.1,87.25,259.1,87.2,259.1z M137.45,10.01c-0.04,0-0.08,0-0.12,0c-37.45,0.07-67.87,31.23-67.81,69.46
	c0.01,3.05,0.23,6.21,0.66,9.41c0.33,2.47-1.2,4.81-3.6,5.48c-33.37,9.42-56.64,40.7-56.58,76.08c0.04,21.06,8.11,40.85,22.74,55.7
	c14.57,14.8,33.9,22.94,54.45,22.94c0.05,0,0.09,0,0.14,0l195.88-0.35c42.57-0.08,77.13-39.39,77.04-87.62
	c-0.04-23.48-8.18-45.51-22.92-62.03c-14.56-16.32-33.84-25.31-54.3-25.31c-0.04,0-0.08,0-0.13,0l0,0L269.2,73.8c0,0-0.01,0-0.01,0
	c-2.09,0-3.95-1.29-4.69-3.25c-6.35-16.92-22.57-28.28-40.26-28.24c-7.18,0.01-14.29,1.87-20.55,5.37
	c-1.17,0.65-2.55,0.81-3.83,0.44c-1.28-0.37-2.37-1.24-3.01-2.41C184.86,23.68,162.1,10.01,137.45,10.01z"/>
<path class="st2" d="M351.67,276.73c12.44,0,22.52-10.08,22.52-22.52s-10.08-22.52-22.52-22.52l0,0
	c-31.52,0-31.52-24.02-63.05-24.02s-31.52,24.02-63.05,24.02c-31.52,0-31.52-24.02-63.05-24.02c-31.52,0-31.52,24.02-63.04,24.02
	c-31.52,0-31.52-24.02-63.04-24.02c-12.44,0-22.52,10.08-22.52,22.52s10.08,22.52,22.52,22.52c31.52,0,31.52,24.02,63.05,24.02
	c31.52,0,31.52-24.02,63.05-24.02c31.52,0,31.52,24.02,63.05,24.02c31.52,0,31.52-24.02,63.04-24.02
	C320.15,252.71,320.15,276.73,351.67,276.73z"/>
<path d="M351.67,281.73c-17.45,0-26.54-6.92-34.55-13.03c-7.74-5.89-14.42-10.99-28.49-10.99c-14.07,0-20.75,5.09-28.49,10.99
	c-8.02,6.11-17.1,13.03-34.56,13.03s-26.54-6.92-34.56-13.03c-7.74-5.89-14.42-10.99-28.49-10.99c-14.07,0-20.76,5.09-28.49,10.99
	c-8.02,6.11-17.11,13.03-34.56,13.03s-26.54-6.92-34.56-13.03c-7.74-5.89-14.42-10.99-28.49-10.99c-15.17,0-27.52-12.35-27.52-27.52
	c0-15.17,12.35-27.52,27.52-27.52c17.45,0,26.54,6.92,34.55,13.03c7.74,5.89,14.42,10.99,28.49,10.99
	c14.07,0,20.75-5.09,28.49-10.99c8.02-6.11,17.1-13.03,34.56-13.03c17.45,0,26.54,6.92,34.56,13.03
	c7.74,5.89,14.42,10.99,28.49,10.99c14.07,0,20.76-5.09,28.49-10.99c8.02-6.11,17.11-13.03,34.56-13.03s26.54,6.92,34.56,13.03
	c7.74,5.89,14.42,10.99,28.49,10.99c15.17,0,27.52,12.35,27.52,27.52C379.19,269.39,366.85,281.73,351.67,281.73z M288.63,247.71
	c17.45,0,26.54,6.92,34.55,13.03c7.74,5.89,14.42,10.99,28.49,10.99c9.66,0,17.51-7.86,17.51-17.51c0-9.66-7.86-17.51-17.51-17.51
	c-17.45,0-26.54-6.92-34.56-13.03c-7.74-5.89-14.42-10.99-28.49-10.99c-14.07,0-20.75,5.09-28.49,10.99
	c-8.02,6.11-17.11,13.03-34.56,13.03c-17.45,0-26.54-6.92-34.56-13.03c-7.74-5.89-14.42-10.99-28.49-10.99
	c-14.07,0-20.75,5.09-28.49,10.99c-8.02,6.11-17.1,13.03-34.55,13.03c-17.45,0-26.54-6.92-34.55-13.03
	c-7.74-5.89-14.42-10.99-28.49-10.99c-9.66,0-17.51,7.86-17.51,17.51s7.86,17.51,17.51,17.51c17.45,0,26.54,6.92,34.56,13.03
	c7.74,5.89,14.42,10.99,28.49,10.99s20.76-5.09,28.49-10.99c8.02-6.11,17.11-13.03,34.56-13.03c17.45,0,26.54,6.92,34.56,13.03
	c7.74,5.89,14.42,10.99,28.49,10.99c14.07,0,20.75-5.09,28.49-10.99C262.1,254.63,271.18,247.71,288.63,247.71z"/>
<path class="st2" d="M351.67,321.76c12.44,0,22.52-10.08,22.52-22.52s-10.08-22.52-22.52-22.52l0,0
	c-31.52,0-31.52-24.02-63.05-24.02s-31.52,24.02-63.05,24.02c-31.52,0-31.52-24.02-63.05-24.02c-31.52,0-31.52,24.02-63.04,24.02
	c-31.52,0-31.52-24.02-63.04-24.02c-12.44,0-22.52,10.08-22.52,22.52c0,12.44,10.08,22.52,22.52,22.52
	c31.52,0,31.52,24.02,63.05,24.02s31.52-24.02,63.05-24.02c31.52,0,31.52,24.02,63.05,24.02c31.52,0,31.52-24.02,63.04-24.02
	C320.15,297.75,320.15,321.76,351.67,321.76z"/>
<path d="M351.67,326.77c-17.45,0-26.54-6.92-34.55-13.03c-7.74-5.89-14.42-10.99-28.49-10.99c-14.07,0-20.75,5.09-28.49,10.99
	c-8.02,6.11-17.1,13.03-34.56,13.03s-26.54-6.92-34.56-13.03c-7.74-5.89-14.42-10.99-28.49-10.99c-14.07,0-20.76,5.09-28.49,10.99
	c-8.02,6.11-17.11,13.03-34.56,13.03s-26.54-6.92-34.56-13.03c-7.74-5.89-14.42-10.99-28.49-10.99c-15.17,0-27.52-12.35-27.52-27.52
	c0-15.17,12.35-27.52,27.52-27.52c17.45,0,26.54,6.92,34.55,13.03c7.74,5.89,14.42,10.99,28.49,10.99
	c14.07,0,20.75-5.09,28.49-10.99c8.02-6.11,17.1-13.03,34.56-13.03c17.45,0,26.54,6.92,34.56,13.03
	c7.74,5.89,14.42,10.99,28.49,10.99c14.07,0,20.76-5.09,28.49-10.99c8.02-6.11,17.11-13.03,34.56-13.03s26.54,6.92,34.56,13.03
	c7.74,5.89,14.42,10.99,28.49,10.99c15.17,0,27.52,12.35,27.52,27.52C379.19,314.42,366.85,326.77,351.67,326.77z M288.63,292.74
	c17.45,0,26.54,6.92,34.55,13.03c7.74,5.89,14.42,10.99,28.49,10.99c9.66,0,17.51-7.86,17.51-17.51c0-9.66-7.86-17.51-17.51-17.51
	c-17.45,0-26.54-6.92-34.56-13.03c-7.74-5.89-14.42-10.99-28.49-10.99c-14.07,0-20.75,5.09-28.49,10.99
	c-8.02,6.11-17.11,13.03-34.56,13.03c-17.45,0-26.54-6.92-34.56-13.03c-7.74-5.89-14.42-10.99-28.49-10.99
	c-14.07,0-20.75,5.09-28.49,10.99c-8.02,6.11-17.1,13.03-34.55,13.03c-17.45,0-26.54-6.92-34.55-13.03
	c-7.74-5.89-14.42-10.99-28.49-10.99c-9.66,0-17.51,7.86-17.51,17.51c0,9.66,7.86,17.51,17.51,17.51c17.45,0,26.54,6.92,34.56,13.03
	c7.74,5.89,14.42,10.99,28.49,10.99s20.76-5.09,28.49-10.99c8.02-6.11,17.11-13.03,34.56-13.03c17.45,0,26.54,6.92,34.56,13.03
	c7.74,5.89,14.42,10.99,28.49,10.99c14.07,0,20.75-5.09,28.49-10.99C262.1,299.67,271.18,292.74,288.63,292.74z"/>
<path class="st2" d="M351.67,366.8c12.44,0,22.52-10.08,22.52-22.52s-10.08-22.52-22.52-22.52l0,0c-31.52,0-31.52-24.02-63.05-24.02
	s-31.52,24.02-63.05,24.02c-31.52,0-31.52-24.02-63.05-24.02c-31.52,0-31.52,24.02-63.04,24.02c-31.52,0-31.52-24.02-63.04-24.02
	c-12.44,0-22.52,10.08-22.52,22.52s10.08,22.52,22.52,22.52c31.52,0,31.52,24.02,63.05,24.02s31.52-24.02,63.05-24.02
	c31.52,0,31.52,24.02,63.05,24.02c31.52,0,31.52-24.02,63.04-24.02C320.15,342.78,320.15,366.8,351.67,366.8z"/>
<path d="M351.67,371.8c-17.45,0-26.54-6.92-34.55-13.03c-7.74-5.89-14.42-10.99-28.49-10.99c-14.07,0-20.75,5.09-28.49,10.99
	c-8.02,6.11-17.1,13.03-34.56,13.03s-26.54-6.92-34.56-13.03c-7.74-5.89-14.42-10.99-28.49-10.99c-14.07,0-20.76,5.09-28.49,10.99
	c-8.02,6.11-17.11,13.03-34.56,13.03s-26.54-6.92-34.56-13.03c-7.74-5.89-14.42-10.99-28.49-10.99c-15.17,0-27.52-12.35-27.52-27.52
	c0-15.17,12.35-27.52,27.52-27.52c17.45,0,26.54,6.92,34.55,13.03c7.74,5.89,14.42,10.99,28.49,10.99
	c14.07,0,20.75-5.09,28.49-10.99c8.02-6.11,17.1-13.03,34.56-13.03c17.45,0,26.54,6.92,34.56,13.03
	c7.74,5.89,14.42,10.99,28.49,10.99c14.07,0,20.76-5.09,28.49-10.99c8.02-6.11,17.11-13.03,34.56-13.03s26.54,6.92,34.56,13.03
	c7.74,5.89,14.42,10.99,28.49,10.99c15.17,0,27.52,12.35,27.52,27.52C379.19,359.46,366.85,371.8,351.67,371.8z M288.63,337.78
	c17.45,0,26.54,6.92,34.55,13.03c7.74,5.89,14.42,10.99,28.49,10.99c9.66,0,17.51-7.86,17.51-17.51c0-9.66-7.86-17.51-17.51-17.51
	c-17.45,0-26.54-6.92-34.56-13.03c-7.74-5.89-14.42-10.99-28.49-10.99c-14.07,0-20.75,5.09-28.49,10.99
	c-8.02,6.11-17.11,13.03-34.56,13.03c-17.45,0-26.54-6.92-34.56-13.03c-7.74-5.89-14.42-10.99-28.49-10.99
	c-14.07,0-20.75,5.09-28.49,10.99c-8.02,6.11-17.1,13.03-34.55,13.03c-17.45,0-26.54-6.92-34.55-13.03
	c-7.74-5.89-14.42-10.99-28.49-10.99c-9.66,0-17.51,7.86-17.51,17.51c0,9.66,7.86,17.51,17.51,17.51c17.45,0,26.54,6.92,34.56,13.03
	c7.74,5.89,14.42,10.99,28.49,10.99s20.76-5.09,28.49-10.99c8.02-6.11,17.11-13.03,34.56-13.03c17.45,0,26.54,6.92,34.56,13.03
	c7.74,5.89,14.42,10.99,28.49,10.99c14.07,0,20.75-5.09,28.49-10.99C262.1,344.7,271.18,337.78,288.63,337.78z"/>
<path class="st3" d="M144.71,129.21c-11.86,0-22.37-5.51-26.15-13.71l4.58-2.11c2.93,6.35,11.8,10.78,21.57,10.78
	c9.77,0,18.64-4.43,21.57-10.78l4.58,2.11C167.08,123.7,156.57,129.21,144.71,129.21z"/>
<path class="st3" d="M170.43,88.99c4.81,0,8.94,2.92,10.71,7.08c0.59-2.06,0.92-4.32,0.92-6.7c0-9.47-5.21-17.14-11.63-17.14
	c-6.42,0-11.63,7.67-11.63,17.14c0,2.38,0.33,4.64,0.92,6.7C161.49,91.91,165.62,88.99,170.43,88.99z"/>
<path class="st3" d="M121.45,88.99c4.81,0,8.94,2.92,10.71,7.08c0.59-2.06,0.92-4.32,0.92-6.7c0-9.47-5.21-17.14-11.63-17.14
	c-6.42,0-11.63,7.67-11.63,17.14c0,2.38,0.33,4.64,0.92,6.7C112.51,91.91,116.64,88.99,121.45,88.99z"/>
<ellipse class="st3" cx="332.53" cy="725.43" rx="138.47" ry="14.57"/>
<path class="st4" d="M389.44,632.75c-8.04,0-12.36-5.93-19.29-16.43c-7.48-11.32-16.79-25.41-35.99-25.41
	c-19.2,0-28.51,14.09-35.99,25.41c-6.93,10.49-11.24,16.43-19.29,16.43s-12.36-5.93-19.29-16.43
	c-7.48-11.32-16.79-25.41-35.99-25.41c-19.2,0-28.51,14.09-35.99,25.41c-3.49,5.28-6.31,9.4-9.28,12.2l0-20.22V337.57
	c0-85.92,69.9-155.82,155.82-155.82c85.92,0,155.82,69.9,155.82,155.82l0,290.95c-2.97-2.8-5.8-6.92-9.28-12.2
	c-7.48-11.32-16.79-25.41-35.99-25.41c-19.2,0-28.51,14.09-35.99,25.41C401.8,626.81,397.49,632.75,389.44,632.75z"/>
<path d="M334.17,191.76c38.95,0,75.56,15.17,103.1,42.71c27.54,27.54,42.71,64.16,42.71,103.1v260.72
	c-7.7-9.07-18.55-17.38-35.26-17.38c-24.58,0-36.47,17.99-44.34,29.9c-2.84,4.3-5.53,8.36-7.98,10.6c-1.47,1.34-2.06,1.34-2.95,1.34
	c-0.89,0-1.48,0-2.95-1.34c-2.46-2.23-5.14-6.3-7.98-10.6c-7.87-11.91-19.75-29.9-44.34-29.9c-24.58,0-36.47,17.99-44.34,29.9
	c-2.84,4.3-5.52,8.36-7.98,10.6c-1.47,1.34-2.06,1.34-2.95,1.34c-0.89,0-1.48,0-2.95-1.34c-2.46-2.23-5.14-6.3-7.98-10.6
	c-7.87-11.91-19.75-29.9-44.34-29.9c-16.71,0-27.55,8.31-35.26,17.37V337.57c0-38.95,15.17-75.56,42.71-103.1
	C258.61,206.93,295.22,191.76,334.17,191.76 M334.17,171.74c-91.58,0-165.83,74.24-165.83,165.82V608.3l-0.01,34.46
	c27.64,0,27.64-41.83,55.28-41.83c27.64,0,27.64,41.83,55.27,41.83c27.64,0,27.64-41.83,55.27-41.83
	c27.64,0,27.64,41.83,55.28,41.83c27.64,0,27.64-41.83,55.28-41.83c27.64,0,27.64,41.83,55.28,41.83l0-34.46V337.57
	C500,245.99,425.75,171.74,334.17,171.74L334.17,171.74z"/>
<path d="M393,364.18c-11.76,0-22.19-5.46-25.94-13.6c-0.58-1.25-0.03-2.74,1.22-3.32c1.26-0.58,2.74-0.03,3.32,1.22
	c2.9,6.29,11.7,10.69,21.39,10.69c9.69,0,18.49-4.4,21.39-10.69c0.58-1.26,2.06-1.81,3.32-1.22c1.25,0.58,1.8,2.06,1.22,3.32
	C415.18,358.71,404.76,364.18,393,364.18z"/>
<ellipse cx="367.21" cy="309.18" rx="12.54" ry="18"/>
<path d="M418.79,291.17c-6.91,0-12.54,8.08-12.54,18s5.62,18,12.54,18c6.91,0,12.54-8.08,12.54-18S425.7,291.17,418.79,291.17z"/>
<path class="st4" d="M361.89,302.1c-0.1-0.88,0.08-1.72,0.39-2.51c0.32-0.78,0.81-1.51,1.45-2.12c0.63-0.6,1.42-1.08,2.29-1.31
	c0.86-0.22,1.81-0.21,2.59,0.21c-0.78,0.42-1.39,0.8-1.95,1.22c-0.56,0.41-1.06,0.85-1.56,1.32c-0.5,0.47-0.99,0.97-1.5,1.51
	C363.09,300.96,362.57,301.53,361.89,302.1z"/>
<path class="st4" d="M412.59,302.1c-0.1-0.88,0.08-1.72,0.39-2.51c0.32-0.78,0.81-1.51,1.45-2.12c0.63-0.6,1.42-1.08,2.29-1.31
	c0.86-0.22,1.81-0.21,2.59,0.21c-0.78,0.42-1.39,0.8-1.95,1.22c-0.56,0.41-1.06,0.85-1.56,1.32c-0.5,0.47-0.99,0.97-1.5,1.51
	C413.78,300.96,413.27,301.53,412.59,302.1z"/>
<path class="st2" d="M383.56,484.89c12.44,0,22.52-10.08,22.52-22.52c0-12.44-10.08-22.52-22.52-22.52h0
	c-31.52,0-31.52-24.02-63.05-24.02s-31.52,24.02-63.05,24.02c-31.52,0-31.52-24.02-63.05-24.02c-31.52,0-31.52,24.02-63.04,24.02
	c-31.52,0-31.52-24.02-63.04-24.02c-12.44,0-22.52,10.08-22.52,22.52s10.08,22.52,22.52,22.52c31.52,0,31.52,24.02,63.05,24.02
	s31.52-24.02,63.05-24.02c31.52,0,31.52,24.02,63.05,24.02c31.52,0,31.52-24.02,63.04-24.02
	C352.04,460.87,352.04,484.89,383.56,484.89z"/>
<path d="M383.56,489.9c-17.45,0-26.54-6.92-34.55-13.03c-7.74-5.89-14.42-10.99-28.49-10.99s-20.75,5.09-28.49,10.99
	c-8.02,6.11-17.1,13.03-34.55,13.03c-17.45,0-26.54-6.92-34.56-13.03c-7.74-5.89-14.42-10.99-28.49-10.99
	c-14.07,0-20.76,5.09-28.49,10.99c-8.02,6.11-17.11,13.03-34.56,13.03s-26.54-6.92-34.56-13.03c-7.74-5.89-14.42-10.99-28.49-10.99
	c-15.17,0-27.52-12.35-27.52-27.52c0-15.17,12.35-27.52,27.52-27.52c17.45,0,26.54,6.92,34.55,13.03
	c7.74,5.89,14.42,10.98,28.49,10.98c14.07,0,20.75-5.09,28.49-10.99c8.02-6.11,17.1-13.03,34.56-13.03
	c17.45,0,26.54,6.92,34.56,13.03c7.74,5.89,14.42,10.99,28.49,10.99c14.07,0,20.76-5.09,28.49-10.99
	c8.02-6.11,17.11-13.03,34.56-13.03s26.54,6.92,34.56,13.03c7.74,5.89,14.42,10.99,28.49,10.99c15.17,0,27.52,12.35,27.52,27.52
	C411.08,477.55,398.74,489.9,383.56,489.9z M320.52,455.87c17.45,0,26.54,6.92,34.55,13.03c7.74,5.89,14.42,10.98,28.49,10.98
	c9.66,0,17.51-7.86,17.51-17.51c0-9.66-7.86-17.51-17.51-17.51c-17.45,0-26.54-6.92-34.56-13.03c-7.74-5.89-14.42-10.99-28.49-10.99
	c-14.07,0-20.75,5.09-28.49,10.99c-8.02,6.11-17.11,13.03-34.56,13.03c-17.45,0-26.54-6.92-34.56-13.03
	c-7.74-5.89-14.42-10.99-28.49-10.99c-14.07,0-20.75,5.09-28.49,10.99c-8.02,6.11-17.1,13.03-34.55,13.03
	c-17.45,0-26.54-6.92-34.55-13.03c-7.74-5.89-14.42-10.99-28.49-10.99c-9.66,0-17.51,7.86-17.51,17.51
	c0,9.66,7.86,17.51,17.51,17.51c17.45,0,26.54,6.92,34.56,13.03c7.74,5.89,14.42,10.99,28.49,10.99c14.07,0,20.76-5.09,28.49-10.99
	c8.02-6.11,17.11-13.03,34.56-13.03c17.45,0,26.54,6.92,34.56,13.03c7.74,5.89,14.42,10.99,28.49,10.99
	c14.07,0,20.75-5.09,28.49-10.99C293.98,462.79,303.07,455.87,320.52,455.87z"/>
</svg>
