<?xml version="1.0" encoding="utf-8"?>
<!-- Generator: Adobe Illustrator 25.3.1, SVG Export Plug-In . SVG Version: 6.00 Build 0)  -->
<svg version="1.1" id="Layer_1" xmlns="http://www.w3.org/2000/svg" xmlns:xlink="http://www.w3.org/1999/xlink" x="0px" y="0px"
	 viewBox="0 0 500 740" style="enable-background:new 0 0 500 740;" xml:space="preserve">
<style type="text/css">
	.st0{fill:#317C2D;}
	.st1{fill:#FFDA40;}
	.st2{fill:#FFFFFF;}
	.st3{opacity:0.2;}
</style>
<path class="st0" d="M50.09,528.34c0-36.81,22.24-73.11,49.67-73.11s49.67,36.31,49.67,73.11"/>
<path d="M154.43,528.34h-10.01c0-35.64-21.29-68.1-44.67-68.1s-44.67,32.46-44.67,68.1H45.08c0-36.95,22.46-78.12,54.68-78.12
	S154.43,491.39,154.43,528.34z"/>
<path class="st0" d="M106.14,528.34c0-22.63-22.59-40.98-50.45-40.98S5.25,505.71,5.25,528.34"/>
<path d="M111.15,528.34h-10.01c0-19.84-20.38-35.98-45.44-35.98s-45.44,16.14-45.44,35.98H0.24c0-25.36,24.88-45.99,55.45-45.99
	C86.27,482.35,111.15,502.98,111.15,528.34z"/>
<path class="st0" d="M86.25,561.21"/>
<path class="st0" d="M225.82,529.61v-41.98c-76.39-61.11-90.96-6.32-118.38,17.7c-27.42,24.02-67.73,24.28-67.73,24.28"/>
<path d="M39.73,534.62l-0.06-10.01c0.38,0,38.83-0.57,64.47-23.04c5.06-4.43,9.7-10.02,14.61-15.95
	c10.67-12.87,21.7-26.17,38.97-29.92c19.43-4.21,42.07,4.69,71.23,28.01l1.88,1.5v44.39h-10.01v-39.56
	c-25.36-19.92-45.32-27.95-60.97-24.56c-13.89,3.01-23.36,14.43-33.39,26.52c-4.94,5.96-10.06,12.13-15.72,17.09
	C82.24,534.06,41.45,534.61,39.73,534.62z"/>
<rect y="522.32" class="st0" width="212.28" height="21.69"/>
<path class="st1" d="M333.02,266.32c-0.38,0-0.76-0.02-1.14-0.06c-6.24-0.66-10.22-6.37-13.73-11.42c-1.87-2.69-4.44-6.38-6.04-6.87
	c-0.15-0.04-0.41-0.1-0.83-0.1c-2.11,0-5.31,1.21-8.4,2.37c-3.89,1.46-7.91,2.98-11.77,2.98c-2.1,0-4.01-0.46-5.66-1.35
	c-5.45-2.96-6.93-9.72-8.23-15.69c-0.71-3.24-1.68-7.68-3.02-8.8c-1.37-1.14-5.95-1.3-9.29-1.41c-6.07-0.2-12.95-0.43-16.82-5.21
	c-3.87-4.78-2.67-11.56-1.6-17.54c0.59-3.29,1.39-7.8,0.56-9.38c-0.81-1.54-4.96-3.41-7.98-4.78c-5.56-2.51-11.87-5.36-13.64-11.31
	c-1.74-5.85,1.96-11.62,5.21-16.71c1.82-2.84,4.31-6.73,4.14-8.57c-0.15-1.67-3.22-4.95-5.46-7.34c-4.2-4.48-8.97-9.56-8.31-15.81
	c0.66-6.24,6.37-10.22,11.42-13.73c2.69-1.87,6.37-4.44,6.87-6.04c0.54-1.76-1.08-6.08-2.27-9.24c-2.13-5.65-4.54-12.06-1.63-17.43
	c2.96-5.45,9.72-6.93,15.69-8.23c3.24-0.71,7.68-1.67,8.8-3.02c1.14-1.37,1.3-5.95,1.41-9.29c0.2-6.07,0.43-12.95,5.21-16.82
	c2.21-1.79,5.05-2.66,8.68-2.66c2.88,0,5.92,0.54,8.85,1.06c2.63,0.47,5.11,0.91,7.11,0.91c1.39,0,2.02-0.22,2.27-0.35
	c1.54-0.81,3.41-4.96,4.78-7.98c2.51-5.56,5.36-11.87,11.31-13.64c0.99-0.29,2.04-0.44,3.11-0.44c4.76,0,9.26,2.88,13.6,5.66
	c2.89,1.85,6.48,4.15,8.42,4.15c0.05,0,0.1,0,0.15-0.01c1.67-0.15,4.95-3.22,7.34-5.46c4.39-4.12,8.93-8.37,14.67-8.37
	c0.38,0,0.76,0.02,1.14,0.06c6.24,0.66,10.22,6.37,13.73,11.42c1.87,2.69,4.44,6.37,6.04,6.87c0.15,0.04,0.41,0.1,0.83,0.1
	c2.11,0,5.31-1.21,8.4-2.37c3.89-1.46,7.91-2.98,11.77-2.98c2.1,0,4.01,0.46,5.66,1.35c5.45,2.96,6.93,9.72,8.23,15.69
	c0.71,3.24,1.67,7.68,3.02,8.8c1.37,1.14,5.95,1.3,9.29,1.41c6.07,0.2,12.95,0.43,16.82,5.21c3.87,4.78,2.67,11.56,1.6,17.54
	c-0.59,3.29-1.39,7.8-0.56,9.38c0.81,1.54,4.96,3.41,7.98,4.78c5.56,2.51,11.87,5.36,13.64,11.31c1.74,5.85-1.96,11.62-5.21,16.71
	c-1.82,2.84-4.31,6.73-4.14,8.57c0.15,1.67,3.22,4.95,5.46,7.34c4.2,4.48,8.97,9.56,8.31,15.81s-6.37,10.22-11.42,13.73
	c-2.69,1.87-6.37,4.44-6.87,6.04c-0.54,1.76,1.08,6.08,2.27,9.24c2.13,5.65,4.54,12.06,1.63,17.43c-2.96,5.45-9.72,6.93-15.69,8.23
	c-3.24,0.71-7.68,1.67-8.8,3.01c-1.14,1.37-1.29,5.95-1.41,9.29c-0.2,6.07-0.43,12.95-5.21,16.82c-2.21,1.79-5.05,2.66-8.68,2.66
	c-2.88,0-5.92-0.54-8.85-1.06c-2.63-0.47-5.11-0.91-7.11-0.91c-1.39,0-2.02,0.22-2.27,0.35c-1.54,0.81-3.41,4.96-4.78,7.98
	c-2.51,5.56-5.36,11.87-11.31,13.64c-0.99,0.29-2.04,0.44-3.11,0.44c-4.77,0-9.26-2.88-13.6-5.66c-2.89-1.85-6.48-4.15-8.41-4.15
	c-0.05,0-0.1,0-0.15,0.01c-1.67,0.15-4.95,3.22-7.34,5.47C343.29,262.06,338.75,266.31,333.02,266.32z"/>
<path d="M356.78,23.4c0.21,0,0.41,0.01,0.62,0.03c7.48,0.79,11.9,15.95,18.82,18.09c0.72,0.22,1.5,0.32,2.31,0.32
	c6.02,0,14.26-5.35,20.17-5.35c1.2,0,2.3,0.22,3.27,0.75c6.52,3.54,4.8,19.25,10.43,23.94c5.67,4.73,20.8,0.2,25.43,5.92
	c4.63,5.72-2.94,19.57,0.5,26.1c3.42,6.48,19.14,8.06,21.25,15.18c2.07,6.99-10.22,16.87-9.54,24.3
	c0.66,7.21,14.57,14.69,13.78,22.17c-0.79,7.48-15.95,11.9-18.09,18.82c-2.21,7.13,7.76,19.35,4.28,25.75
	c-3.54,6.52-19.25,4.8-23.94,10.43c-4.73,5.67-0.2,20.8-5.92,25.43c-1.42,1.15-3.35,1.55-5.53,1.55c-4.88,0-11.08-1.97-15.96-1.97
	c-1.74,0-3.32,0.25-4.61,0.93c-6.48,3.42-8.06,19.14-15.18,21.25c-0.54,0.16-1.11,0.24-1.69,0.24c-6.63,0-15.25-9.81-22.01-9.81
	c-0.2,0-0.4,0.01-0.6,0.03c-7.01,0.64-14.28,13.82-21.55,13.82c-0.21,0-0.41-0.01-0.62-0.03c-7.48-0.79-11.9-15.95-18.82-18.09
	c-0.72-0.22-1.5-0.32-2.31-0.32c-6.02,0-14.26,5.35-20.17,5.35c-1.2,0-2.3-0.22-3.27-0.75c-6.52-3.54-4.8-19.25-10.43-23.94
	c-5.67-4.73-20.8-0.2-25.43-5.92c-4.63-5.72,2.94-19.57-0.5-26.1c-3.42-6.48-19.14-8.06-21.25-15.18
	c-2.07-6.99,10.22-16.87,9.54-24.3c-0.66-7.21-14.57-14.69-13.78-22.17c0.79-7.48,15.95-11.9,18.09-18.82
	c2.21-7.13-7.76-19.35-4.28-25.75c3.54-6.52,19.25-4.8,23.94-10.43c4.73-5.67,0.2-20.8,5.92-25.43c1.42-1.15,3.35-1.55,5.53-1.55
	c4.88,0,11.08,1.97,15.96,1.97c1.74,0,3.32-0.25,4.61-0.93c6.48-3.42,8.06-19.14,15.18-21.25c0.54-0.16,1.11-0.24,1.69-0.24
	c6.63,0,15.25,9.81,22.01,9.81c0.2,0,0.4-0.01,0.6-0.03C342.24,36.58,349.51,23.4,356.78,23.4 M356.78,13.39
	c-7.72,0-13.47,5.39-18.09,9.73c-1.34,1.25-3.23,3.03-4.45,3.88c-1.43-0.63-3.8-2.15-5.33-3.13c-4.72-3.02-10.07-6.45-16.3-6.45
	c-1.56,0-3.08,0.22-4.53,0.65c-8.14,2.42-11.64,10.16-14.45,16.38c-0.72,1.6-1.85,4.1-2.68,5.39c-1.56-0.03-3.84-0.44-6.04-0.83
	c-3.15-0.56-6.41-1.14-9.73-1.14c-4.76,0-8.74,1.27-11.83,3.78c-6.56,5.31-6.84,13.76-7.06,20.55c-0.06,1.78-0.15,4.56-0.43,6.08
	c-1.43,0.54-4.11,1.13-5.84,1.5c-6.67,1.45-14.97,3.26-19.02,10.73c-4.01,7.38-1.04,15.25,1.34,21.58c0.64,1.7,1.63,4.34,1.95,5.86
	c-1.08,1.01-3.22,2.5-4.72,3.55c-5.63,3.92-12.64,8.8-13.54,17.32c-0.9,8.52,4.95,14.75,9.64,19.76c1.25,1.34,3.03,3.23,3.88,4.45
	c-0.63,1.43-2.15,3.8-3.13,5.33c-3.65,5.69-8.18,12.78-5.8,20.83c2.42,8.14,10.16,11.64,16.38,14.45c1.61,0.73,4.11,1.85,5.4,2.68
	c-0.04,1.54-0.53,4.28-0.84,6.04c-1.19,6.69-2.67,15.01,2.64,21.57c5.31,6.56,13.76,6.84,20.55,7.06c1.78,0.06,4.56,0.15,6.08,0.43
	c0.54,1.43,1.13,4.11,1.5,5.84c1.45,6.67,3.26,14.97,10.73,19.02c2.39,1.3,5.1,1.96,8.05,1.96c4.77,0,9.42-1.75,13.53-3.3
	c1.8-0.68,4.36-1.64,5.86-1.95c1.01,1.08,2.5,3.22,3.55,4.72c3.92,5.63,8.8,12.64,17.32,13.54c0.55,0.06,1.11,0.09,1.66,0.09
	c7.72,0,13.47-5.39,18.09-9.73c1.34-1.25,3.23-3.03,4.45-3.88c1.43,0.63,3.8,2.15,5.33,3.13c4.72,3.02,10.07,6.45,16.3,6.45
	c1.56,0,3.08-0.22,4.53-0.65c8.14-2.42,11.64-10.16,14.45-16.38c0.72-1.6,1.85-4.1,2.68-5.39c1.56,0.03,3.84,0.44,6.04,0.83
	c3.15,0.56,6.41,1.14,9.73,1.14c4.76,0,8.74-1.27,11.83-3.78c6.56-5.31,6.84-13.76,7.06-20.55c0.06-1.78,0.15-4.56,0.43-6.08
	c1.43-0.54,4.11-1.13,5.84-1.5c6.67-1.45,14.97-3.26,19.02-10.73c4.01-7.38,1.04-15.25-1.34-21.58c-0.64-1.7-1.63-4.34-1.95-5.86
	c1.08-1.01,3.22-2.5,4.72-3.55c5.63-3.92,12.64-8.8,13.54-17.32c0.9-8.52-4.95-14.75-9.64-19.76c-1.25-1.34-3.03-3.23-3.88-4.45
	c0.63-1.43,2.15-3.8,3.13-5.33c3.65-5.69,8.18-12.78,5.8-20.83c-2.42-8.14-10.16-11.64-16.38-14.45c-1.61-0.73-4.11-1.85-5.4-2.68
	c0.04-1.54,0.53-4.28,0.84-6.04c1.19-6.69,2.67-15.01-2.64-21.57c-5.31-6.56-13.76-6.84-20.55-7.06c-1.78-0.06-4.56-0.15-6.08-0.43
	c-0.54-1.43-1.13-4.11-1.5-5.84c-1.45-6.67-3.26-14.97-10.73-19.02c-2.39-1.3-5.1-1.96-8.05-1.96c-4.77,0-9.42,1.75-13.53,3.3
	c-1.8,0.68-4.36,1.64-5.86,1.95c-1.01-1.08-2.5-3.22-3.55-4.72c-3.92-5.63-8.8-12.64-17.32-13.54
	C357.89,13.42,357.33,13.39,356.78,13.39L356.78,13.39z"/>
<path class="st2" d="M308.54,91.17l-14.2-1.93c-4.58-19.7-20.88-35.48-42.12-38.36c-8.62-1.17-17.03-0.07-24.62,2.83
	c-9.7-25.01-32.33-44.13-60.79-47.99c-41.69-5.66-80.07,23.54-85.73,65.23c-0.47,3.47-0.68,6.92-0.68,10.33
	c-37.36,5.01-68.3,34.39-73.61,73.55v0c-6.38,46.99,26.54,90.25,73.52,96.63l105.61,14.34l0,0l97.12,13.19
	c46.99,6.38,90.79-30.49,97.83-82.35l0,0C387.91,144.77,355.53,97.55,308.54,91.17z"/>
<path d="M293.71,284.71c-3.77,0-7.56-0.25-11.35-0.77L79.63,256.41c-24.05-3.27-45.39-15.7-60.08-35.02s-20.99-43.2-17.73-67.25
	c5.3-38.99,35.3-70.16,73.68-77.17c0.11-2.28,0.32-4.52,0.62-6.71c2.92-21.49,14.03-40.55,31.29-53.68S146-2.17,167.48,0.75
	c27.69,3.76,51.4,21.5,62.93,46.75c7.27-2.06,14.95-2.61,22.48-1.59c21.39,2.91,39.24,18.31,45.42,38.81l10.9,1.48
	c49.65,6.74,84.01,56.58,76.61,111.09c-3.57,26.32-16.24,49.82-35.67,66.17C333.66,277.37,313.95,284.71,293.71,284.71z
	 M156.51,10.02c-35.03,0-65.63,25.94-70.47,61.6c-0.42,3.1-0.63,6.34-0.64,9.65c0,2.51-1.86,4.63-4.34,4.96
	c-35.93,4.82-64.44,33.3-69.32,69.26c-2.91,21.4,2.7,42.65,15.77,59.84c13.08,17.19,32.06,28.25,53.46,31.16l202.73,27.53
	c21.3,2.89,42.61-3.57,59.99-18.2c17.53-14.75,28.96-36.01,32.2-59.86c6.66-49.04-23.86-93.83-68.04-99.82l0,0l-14.2-1.93
	c-2.06-0.28-3.73-1.8-4.2-3.83c-4.22-18.15-19.46-32.03-37.92-34.54c-7.49-1.02-15.15-0.14-22.16,2.54
	c-2.57,0.99-5.46-0.3-6.45-2.87c-9.38-24.18-31.14-41.36-56.8-44.84C162.91,10.24,159.69,10.02,156.51,10.02z"/>
<path class="st3" d="M156.63,118.64c-11.87,0-22.38-5.51-26.16-13.72l4.58-2.11c2.93,6.35,11.8,10.78,21.58,10.78
	c9.78,0,18.65-4.43,21.58-10.78l4.58,2.11C179.01,113.13,168.49,118.64,156.63,118.64z"/>
<path class="st3" d="M182.35,78.4c4.81,0,8.94,2.92,10.71,7.09c0.59-2.06,0.92-4.32,0.92-6.7c0-9.47-5.21-17.15-11.64-17.15
	c-6.43,0-11.64,7.68-11.64,17.15c0,2.38,0.33,4.64,0.92,6.7C173.41,81.33,177.54,78.4,182.35,78.4z"/>
<path class="st3" d="M133.35,78.4c4.81,0,8.94,2.92,10.71,7.09c0.59-2.06,0.92-4.32,0.92-6.7c0-9.47-5.21-17.15-11.64-17.15
	c-6.43,0-11.64,7.68-11.64,17.15c0,2.38,0.33,4.64,0.92,6.7C124.41,81.33,128.54,78.4,133.35,78.4z"/>
<path class="st2" d="M190.75,229.89l-6.2,1.45c-5.03-7.46-14.31-11.42-23.59-9.25c-3.77,0.88-7.09,2.67-9.78,5.09
	c-8-8.85-20.44-13.2-32.88-10.28c-18.22,4.27-29.53,22.5-25.25,40.72c0.36,1.52,0.82,2.98,1.36,4.4
	c-14.73,8.02-22.91,25.14-18.9,42.25l0,0c4.81,20.53,25.36,33.28,45.9,28.47l46.16-10.82l0,0l42.44-9.95
	c20.53-4.81,32.87-27.09,27.56-49.76l0,0C232.23,239.55,211.28,225.07,190.75,229.89z"/>
<path d="M112.59,338.77c-7.95,0-15.76-2.21-22.68-6.5c-9.81-6.08-16.66-15.62-19.29-26.85c-4.1-17.5,3.16-35.68,17.8-45.61
	c-0.09-0.35-0.18-0.69-0.26-1.04c-2.37-10.11-0.66-20.54,4.81-29.37c5.47-8.83,14.06-14.99,24.17-17.36
	c12.28-2.88,25.1,0.4,34.47,8.59c2.52-1.56,5.29-2.71,8.19-3.39c9.81-2.3,20.13,1.09,26.71,8.52l3.09-0.72
	c11.33-2.65,23.08-0.31,33.1,6.61c9.86,6.81,16.87,17.27,19.72,29.44c5.93,25.32-8.1,50.34-31.29,55.77l-88.6,20.77
	C119.23,338.38,115.9,338.77,112.59,338.77z M126.01,221.01c-2.19,0-4.39,0.25-6.58,0.76c-7.51,1.76-13.88,6.34-17.95,12.89
	c-4.07,6.55-5.33,14.3-3.57,21.81c0.29,1.23,0.68,2.49,1.16,3.75c0.9,2.34-0.08,4.98-2.28,6.18c-13.07,7.11-19.82,22.21-16.42,36.71
	c2.02,8.63,7.29,15.95,14.82,20.63c7.53,4.67,16.43,6.13,25.06,4.11l88.6-20.77c17.81-4.18,28.5-23.8,23.83-43.74
	c-2.29-9.75-7.85-18.09-15.66-23.49c-7.66-5.29-16.59-7.11-25.12-5.1l0,0l-6.2,1.45c-2.02,0.47-4.13-0.35-5.29-2.07
	c-4-5.92-11.35-8.8-18.3-7.17c-2.82,0.66-5.44,2.02-7.58,3.94c-2.05,1.84-5.2,1.67-7.05-0.37
	C141.9,224.4,134.07,221.01,126.01,221.01z"/>
<ellipse class="st3" cx="332.45" cy="725.42" rx="138.53" ry="14.58"/>
<path class="st2" d="M389.39,632.7c-8.05,0-12.36-5.94-19.3-16.43c-7.48-11.32-16.79-25.42-36.01-25.42s-28.52,14.09-36,25.42
	c-6.93,10.49-11.25,16.43-19.3,16.43s-12.36-5.94-19.3-16.43c-7.48-11.32-16.79-25.42-36-25.42c-19.21,0-28.52,14.09-36.01,25.42
	c-3.49,5.28-6.31,9.4-9.28,12.2l0-20.23V337.37c0-85.96,69.93-155.89,155.89-155.89c85.96,0,155.89,69.93,155.89,155.89l0,291.09
	c-2.97-2.8-5.8-6.92-9.29-12.2c-7.48-11.32-16.8-25.42-36.01-25.42c-19.21,0-28.52,14.09-36,25.42
	C401.75,626.76,397.44,632.7,389.39,632.7z"/>
<path d="M334.09,191.49c38.97,0,75.6,15.17,103.15,42.73c27.55,27.55,42.73,64.19,42.73,103.15v260.85
	c-7.71-9.07-18.56-17.39-35.28-17.39c-24.6,0-36.49,18-44.36,29.91c-2.84,4.3-5.53,8.37-7.99,10.6c-1.47,1.34-2.06,1.34-2.96,1.34
	c-0.89,0-1.48,0-2.96-1.34c-2.46-2.23-5.15-6.3-7.99-10.6c-7.87-11.91-19.76-29.91-44.36-29.91c-24.6,0-36.49,18-44.36,29.91
	c-2.84,4.3-5.53,8.37-7.99,10.6c-1.47,1.34-2.06,1.34-2.96,1.34c-0.89,0-1.48,0-2.95-1.34c-2.46-2.23-5.15-6.3-7.99-10.6
	c-7.87-11.91-19.76-29.91-44.36-29.91c-16.72,0-27.57,8.31-35.27,17.38V337.37c0-38.97,15.17-75.6,42.73-103.15
	C258.49,206.67,295.13,191.49,334.09,191.49 M334.09,171.47c-91.63,0-165.91,74.28-165.91,165.91v270.86l-0.01,34.48
	c27.65,0,27.65-41.85,55.3-41.85c27.65,0,27.65,41.85,55.3,41.85c27.65,0,27.65-41.85,55.3-41.85c27.65,0,27.65,41.85,55.3,41.85
	c27.65,0,27.65-41.85,55.3-41.85c27.65,0,27.65,41.85,55.31,41.85l0-34.48V337.37C500,245.75,425.72,171.47,334.09,171.47
	L334.09,171.47z"/>
<path d="M392.95,363.99c-11.77,0-22.2-5.47-25.95-13.6c-0.58-1.26-0.03-2.74,1.23-3.32c1.26-0.58,2.74-0.03,3.32,1.22
	c2.9,6.3,11.71,10.7,21.4,10.7s18.5-4.4,21.4-10.7c0.58-1.26,2.07-1.8,3.32-1.22c1.26,0.58,1.8,2.07,1.23,3.32
	C415.14,358.53,404.72,363.99,392.95,363.99z"/>
<ellipse cx="367.15" cy="308.97" rx="12.54" ry="18.01"/>
<path d="M418.75,290.96c-6.92,0-12.54,8.08-12.54,18.01s5.63,18.01,12.54,18.01c6.92,0,12.54-8.08,12.54-18.01
	S425.66,290.96,418.75,290.96z"/>
<path class="st2" d="M361.83,301.89c-0.1-0.88,0.08-1.72,0.39-2.51c0.32-0.78,0.81-1.52,1.45-2.12c0.63-0.6,1.42-1.08,2.29-1.31
	c0.86-0.22,1.81-0.21,2.59,0.21c-0.78,0.42-1.39,0.8-1.95,1.22c-0.56,0.41-1.06,0.85-1.56,1.32c-0.5,0.47-0.99,0.97-1.5,1.51
	C363.02,300.75,362.5,301.32,361.83,301.89z"/>
<path class="st2" d="M412.55,301.89c-0.1-0.88,0.08-1.72,0.39-2.51c0.32-0.78,0.81-1.52,1.45-2.12c0.63-0.6,1.42-1.08,2.29-1.31
	c0.86-0.22,1.81-0.21,2.59,0.21c-0.78,0.42-1.39,0.8-1.95,1.22c-0.56,0.41-1.06,0.85-1.56,1.32c-0.5,0.47-0.99,0.97-1.5,1.51
	C413.74,300.75,413.22,301.32,412.55,301.89z"/>
</svg>
