<?xml version="1.0" encoding="utf-8"?>
<!-- Generator: Adobe Illustrator 25.3.1, SVG Export Plug-In . SVG Version: 6.00 Build 0)  -->
<svg version="1.1" id="Layer_1" xmlns="http://www.w3.org/2000/svg" xmlns:xlink="http://www.w3.org/1999/xlink" x="0px" y="0px"
	 viewBox="0 0 500 740" style="enable-background:new 0 0 500 740;" xml:space="preserve">
<style type="text/css">
	.st0{fill:#317C2D;}
	.st1{fill:#64E2FF;}
	.st2{opacity:0.2;}
	.st3{fill:#FFFFFF;}
	.st4{fill:#E51336;}
</style>
<path class="st0" d="M50.09,528.34c0-36.81,22.24-73.11,49.67-73.11s49.67,36.31,49.67,73.11"/>
<path d="M154.43,528.34h-10.01c0-35.64-21.29-68.1-44.67-68.1s-44.67,32.46-44.67,68.1H45.08c0-36.95,22.46-78.12,54.68-78.12
	S154.43,491.4,154.43,528.34z"/>
<path class="st0" d="M106.14,528.34c0-22.63-22.59-40.98-50.45-40.98S5.25,505.71,5.25,528.34"/>
<path d="M111.15,528.34h-10.01c0-19.84-20.38-35.98-45.44-35.98s-45.44,16.14-45.44,35.98H0.24c0-25.36,24.88-45.99,55.45-45.99
	S111.15,502.98,111.15,528.34z"/>
<path class="st0" d="M225.82,529.61v-41.98c-76.39-61.11-90.96-6.32-118.38,17.7S39.7,529.61,39.7,529.61"/>
<path d="M39.73,534.62l-0.06-10.01c0.38,0,38.83-0.57,64.47-23.04c5.06-4.43,9.7-10.02,14.61-15.95
	c10.67-12.87,21.7-26.17,38.97-29.91c19.43-4.22,42.07,4.68,71.23,28.01l1.88,1.5v44.39h-10.01v-39.56
	c-25.36-19.92-45.32-27.95-60.97-24.56c-13.89,3.01-23.36,14.43-33.39,26.52c-4.94,5.96-10.06,12.13-15.72,17.09
	C82.24,534.07,41.45,534.61,39.73,534.62z"/>
<rect y="522.32" class="st0" width="212.28" height="21.69"/>
<path class="st1" d="M361.83,155.47l10.01,32c1.73,5.53-1.35,11.41-6.88,13.14c-5.53,1.73-11.41-1.35-13.14-6.88
	c-0.66-2.12-0.62-4.29,0-6.26L361.83,155.47z"/>
<path class="st1" d="M271.4,1.13l10.01,32c1.73,5.53-1.35,11.41-6.88,13.14c-5.53,1.73-11.41-1.35-13.14-6.88
	c-0.66-2.12-0.62-4.29,0-6.26L271.4,1.13z"/>
<path class="st1" d="M99.76,184.15l10.01,32c1.73,5.53-1.35,11.41-6.88,13.14c-5.53,1.73-11.41-1.35-13.14-6.88
	c-0.66-2.12-0.62-4.29,0-6.26L99.76,184.15z"/>
<ellipse class="st2" cx="332.45" cy="725.42" rx="138.53" ry="14.58"/>
<path class="st3" d="M389.39,632.7c-8.05,0-12.36-5.94-19.3-16.43c-7.48-11.32-16.79-25.42-36.01-25.42
	c-19.21,0-28.52,14.09-36,25.42c-6.93,10.5-11.25,16.43-19.3,16.43s-12.36-5.94-19.3-16.43c-7.48-11.33-16.79-25.42-36-25.42
	s-28.52,14.09-36,25.42c-3.49,5.28-6.31,9.4-9.28,12.2l0-20.23V337.37c0-85.96,69.93-155.89,155.89-155.89
	c85.96,0,155.89,69.93,155.89,155.89l0,291.09c-2.97-2.8-5.8-6.92-9.29-12.2c-7.48-11.32-16.8-25.42-36.01-25.42
	c-19.21,0-28.52,14.09-36,25.42C401.75,626.76,397.44,632.7,389.39,632.7z"/>
<path d="M334.09,191.49c38.97,0,75.6,15.17,103.15,42.73c27.55,27.55,42.73,64.19,42.73,103.15v260.85
	c-7.71-9.07-18.56-17.39-35.28-17.39c-24.6,0-36.49,18-44.36,29.91c-2.84,4.3-5.53,8.37-7.99,10.6c-1.47,1.34-2.06,1.34-2.96,1.34
	c-0.89,0-1.48,0-2.96-1.34c-2.46-2.23-5.15-6.3-7.99-10.6c-7.87-11.91-19.76-29.91-44.36-29.91c-24.6,0-36.49,18-44.36,29.91
	c-2.84,4.3-5.53,8.37-7.99,10.6c-1.47,1.34-2.06,1.34-2.96,1.34c-0.89,0-1.48,0-2.95-1.34c-2.46-2.23-5.15-6.3-7.99-10.6
	c-7.87-11.91-19.76-29.91-44.36-29.91c-16.72,0-27.57,8.31-35.27,17.38V337.37c0-38.97,15.17-75.6,42.73-103.15
	C258.49,206.67,295.13,191.49,334.09,191.49 M334.09,171.47c-91.63,0-165.91,74.28-165.91,165.91v270.86l-0.01,34.48
	c27.65,0,27.65-41.85,55.3-41.85c27.65,0,27.65,41.85,55.3,41.85c27.65,0,27.65-41.85,55.3-41.85c27.65,0,27.65,41.85,55.3,41.85
	c27.65,0,27.65-41.85,55.3-41.85c27.65,0,27.65,41.85,55.31,41.85l0-34.48V337.37C500,245.75,425.72,171.47,334.09,171.47
	L334.09,171.47z"/>
<path d="M392.95,363.99c-11.77,0-22.2-5.47-25.95-13.6c-0.58-1.26-0.03-2.74,1.23-3.32c1.26-0.58,2.74-0.03,3.32,1.22
	c2.9,6.3,11.71,10.7,21.4,10.7s18.5-4.4,21.4-10.7c0.58-1.26,2.07-1.81,3.32-1.22c1.26,0.58,1.8,2.07,1.23,3.32
	C415.14,358.53,404.72,363.99,392.95,363.99z"/>
<ellipse cx="367.15" cy="308.97" rx="12.54" ry="18.01"/>
<path d="M418.75,290.96c-6.92,0-12.54,8.08-12.54,18.01s5.63,18.01,12.54,18.01c6.92,0,12.54-8.08,12.54-18.01
	S425.66,290.96,418.75,290.96z"/>
<path class="st3" d="M361.83,301.89c-0.1-0.88,0.08-1.72,0.39-2.51c0.32-0.78,0.81-1.52,1.45-2.12c0.63-0.6,1.42-1.08,2.29-1.31
	c0.86-0.22,1.81-0.21,2.59,0.21c-0.78,0.42-1.39,0.8-1.95,1.22c-0.56,0.41-1.06,0.85-1.56,1.32c-0.5,0.47-0.99,0.97-1.5,1.51
	C363.02,300.75,362.5,301.32,361.83,301.89z"/>
<path class="st3" d="M412.55,301.89c-0.1-0.88,0.08-1.72,0.39-2.51c0.32-0.78,0.81-1.52,1.45-2.12c0.63-0.6,1.42-1.08,2.29-1.31
	c0.86-0.22,1.81-0.21,2.59,0.21c-0.78,0.42-1.39,0.8-1.95,1.22c-0.56,0.41-1.06,0.85-1.56,1.32c-0.5,0.47-0.99,0.97-1.5,1.51
	C413.74,300.75,413.22,301.32,412.55,301.89z"/>
<path d="M266.84,391.47c-5.33,0-10.58-1.42-15.29-4.2c-6.95-4.1-11.88-10.65-13.89-18.45c-1.04-4.02,1.38-8.11,5.4-9.15
	c4.01-1.04,8.11,1.38,9.15,5.4c1.01,3.91,3.49,7.2,6.98,9.26c3.49,2.06,7.57,2.64,11.48,1.63c8.09-2.09,12.98-10.37,10.89-18.47
	l-49.93-204.67c-0.98-4.03,1.49-8.09,5.52-9.07c4.03-0.98,8.09,1.49,9.07,5.52l49.9,204.58c4.13,16.02-5.59,32.51-21.71,36.66
	C271.9,391.15,269.36,391.47,266.84,391.47z"/>
<polygon points="219.94,38.24 200.95,43.14 199.95,0 "/>
<path class="st4" d="M374.86,115.97c25.03-6.46,48-1.27,51.32,11.58C406.15,49.92,308.77,7.93,208.66,33.75
	s-165.03,109.7-145,187.32c-3.32-12.85,14.28-28.51,39.31-34.97s48-1.27,51.32,11.58c-3.32-12.85,14.28-28.51,39.31-34.97
	s48-1.27,51.32,11.58c-3.32-12.85,14.28-28.51,39.31-34.97s48-1.27,51.32,11.58C332.23,138.08,349.84,122.42,374.86,115.97z"/>
<path d="M58.81,222.33c-10.08-39.08-0.02-80.77,28.34-117.4c28.06-36.25,70.77-63.25,120.26-76.02
	c49.49-12.77,99.92-9.8,142.03,8.35c42.54,18.34,71.52,49.96,81.6,89.04c0,0,0,0,0,0l-9.7,2.5c-1.1-4.25-6.12-7.67-13.77-9.4
	c-8.93-2.02-20.1-1.51-31.45,1.41c-11.35,2.93-21.37,7.89-28.21,13.98c-5.87,5.22-8.6,10.64-7.51,14.89l-9.7,2.5
	c-2.25-8.72-21.37-14.14-45.22-7.99c-11.35,2.93-21.37,7.89-28.21,13.98c-5.87,5.22-8.6,10.64-7.51,14.89l-9.69,2.5
	c-1.1-4.25-6.12-7.67-13.77-9.4c-8.93-2.02-20.1-1.51-31.45,1.41c-11.35,2.93-21.37,7.89-28.21,13.98
	c-5.87,5.22-8.6,10.64-7.51,14.89l-9.69,2.5c-2.25-8.72-21.37-14.14-45.22-7.99c-23.83,6.15-37.94,20.13-35.72,28.85
	c0,0,0,0.02,0,0.02c0,0,0,0,0,0L58.81,222.33z M267.93,31.11c-19.07,0-38.61,2.49-58.02,7.49
	c-89.38,23.06-150.19,93.56-144.5,162.91c7.51-8.62,20.43-16.15,36.31-20.24c20.2-5.21,38.9-3.24,49.35,4.12
	c1.85-3.86,4.84-7.68,8.93-11.31c8.01-7.12,19.5-12.87,32.36-16.19c12.86-3.32,25.7-3.85,36.15-1.49c5.3,1.2,9.75,3.08,13.22,5.54
	c1.85-3.84,4.84-7.64,8.89-11.25c8.01-7.12,19.5-12.87,32.36-16.19c20.2-5.21,38.9-3.24,49.35,4.12c1.85-3.86,4.84-7.68,8.92-11.31
	c8.01-7.12,19.5-12.87,32.36-16.19l0,0c12.86-3.32,25.7-3.85,36.15-1.49c1.91,0.43,3.71,0.95,5.39,1.55
	c-12.56-27.91-36.74-50.53-69.69-64.73C321.82,36.26,295.37,31.11,267.93,31.11z"/>
<path d="M151.95,188.63c-1.4-3.33-2.41-6.8-3.29-10.31c-0.88-3.51-1.56-7.07-2.07-10.67c-1.06-7.19-1.39-14.49-1.17-21.79
	c0.23-7.3,1.09-14.6,2.52-21.81c1.43-7.21,3.56-14.27,6.17-21.15l1.01-2.57c0.33-0.86,0.68-1.71,1.07-2.54l2.28-5.03
	c0.82-1.65,1.7-3.26,2.55-4.89c0.83-1.64,1.75-3.23,2.72-4.79c3.7-6.35,8.06-12.28,12.75-17.87c9.52-11.08,20.66-20.63,33.11-27.85
	c-9.84,10.49-18.98,21.18-26.85,32.63c-1.04,1.39-1.9,2.9-2.86,4.35l-1.42,2.18l-0.71,1.08l-0.65,1.12
	c-0.87,1.49-1.73,2.99-2.63,4.47c-0.9,1.47-1.64,3.03-2.47,4.54c-3.24,6.08-6.15,12.32-8.56,18.76l-0.95,2.4l-0.84,2.44
	c-0.54,1.63-1.17,3.24-1.63,4.89c-0.5,1.64-1.03,3.28-1.51,4.93c-0.44,1.66-0.87,3.33-1.34,4.99c-1.68,6.68-2.99,13.48-3.94,20.36
	c-0.94,6.88-1.55,13.84-1.76,20.86C151.26,174.4,151.34,181.47,151.95,188.63z"/>
<path d="M209.59,37.38c14.38,0.31,28.75,3.28,42.44,8.37c6.81,2.63,13.5,5.69,19.8,9.46l2.38,1.38c0.79,0.47,1.54,1,2.31,1.5
	c1.53,1.02,3.08,2.01,4.59,3.05l4.43,3.29c1.5,1.07,2.86,2.31,4.3,3.46l2.11,1.77l2.03,1.87c1.33,1.26,2.75,2.45,4.01,3.79
	c1.28,1.32,2.57,2.63,3.83,3.96c1.22,1.37,2.46,2.73,3.66,4.12c4.73,5.61,9.03,11.58,12.76,17.87c3.72,6.29,6.96,12.84,9.51,19.64
	c1.29,3.39,2.41,6.84,3.34,10.34c0.93,3.49,1.72,7.03,2.11,10.62c-2.94-6.56-6.29-12.78-9.88-18.83
	c-3.58-6.04-7.48-11.84-11.63-17.41c-4.17-5.56-8.58-10.88-13.29-15.91c-1.21-1.23-2.39-2.48-3.58-3.72
	c-1.22-1.21-2.48-2.39-3.71-3.59c-1.2-1.23-2.53-2.33-3.79-3.49l-1.92-1.73l-1.99-1.64c-5.22-4.47-10.79-8.53-16.56-12.28
	c-1.45-0.92-2.86-1.93-4.36-2.78c-1.5-0.86-2.97-1.76-4.46-2.64c-1.46-0.93-3.04-1.64-4.55-2.49c-1.53-0.8-3.02-1.71-4.6-2.42
	C236.46,46.71,223.28,41.78,209.59,37.38z"/>
<path d="M242.58,165.25c-4.92-10.68-8.82-21.62-12.47-32.63c-3.6-11.02-6.82-22.14-9.72-33.34c-2.9-11.2-5.46-22.49-7.64-33.88
	c-2.13-11.4-4.01-22.87-4.86-34.6c4.93,10.68,8.84,21.62,12.48,32.63c3.6,11.02,6.82,22.14,9.71,33.34
	c2.89,11.21,5.44,22.49,7.62,33.88C239.84,142.06,241.72,153.52,242.58,165.25z"/>
<path class="st1" d="M50.09,21.38l10.01,32c1.73,5.53-1.35,11.41-6.88,13.14s-11.41-1.35-13.14-6.88c-0.66-2.12-0.62-4.29,0-6.26
	L50.09,21.38z"/>
<path class="st1" d="M369.27,52.57l10.01,32c1.73,5.53-1.35,11.41-6.88,13.14c-5.53,1.73-11.41-1.35-13.14-6.88
	c-0.66-2.12-0.62-4.29,0-6.26L369.27,52.57z"/>
<path class="st1" d="M132.76,237.24l6.01,16c1.25,3.32-0.43,7.02-3.75,8.26c-3.32,1.25-7.02-0.43-8.26-3.75
	c-0.57-1.51-0.52-3.11,0-4.51L132.76,237.24z"/>
<path class="st1" d="M60.03,479.36l6.01,16c1.25,3.32-0.43,7.02-3.75,8.26c-3.32,1.25-7.02-0.43-8.26-3.75
	c-0.57-1.51-0.52-3.11,0-4.51L60.03,479.36z"/>
<path class="st1" d="M99.76,564.69l8.01,23.29c1.52,4.42-0.83,9.24-5.26,10.76c-4.42,1.52-9.24-0.83-10.76-5.26
	c-0.64-1.86-0.59-3.79,0-5.51L99.76,564.69z"/>
<path class="st1" d="M30.18,293.53l10.01,32c1.73,5.53-1.35,11.41-6.88,13.14c-5.53,1.73-11.41-1.35-13.14-6.88
	c-0.66-2.12-0.62-4.29,0-6.26L30.18,293.53z"/>
<path class="st1" d="M116.06,367.71l10.01,32c1.73,5.53-1.35,11.41-6.88,13.14c-5.53,1.73-11.41-1.35-13.14-6.88
	c-0.66-2.12-0.62-4.29,0-6.26L116.06,367.71z"/>
<path class="st1" d="M168.18,68.58l10.01,32c1.73,5.53-1.35,11.41-6.88,13.14c-5.53,1.73-11.41-1.35-13.14-6.88
	c-0.66-2.12-0.62-4.29,0-6.26L168.18,68.58z"/>
<path class="st1" d="M289.54,107.61l7.01,22.05c1.23,3.87-0.91,8.01-4.78,9.24c-3.87,1.23-8.01-0.91-9.24-4.78
	c-0.48-1.51-0.45-3.05,0-4.46L289.54,107.61z"/>
<path class="st1" d="M443.29,188.39l10.01,32c1.73,5.53-1.35,11.41-6.88,13.14c-5.53,1.73-11.41-1.35-13.14-6.88
	c-0.66-2.12-0.62-4.29,0-6.26L443.29,188.39z"/>
</svg>
