<?xml version="1.0" encoding="utf-8"?>
<!-- Generator: Adobe Illustrator 25.3.1, SVG Export Plug-In . SVG Version: 6.00 Build 0)  -->
<svg version="1.1" id="Layer_1" xmlns="http://www.w3.org/2000/svg" xmlns:xlink="http://www.w3.org/1999/xlink" x="0px" y="0px"
	 viewBox="0 0 500 740" style="enable-background:new 0 0 500 740;" xml:space="preserve">
<style type="text/css">
	.st0{fill:#317C2D;}
	.st1{fill:#FFFFFF;}
	.st2{opacity:0.2;}
	.st3{fill:#782ADD;}
	.st4{fill:#E88C38;}
</style>
<path class="st0" d="M50.09,528.34c0-36.81,22.24-73.11,49.67-73.11s49.67,36.31,49.67,73.11"/>
<path d="M154.43,528.34h-10.01c0-35.64-21.29-68.1-44.67-68.1s-44.67,32.46-44.67,68.1H45.08c0-36.95,22.46-78.12,54.68-78.12
	S154.43,491.39,154.43,528.34z"/>
<path class="st0" d="M106.14,528.34c0-22.63-22.59-40.98-50.45-40.98S5.25,505.71,5.25,528.34"/>
<path d="M111.15,528.34h-10.01c0-19.84-20.38-35.98-45.44-35.98s-45.44,16.14-45.44,35.98H0.24c0-25.36,24.88-45.99,55.45-45.99
	C86.27,482.35,111.15,502.98,111.15,528.34z"/>
<path class="st0" d="M225.82,529.61v-41.98c-76.39-61.11-90.96-6.32-118.38,17.7S39.7,529.61,39.7,529.61"/>
<path d="M39.73,534.62l-0.06-10.01c0.38,0,38.83-0.57,64.47-23.04c5.06-4.43,9.7-10.02,14.61-15.95
	c10.67-12.87,21.7-26.17,38.97-29.91c19.43-4.22,42.07,4.68,71.23,28.01l1.88,1.5v44.39h-10.01v-39.56
	c-25.36-19.92-45.32-27.95-60.97-24.56c-13.89,3.01-23.36,14.43-33.39,26.52c-4.94,5.96-10.06,12.13-15.72,17.09
	C82.24,534.06,41.45,534.61,39.73,534.62z"/>
<rect y="522.32" class="st0" width="212.28" height="21.69"/>
<path class="st1" d="M313.32,19.24l-4.49-2.13l4.09-2.83c2.15-1.49,2.69-4.45,1.2-6.6c-0.96-1.39-2.6-2.17-4.29-2.03
	c-0.83,0.07-1.63,0.35-2.31,0.83l-4.09,2.83l-0.4-4.95c-0.21-2.61-2.5-4.55-5.11-4.34c-2.61,0.21-4.55,2.5-4.34,5.11l0.4,4.95
	l-4.49-2.13c-0.75-0.36-1.58-0.51-2.41-0.44c-1.68,0.14-3.18,1.17-3.9,2.7c-1.12,2.36-0.11,5.19,2.26,6.31l4.49,2.13l-4.09,2.83
	c-2.15,1.49-2.69,4.45-1.2,6.6c0.96,1.39,2.6,2.17,4.29,2.03c0.83-0.07,1.63-0.35,2.31-0.83l4.09-2.83l0.4,4.95
	c0.21,2.61,2.5,4.55,5.11,4.34c2.61-0.21,4.55-2.5,4.34-5.11l-0.4-4.95l4.49,2.13c0.75,0.36,1.58,0.51,2.41,0.44
	c1.68-0.14,3.18-1.17,3.9-2.7C316.69,23.19,315.68,20.36,313.32,19.24z M313.19,24.42c-0.33,0.71-1.01,1.14-1.73,1.2
	c-0.36,0.03-0.72-0.03-1.07-0.2l-8.62-4.08l0.77,9.5c0.09,1.16-0.77,2.18-1.93,2.27c-1.16,0.09-2.18-0.77-2.27-1.93l-0.77-9.5
	l-7.84,5.42c-0.32,0.22-0.67,0.34-1.02,0.37c-0.73,0.06-1.46-0.26-1.91-0.9c-0.66-0.96-0.42-2.27,0.53-2.93l7.84-5.42l-8.62-4.08
	c-1.05-0.5-1.5-1.75-1-2.81c0.5-1.05,1.75-1.5,2.81-1l8.61,4.08l-0.77-9.5c-0.09-1.16,0.77-2.18,1.93-2.27
	c1.16-0.09,2.18,0.77,2.27,1.93l0.77,9.5l7.84-5.42c0.96-0.66,2.27-0.42,2.93,0.53c0.66,0.96,0.42,2.27-0.53,2.93l-7.84,5.42
	l8.62,4.08C313.24,22.12,313.69,23.37,313.19,24.42z"/>
<path class="st1" d="M177.31,353.68l-4.56,1.66l0.84-4.78c0.44-2.51-1.24-4.92-3.75-5.36c-1.62-0.29-3.29,0.32-4.35,1.58
	c-0.52,0.62-0.87,1.37-1.01,2.17l-0.84,4.78l-3.72-3.12c-1.95-1.64-4.88-1.38-6.52,0.57s-1.38,4.88,0.57,6.52l3.72,3.12l-4.56,1.66
	c-0.76,0.28-1.44,0.75-1.96,1.37c-1.06,1.26-1.37,3.01-0.8,4.56c0.87,2.4,3.53,3.64,5.93,2.76l4.56-1.66l-0.84,4.78
	c-0.44,2.51,1.24,4.92,3.75,5.36c1.62,0.29,3.29-0.32,4.35-1.58c0.52-0.62,0.87-1.37,1.01-2.17l0.84-4.77l3.72,3.12
	c1.95,1.64,4.88,1.38,6.52-0.57s1.38-4.88-0.57-6.52l-3.72-3.12l4.56-1.66c0.76-0.28,1.44-0.75,1.96-1.37
	c1.06-1.26,1.37-3.01,0.8-4.56C182.37,354.05,179.71,352.81,177.31,353.68z M180.82,357.33c0.26,0.72,0.1,1.48-0.36,2.03
	c-0.22,0.27-0.52,0.48-0.87,0.61l-8.74,3.18l7.13,5.98c0.87,0.73,0.98,2.03,0.25,2.9c-0.73,0.87-2.03,0.98-2.9,0.25l-7.13-5.98
	l-1.61,9.16c-0.06,0.37-0.22,0.7-0.45,0.96c-0.46,0.54-1.18,0.84-1.93,0.71c-1.12-0.2-1.87-1.26-1.67-2.38l1.61-9.16l-8.74,3.18
	c-1.07,0.39-2.25-0.16-2.64-1.23c-0.39-1.07,0.16-2.25,1.23-2.64l8.74-3.18l-7.13-5.98c-0.87-0.73-0.98-2.03-0.25-2.9
	s2.03-0.98,2.9-0.25l7.13,5.98l1.61-9.16c0.2-1.12,1.26-1.87,2.38-1.67c1.12,0.2,1.87,1.26,1.67,2.38l-1.61,9.16l8.74-3.18
	C179.26,355.71,180.44,356.26,180.82,357.33z"/>
<ellipse class="st2" cx="334.09" cy="725.42" rx="138.53" ry="14.58"/>
<path class="st1" d="M389.39,632.7c-8.05,0-12.36-5.94-19.3-16.43c-7.48-11.33-16.79-25.42-36.01-25.42s-28.52,14.09-36,25.42
	c-6.93,10.5-11.25,16.43-19.3,16.43s-12.36-5.94-19.3-16.43c-7.48-11.33-16.79-25.42-36-25.42c-19.21,0-28.52,14.09-36.01,25.42
	c-3.49,5.28-6.31,9.4-9.28,12.2l0-20.23V337.37c0-85.96,69.93-155.89,155.89-155.89c85.96,0,155.89,69.93,155.89,155.89l0,291.09
	c-2.97-2.8-5.8-6.92-9.29-12.21c-7.48-11.32-16.8-25.42-36.01-25.42c-19.21,0-28.52,14.09-36,25.42
	C401.75,626.76,397.44,632.7,389.39,632.7z"/>
<path d="M334.09,191.49c38.97,0,75.6,15.17,103.15,42.73c27.55,27.55,42.73,64.19,42.73,103.15v260.85
	c-7.71-9.07-18.56-17.39-35.28-17.39c-24.6,0-36.49,18-44.36,29.91c-2.84,4.3-5.53,8.37-7.99,10.6c-1.47,1.34-2.06,1.34-2.96,1.34
	c-0.89,0-1.48,0-2.96-1.34c-2.46-2.23-5.15-6.3-7.99-10.6c-7.87-11.91-19.76-29.91-44.36-29.91c-24.6,0-36.49,18-44.36,29.91
	c-2.84,4.3-5.53,8.37-7.99,10.6c-1.47,1.34-2.06,1.34-2.96,1.34c-0.89,0-1.48,0-2.95-1.34c-2.46-2.23-5.15-6.3-7.99-10.6
	c-7.87-11.91-19.76-29.91-44.36-29.91c-16.72,0-27.57,8.31-35.27,17.38V337.37c0-38.97,15.17-75.6,42.73-103.15
	C258.49,206.67,295.13,191.49,334.09,191.49 M334.09,171.47c-91.63,0-165.91,74.28-165.91,165.9v270.86l-0.01,34.48
	c27.65,0,27.65-41.85,55.3-41.85c27.65,0,27.65,41.85,55.3,41.85c27.65,0,27.65-41.85,55.3-41.85c27.65,0,27.65,41.85,55.3,41.85
	c27.65,0,27.65-41.85,55.3-41.85c27.65,0,27.65,41.85,55.31,41.85l0-34.48V337.37C500,245.75,425.72,171.47,334.09,171.47
	L334.09,171.47z"/>
<path d="M392.95,363.99c-11.77,0-22.2-5.47-25.95-13.6c-0.58-1.26-0.03-2.74,1.23-3.32c1.26-0.58,2.74-0.03,3.32,1.22
	c2.9,6.3,11.71,10.7,21.4,10.7s18.5-4.4,21.4-10.7c0.58-1.26,2.07-1.8,3.32-1.22c1.26,0.58,1.8,2.07,1.23,3.32
	C415.14,358.53,404.72,363.99,392.95,363.99z"/>
<ellipse cx="367.15" cy="308.97" rx="12.54" ry="18.01"/>
<path d="M418.75,290.96c-6.92,0-12.54,8.08-12.54,18.01s5.63,18.01,12.54,18.01c6.92,0,12.54-8.08,12.54-18.01
	S425.66,290.96,418.75,290.96z"/>
<path class="st1" d="M361.83,301.89c-0.1-0.88,0.08-1.72,0.39-2.51c0.32-0.78,0.81-1.52,1.45-2.12c0.63-0.6,1.42-1.08,2.29-1.31
	c0.86-0.22,1.81-0.21,2.59,0.21c-0.78,0.42-1.39,0.8-1.95,1.22c-0.56,0.41-1.06,0.85-1.56,1.32c-0.5,0.47-0.99,0.97-1.5,1.51
	C363.02,300.75,362.5,301.32,361.83,301.89z"/>
<path class="st1" d="M412.55,301.89c-0.1-0.88,0.08-1.72,0.39-2.51c0.32-0.78,0.81-1.52,1.45-2.12c0.63-0.6,1.42-1.08,2.29-1.31
	c0.86-0.22,1.81-0.21,2.59,0.21c-0.78,0.42-1.39,0.8-1.95,1.22c-0.56,0.41-1.06,0.85-1.56,1.32c-0.5,0.47-0.99,0.97-1.5,1.51
	C413.74,300.75,413.22,301.32,412.55,301.89z"/>
<path d="M302.49,44.19c-2.98-15.63-18.11-26.45-33.06-23.6c-14.94,2.84-25.07,18.45-22.1,34.09c1.39,7.32,5.64,14.1,11.66,18.59
	c4.96,3.7,10.67,5.63,16.49,5.63c1.64,0,3.3-0.15,4.94-0.47c7.46-1.42,13.87-5.91,18.04-12.66
	C302.42,59.38,303.89,51.51,302.49,44.19z"/>
<path class="st3" d="M387.31,127.53c-9.48-50.04-62.78-77.86-110.63-68.77s-87.23,54.53-77.69,104.55
	c3.44,18.16,6.87,36.31,10.31,54.47c64.9-1.15,127.56-12.53,188.64-34.49C394.4,164.71,390.85,146.12,387.31,127.53z"/>
<path d="M205.17,222.87l-11.1-58.62c-4.76-24.98,1.74-50.42,18.3-71.64c15.56-19.94,38.66-34.07,63.38-38.76
	c24.72-4.69,51.39-0.02,73.18,12.82c23.19,13.66,38.57,34.95,43.3,59.94l11.44,59.96l-4.02,1.45
	c-60.97,21.92-124.97,33.63-190.25,34.79L205.17,222.87z M294.95,62.06c-5.82,0-11.63,0.53-17.33,1.61
	c-22.36,4.25-43.26,17.04-57.35,35.09c-14.76,18.91-20.57,41.5-16.36,63.61l9.52,50.31c61.28-1.52,121.38-12.51,178.79-32.67
	l-9.83-51.55c-4.19-22.11-17.88-41-38.55-53.18C329.14,66.62,311.99,62.06,294.95,62.06z"/>
<path d="M219.86,194.63c-2.58-6.77-4.4-13.7-5.93-20.65c-1.45-6.96-2.52-13.98-3.03-21.02c-0.57-7.04-0.53-14.11,0.05-21.14
	c0.64-7.02,1.91-14.02,4-20.81c2.17-6.75,5.09-13.34,9.05-19.3c3.96-5.94,8.82-11.32,14.46-15.66c2.8-2.19,5.78-4.12,8.86-5.83
	c3.09-1.7,6.31-3.11,9.56-4.39c6.58-2.37,13.38-3.96,20.24-4.68c-6.64,1.88-13.14,4.12-19.26,7.09c-6.11,2.97-11.84,6.65-16.9,11.05
	c-2.51,2.23-4.86,4.62-7.06,7.14c-2.17,2.55-4.12,5.27-5.88,8.11c-3.57,5.65-6.28,11.85-8.25,18.28c-2.07,6.4-3.29,13.1-4.07,19.85
	c-0.82,6.75-0.97,13.61-0.86,20.48c0.17,6.88,0.68,13.79,1.54,20.7C217.23,180.77,218.37,187.69,219.86,194.63z"/>
<path d="M252.31,191.89c-2.18-5.76-3.83-11.66-5.33-17.58c-1.44-5.93-2.65-11.92-3.54-17.94c-1.49-12.46-2.04-23.87-1.64-36.41
	c0.25-3.04,0.59-6.07,1.04-9.09c0.49-3.01,1.08-6.01,1.83-8.98c0.74-2.97,1.64-5.9,2.72-8.76c1.07-2.87,2.3-5.67,3.76-8.36
	c2.88-5.38,6.54-10.35,10.98-14.41c2.23-2,4.58-3.85,7.12-5.38c2.53-1.53,5.17-2.82,7.9-3.83c-2.48,1.55-4.87,3.21-7.1,5.05
	c-2.23,1.84-4.29,3.87-6.17,6.04c-3.82,4.3-6.81,9.28-9.22,14.51c-4.2,11.65-6.36,21.58-7.82,33.89
	c-0.5,12.03-0.27,23.51,0.52,35.52C248.64,168.19,250.29,179.97,252.31,191.89z"/>
<path d="M284.57,187.48c-3.33-10.17-5.97-20.78-8.06-31.27c-2.25-10.47-4.01-21.2-5.2-31.84c-1.33-10.57-2.03-21.62-1.66-32.28
	c0.14-5.4,0.61-10.81,1.58-16.14c0.53-2.65,1.16-5.3,2.09-7.83c0.91-2.53,2.14-4.98,3.82-6.97c-1.22,2.34-1.99,4.85-2.49,7.42
	c-0.5,2.57-0.82,5.17-0.98,7.8c-0.19,2.62-0.27,5.25-0.26,7.89c0.01,2.64,0.04,5.28,0.16,7.92c0.46,10.58,1.47,21.21,2.74,31.72
	c1.22,10.59,2.63,21.16,4.06,31.73C281.85,166.24,283.3,176.85,284.57,187.48z"/>
<path d="M379.38,164.32c-1.15-7-2.63-13.86-4.39-20.6c-1.74-6.75-3.8-13.36-6.16-19.82c-2.43-6.43-5.07-12.76-8.32-18.74
	c-3.2-5.99-6.79-11.77-11.06-16.97c-4.19-5.26-8.98-10.03-14.38-13.98c-2.68-2-5.5-3.82-8.45-5.39c-2.97-1.54-6.03-2.9-9.18-4.06
	c-6.33-2.24-13-3.55-19.78-4.08c-6.78-0.51-13.65-0.22-20.52,0.47c6.65-1.85,13.56-2.86,20.55-3.07c3.49,0,7.01,0.12,10.51,0.57
	c3.49,0.46,6.97,1.17,10.38,2.17c6.83,1.96,13.33,5.18,19.19,9.26c5.87,4.09,11.01,9.15,15.5,14.63
	c4.44,5.55,8.18,11.59,11.36,17.89c3.12,6.33,5.75,12.89,7.8,19.65c2.1,6.74,3.69,13.66,4.89,20.67
	C378.44,149.96,379.29,157.08,379.38,164.32z"/>
<path d="M348.19,173.67c-2.49-11.83-5.29-23.4-8.5-35.06c-3.67-11.47-7.67-22.23-12.54-33.24c-5.87-10.91-11.52-19.36-19.7-28.66
	c-4.16-3.97-8.77-7.52-13.9-10.11c-2.55-1.34-5.21-2.46-7.96-3.36c-2.75-0.89-5.58-1.56-8.45-2.1c2.91-0.06,5.84,0.17,8.75,0.67
	c2.92,0.49,5.78,1.35,8.59,2.4c5.61,2.15,10.84,5.42,15.5,9.38c2.34,1.96,4.52,4.12,6.57,6.4c2.06,2.27,3.97,4.66,5.75,7.15
	c1.78,2.49,3.43,5.06,4.99,7.69c1.53,2.64,2.96,5.34,4.3,8.07c4.97,11.52,8.64,22.34,11.83,34.48c1.38,5.93,2.44,11.94,3.28,17.99
	C347.48,161.42,348.11,167.52,348.19,173.67z"/>
<path d="M316.56,181.4c-2.71-10.36-5.26-20.76-7.78-31.17c-2.55-10.35-5.12-20.7-7.86-31.01c-2.67-10.24-5.63-20.51-9.09-30.52
	c-0.85-2.51-1.8-4.97-2.76-7.43c-0.96-2.46-2-4.88-3.14-7.25c-1.11-2.38-2.36-4.69-3.77-6.89c-1.41-2.21-3.04-4.26-5.03-5.99
	c2.3,1.24,4.34,3.06,6.11,5.08c1.79,2.02,3.35,4.25,4.82,6.52c2.86,4.6,5.28,9.46,7.39,14.44c4.25,9.78,7.65,20.31,10.29,30.64
	c2.8,10.33,5.1,20.96,6.84,31.52C314.49,159.88,315.92,170.72,316.56,181.4z"/>
<path class="st3" d="M222.27,246.43c-8.59,0.01-16.89-7.07-18.48-15.47c-2.29-12.07-4.58-24.14-6.87-36.21
	c-1.59-8.4,4.04-15.47,12.56-15.99c59.34-4.16,117.01-15.12,173.74-33.01c8.11-2.64,15.95,1.88,17.55,10.27
	c2.3,12.07,4.59,24.14,6.89,36.21c1.6,8.39-3.52,18.02-11.52,21.17C339.91,234.62,282.37,245.56,222.27,246.43z"/>
<path d="M384.18,150.77c5.47-1.81,10.78,1.28,11.86,6.97c2.31,12.13,4.62,24.26,6.94,36.39c1.09,5.7-2.39,12.14-7.79,14.24
	c-56.27,20.98-113.82,31.92-173.86,33.04c-5.8,0.03-11.4-4.69-12.48-10.39c-2.3-12.13-4.6-24.27-6.9-36.4
	c-1.08-5.7,2.73-10.52,8.48-10.84C269.82,179.86,327.49,168.91,384.18,150.77 M382.26,140.73
	c-56.77,17.65-114.45,28.61-173.73,33.01c-10.89,0.7-18.72,10.26-16.64,21.1c2.28,12.01,4.56,24.01,6.84,36.02
	c2.54,11.43,12.74,20.14,24.48,20.59c60.16-0.63,117.69-11.56,173.88-33.04c10.76-4.73,17.05-16.57,15.22-28.14
	c-2.28-12.01-4.56-24.01-6.84-36.02C403.44,143.41,392.66,137.39,382.26,140.73L382.26,140.73z"/>
<path d="M211.46,179.66c2.05,5.29,3.6,10.62,5,15.97c1.38,5.34,2.57,10.7,3.58,16.07c1.02,5.37,1.86,10.74,2.5,16.11
	c0.62,5.37,1.09,10.75,1.05,16.11c-2.07-5.35-3.62-10.69-5.02-16.03c-1.38-5.34-2.56-10.68-3.57-16.02
	c-1.01-5.34-1.85-10.69-2.49-16.05C211.91,190.45,211.43,185.08,211.46,179.66z"/>
<path d="M246.06,176.62c2.07,5.37,3.64,10.79,5.06,16.24c1.4,5.45,2.61,10.92,3.65,16.41c1.04,5.49,1.9,11,2.57,16.52
	c0.65,5.52,1.14,11.06,1.13,16.63c-2.08-5.4-3.66-10.83-5.08-16.28c-1.4-5.45-2.61-10.91-3.64-16.38
	c-1.03-5.48-1.89-10.97-2.56-16.48C246.56,187.75,246.06,182.22,246.06,176.62z"/>
<path d="M280.48,171.84c2.08,5.38,3.66,10.84,5.1,16.32c1.42,5.49,2.64,11.01,3.69,16.56c1.06,5.55,1.94,11.12,2.62,16.73
	c0.67,5.61,1.18,11.24,1.2,16.95c-2.09-5.39-3.68-10.85-5.11-16.34c-1.42-5.49-2.64-11.01-3.68-16.55
	c-1.05-5.54-1.93-11.11-2.61-16.72C281.02,183.19,280.51,177.56,280.48,171.84z"/>
<path d="M314.63,165.36c2.07,5.33,3.66,10.75,5.09,16.21c1.42,5.46,2.64,10.97,3.7,16.51c1.06,5.54,1.95,11.12,2.65,16.75
	c0.68,5.63,1.21,11.29,1.24,17.07c-2.08-5.31-3.67-10.74-5.1-16.2c-1.42-5.47-2.64-10.98-3.69-16.53
	c-1.05-5.55-1.94-11.13-2.64-16.76C315.2,176.78,314.67,171.12,314.63,165.36z"/>
<path d="M348.4,157.17c2.05,5.21,3.62,10.54,5.04,15.91c1.4,5.37,2.61,10.8,3.66,16.27c1.05,5.47,1.93,10.99,2.63,16.57
	c0.67,5.59,1.2,11.22,1.25,17.01c-2.05-5.17-3.62-10.51-5.05-15.88c-1.4-5.38-2.62-10.82-3.67-16.31
	c-1.05-5.49-1.93-11.02-2.62-16.6C348.97,168.55,348.44,162.92,348.4,157.17z"/>
<path d="M381.7,147.31c2.01,5.03,3.54,10.21,4.93,15.42c1.37,5.22,2.55,10.51,3.57,15.85c1.02,5.34,1.88,10.74,2.56,16.21
	c0.66,5.48,1.17,11.02,1.21,16.75c-2.01-4.97-3.54-10.14-4.93-15.37c-1.37-5.23-2.56-10.54-3.58-15.91
	c-1.02-5.37-1.89-10.79-2.56-16.27C382.25,158.51,381.74,152.98,381.7,147.31z"/>
<path d="M331.41,197.02c2.77,14.79-7.08,31.38-21.84,34.86c-15.64,3.69-30.47-10.63-33.1-24.42c-2.64-13.84,6.4-31.21,22.09-33.5
	C313.31,171.79,328.65,182.23,331.41,197.02z"/>
<path class="st1" d="M306.36,218.17c-5.71,1.08-11.31-0.87-13.93-4.72c0.8-0.57,1.21-0.86,2.01-1.44c2.02,2.98,6.73,4.49,11.43,3.6
	c4.7-0.89,8.53-4.01,9.32-7.52c0.96,0.24,1.44,0.37,2.4,0.61C316.57,213.24,312.07,217.09,306.36,218.17z"/>
<path class="st1" d="M314.83,195.32c2.3-0.49,4.56,0.56,5.8,2.48c0.09-1.1,0.02-2.29-0.2-3.49c-0.91-4.79-4.14-8.12-7.22-7.48
	c-3.08,0.65-4.83,5.03-3.92,9.83c0.23,1.2,0.61,2.32,1.09,3.31C310.83,197.69,312.52,195.81,314.83,195.32z"/>
<path class="st1" d="M291.29,199.79c2.32-0.39,4.59,0.74,5.84,2.69c0.09-1.09,0.03-2.27-0.2-3.47c-0.91-4.8-4.16-8.23-7.25-7.71
	c-3.1,0.53-4.88,4.81-3.97,9.6c0.23,1.2,0.6,2.32,1.09,3.32C287.25,201.98,288.97,200.18,291.29,199.79z"/>
<path class="st4" d="M392.99,345.49l77.91-20.03c0.16-0.04,0.78-1.5,0.63-2.87c-0.15-1.37-1.06-2.66-1.23-2.67l-80.39-3.05
	c-0.13-0.02-0.26-0.03-0.38-0.02c-2.42,0.26-3.69,6.9-2.84,14.84c0.85,7.94,3.5,14.16,5.92,13.9
	C392.75,345.58,392.87,345.54,392.99,345.49z"/>
<path d="M392.45,348.1c-4.79,0-7.43-8.6-8.24-16.14c-0.83-7.78-0.01-17.05,5.06-17.59c0.28-0.03,0.57-0.03,0.87,0.01l80.26,3.05
	c2.56,0.11,3.52,3.95,3.62,4.9c0.1,0.95-0.02,4.91-2.48,5.56l-77.81,20.01c-0.29,0.1-0.57,0.16-0.85,0.19
	C392.74,348.09,392.59,348.1,392.45,348.1z M390.13,319.38c-0.73,1.19-1.64,5.51-0.94,12.04c0.7,6.53,2.51,10.56,3.47,11.57
	l76.38-19.64c0.02-0.17,0.03-0.34,0.02-0.5c-0.02-0.16-0.06-0.32-0.12-0.48L390.13,319.38z"/>
<path d="M400.89,318.76c-0.47,0.65-0.9,1.53-1.25,2.46c-0.35,0.94-0.65,1.93-0.9,2.95c-0.51,2.04-0.82,4.17-1.02,6.34
	c-0.63-2.08-1.16-4.22-1.48-6.44c-0.16-1.11-0.27-2.25-0.31-3.42c-0.03-1.18,0.02-2.38,0.31-3.73l0.05-0.21
	c0.3-1.39,1.67-2.28,3.06-1.98c1.39,0.3,2.28,1.67,1.98,3.06C401.25,318.15,401.09,318.48,400.89,318.76z"/>
<path d="M421.75,320.91c-0.41,0.48-0.8,1.18-1.12,1.93c-0.33,0.75-0.61,1.56-0.85,2.4c-0.49,1.67-0.83,3.43-1.06,5.23
	c-0.6-1.71-1.1-3.48-1.44-5.34c-0.17-0.93-0.3-1.88-0.36-2.87c-0.05-0.99-0.05-2.02,0.18-3.2l0.07-0.36
	c0.27-1.43,1.65-2.36,3.08-2.09c1.43,0.27,2.36,1.65,2.09,3.08C422.24,320.16,422.03,320.58,421.75,320.91z"/>
<path class="st3" d="M456.75,454.01v98.11c0,0.81-1.19,1.13-1.7,0.46l-9.2-12.12c-0.37-0.48-1.17-0.48-1.54,0l-10.13,13.35
	c-0.37,0.48-1.17,0.48-1.54,0l-10.14-13.35c-0.37-0.48-1.17-0.48-1.54,0l-10.14,13.35c-0.37,0.48-1.17,0.48-1.54,0l-10.14-13.35
	c-0.37-0.48-1.17-0.48-1.54,0l-9.21,12.13c-0.51,0.67-1.7,0.35-1.7-0.46v-98.1"/>
<path d="M410.05,559.18c-1.86,0-3.64-0.87-4.75-2.34l-6.93-9.12l-6,7.89c-1.54,2.03-4.23,2.85-6.68,2.03
	c-2.4-0.81-4.01-3.02-4.01-5.52v-98.1h10.01v85.94l1.92-2.53c1.11-1.46,2.89-2.34,4.75-2.34c1.86,0,3.64,0.88,4.76,2.34l6.93,9.11
	l6.92-9.11c1.11-1.46,2.89-2.34,4.75-2.34c0,0,0,0,0,0c1.86,0,3.64,0.88,4.76,2.34l6.92,9.11l6.92-9.11
	c1.11-1.46,2.89-2.34,4.75-2.34c0,0,0,0,0,0c1.86,0,3.64,0.88,4.76,2.34l1.91,2.51v-85.94h10.01v98.11c0,2.49-1.61,4.71-4,5.51
	c-2.45,0.83-5.14,0.01-6.69-2.03l-5.99-7.89l-6.92,9.11c-1.12,1.47-2.89,2.34-4.76,2.34c0,0,0,0,0,0c-1.86,0-3.64-0.88-4.75-2.35
	l-6.92-9.11l-6.92,9.11C413.7,558.3,411.92,559.18,410.05,559.18C410.06,559.18,410.05,559.18,410.05,559.18z M436.62,550.78
	L436.62,550.78C436.62,550.78,436.62,550.78,436.62,550.78z M384.4,549.56C384.4,549.56,384.4,549.57,384.4,549.56L384.4,549.56z"/>
<path d="M444.7,498.19c-3.65,1.41-7.46,2.28-11.32,2.88c-3.86,0.58-7.76,0.87-11.67,0.87c-3.91,0-7.81-0.28-11.67-0.86
	c-3.85-0.6-7.67-1.47-11.32-2.89c3.96-0.35,7.8-0.41,11.61-0.48c3.81-0.05,7.59-0.07,11.37-0.06c3.78,0,7.56,0.02,11.37,0.07
	C436.9,497.78,440.74,497.84,444.7,498.19z"/>
<path d="M444.7,518.91c-3.65,1.41-7.46,2.28-11.32,2.88c-3.86,0.58-7.76,0.87-11.67,0.87c-3.91,0-7.81-0.28-11.67-0.86
	c-3.85-0.6-7.67-1.47-11.32-2.89c3.96-0.35,7.8-0.41,11.61-0.48c3.81-0.05,7.59-0.07,11.37-0.06c3.78,0,7.56,0.02,11.37,0.07
	C436.9,518.5,440.74,518.57,444.7,518.91z"/>
<path class="st3" d="M476.63,475.7c-94.99,19.6-191.05,19.6-286.03,0c-9.8-2.43-16.94-10.78-17.27-20.12c0-13.42,0-26.84,0-40.26
	c0-8.91,7.71-14.23,17.27-12.16c94.98,19.6,191.05,19.6,286.03,0c9.56-2.07,17.27,3.25,17.27,12.16c0,13.42,0,26.84,0,40.26
	C493.56,464.92,486.43,473.27,476.63,475.7z"/>
<path d="M333.61,495.39c-48.12,0-96.24-4.93-144.03-14.79l-0.19-0.04c-11.99-2.97-20.65-13.17-21.07-24.8l0-0.18v-40.26
	c0-5.52,2.22-10.35,6.26-13.61c4.43-3.58,10.66-4.83,17.07-3.44c94.18,19.43,189.74,19.43,283.96-0.01
	c6.37-1.38,12.58-0.12,17.02,3.45c4.04,3.26,6.26,8.09,6.26,13.61l0,40.44c-0.41,11.63-9.07,21.83-21.06,24.8l-0.19,0.04
	C429.86,490.46,381.73,495.39,333.61,495.39z M191.71,470.82c94.16,19.42,189.65,19.42,283.8,0c7.48-1.89,13.08-8.32,13.37-15.33
	v-40.17c0-2.47-0.88-4.48-2.54-5.82c-2.07-1.67-5.22-2.2-8.66-1.45c-95.62,19.73-192.53,19.73-288.1,0.01
	c-3.49-0.76-6.64-0.23-8.71,1.44c-1.66,1.34-2.54,3.35-2.54,5.82v40.17C178.63,462.5,184.23,468.93,191.71,470.82z"/>
<path d="M210.02,415.64c0.24,4.82,0.23,9.42,0.26,13.97c0.01,4.54,0.01,9.02,0.03,13.46c0.02,4.44,0.04,8.85,0.04,13.26
	c-0.02,4.4-0.01,8.8-0.32,13.21c-1.74-4.51-2.8-9.09-3.53-13.69c-0.71-4.59-1.04-9.2-1.02-13.76c0.02-4.57,0.38-9.1,1.09-13.54
	C207.3,424.1,208.35,419.74,210.02,415.64z"/>
<path d="M245.39,421.79c0.49,4.71,0.64,9.26,0.78,13.78c0.11,4.51,0.16,8.97,0.17,13.4c0.01,4.44-0.03,8.85-0.14,13.26
	c-0.13,4.41-0.28,8.81-0.81,13.24c-1.52-4.49-2.42-9.03-3.04-13.58c-0.6-4.54-0.89-9.09-0.88-13.62c0.01-4.52,0.31-9.02,0.92-13.46
	C243.01,430.38,243.91,425.99,245.39,421.79z"/>
<path d="M280.98,425.91c0.72,4.6,1.04,9.1,1.28,13.58c0.22,4.48,0.32,8.92,0.32,13.35c0.01,4.43-0.09,8.85-0.31,13.27
	c-0.24,4.42-0.55,8.83-1.29,13.26c-1.3-4.47-2.04-8.97-2.56-13.46c-0.5-4.5-0.74-8.99-0.73-13.47c0-4.48,0.25-8.95,0.75-13.38
	C278.96,434.61,279.69,430.21,280.98,425.91z"/>
<path d="M316.71,428.04c1.02,4.46,1.54,8.9,1.92,13.34c0.36,4.44,0.53,8.87,0.53,13.3c0,4.43-0.16,8.85-0.52,13.27
	c-0.38,4.42-0.91,8.84-1.93,13.24c-1.02-4.46-1.55-8.9-1.93-13.34c-0.36-4.44-0.53-8.87-0.52-13.3c0-4.43,0.17-8.85,0.53-13.27
	C315.16,436.85,315.69,432.44,316.71,428.04z"/>
<path d="M352.48,427.98c1.01,4.4,1.54,8.81,1.92,13.23c0.36,4.42,0.53,8.84,0.53,13.27c0,4.43-0.16,8.86-0.52,13.3
	c-0.38,4.44-0.91,8.89-1.93,13.35c-1.02-4.4-1.55-8.81-1.93-13.23c-0.36-4.42-0.53-8.84-0.52-13.27c0-4.43,0.17-8.86,0.53-13.3
	C350.94,436.88,351.47,432.44,352.48,427.98z"/>
<path d="M388.2,425.74c1.29,4.3,2.02,8.7,2.54,13.13c0.5,4.43,0.74,8.9,0.75,13.38c0.01,4.48-0.23,8.98-0.73,13.48
	c-0.52,4.5-1.26,8.99-2.56,13.47c-0.74-4.42-1.06-8.84-1.29-13.25c-0.22-4.42-0.31-8.83-0.31-13.26c0.01-4.43,0.1-8.88,0.32-13.35
	C387.17,434.85,387.48,430.34,388.2,425.74z"/>
<path d="M423.78,421.51c1.48,4.2,2.38,8.58,3,13.02c0.61,4.44,0.91,8.93,0.92,13.46c0.01,4.52-0.27,9.07-0.88,13.62
	c-0.62,4.55-1.52,9.09-3.04,13.58c-0.53-4.42-0.68-8.83-0.81-13.23c-0.11-4.41-0.15-8.82-0.14-13.26c0.01-4.44,0.06-8.89,0.17-13.4
	C423.14,430.78,423.3,426.22,423.78,421.51z"/>
<path d="M459.14,415.25c1.67,4.1,2.72,8.46,3.46,12.9c0.72,4.44,1.08,8.97,1.09,13.54c0.02,4.57-0.32,9.17-1.02,13.77
	c-0.73,4.6-1.79,9.18-3.53,13.69c-0.32-4.41-0.31-8.81-0.32-13.21c0-4.4,0.03-8.81,0.04-13.25c0.02-4.44,0.02-8.92,0.03-13.46
	C458.91,424.67,458.89,420.07,459.14,415.25z"/>
<path class="st1" d="M75.76,51.52l-3.86-4.43l5.77-1.12c3.03-0.59,5.02-3.54,4.43-6.57c-0.38-1.96-1.79-3.58-3.68-4.23
	c-0.93-0.32-1.93-0.39-2.89-0.2l-5.76,1.12l1.91-5.55c1-2.92-0.55-6.11-3.48-7.12s-6.11,0.55-7.12,3.48l-1.91,5.55l-3.85-4.43
	c-0.64-0.74-1.47-1.3-2.4-1.62c-1.89-0.65-4-0.24-5.5,1.07c-2.33,2.03-2.58,5.57-0.55,7.9l3.86,4.43l-5.77,1.12
	c-3.03,0.59-5.02,3.54-4.43,6.57c0.38,1.96,1.79,3.58,3.68,4.23c0.93,0.32,1.93,0.39,2.89,0.2l5.76-1.12l-1.91,5.55
	c-1,2.92,0.55,6.11,3.48,7.12c2.92,1,6.11-0.55,7.12-3.48l1.91-5.55l3.86,4.43c0.64,0.74,1.47,1.3,2.4,1.62
	c1.89,0.65,4,0.24,5.5-1.07C77.54,57.39,77.78,53.85,75.76,51.52z M73.16,57.07c-0.7,0.61-1.63,0.76-2.45,0.48
	c-0.4-0.14-0.77-0.38-1.07-0.72l-7.39-8.5l-3.66,10.65c-0.45,1.3-1.86,1.99-3.16,1.54c-1.3-0.45-1.99-1.86-1.54-3.16l3.66-10.65
	l-11.06,2.15c-0.44,0.09-0.88,0.05-1.28-0.09c-0.81-0.28-1.46-0.97-1.64-1.88c-0.26-1.35,0.62-2.66,1.97-2.92l11.06-2.15l-7.39-8.5
	c-0.9-1.04-0.79-2.61,0.24-3.51c1.04-0.9,2.61-0.79,3.51,0.24l7.39,8.5l3.66-10.65c0.45-1.3,1.86-1.99,3.16-1.54
	c1.3,0.45,1.99,1.86,1.54,3.16l-3.66,10.65l11.06-2.15c1.35-0.26,2.66,0.62,2.92,1.97c0.26,1.35-0.62,2.66-1.97,2.92l-11.06,2.15
	l7.39,8.5C74.31,54.6,74.2,56.17,73.16,57.07z"/>
<path class="st1" d="M40.46,324.02l-0.43-3.69l3.41,1.47c1.79,0.77,3.88-0.06,4.65-1.85c0.5-1.16,0.34-2.51-0.41-3.52
	c-0.37-0.5-0.87-0.89-1.44-1.14l-3.41-1.47l2.98-2.22c1.57-1.17,1.89-3.39,0.72-4.96c-1.17-1.57-3.39-1.89-4.96-0.72l-2.98,2.22
	l-0.43-3.69c-0.07-0.62-0.31-1.21-0.68-1.7c-0.75-1.01-2-1.55-3.25-1.4c-1.94,0.23-3.33,1.99-3.1,3.93l0.43,3.69l-3.41-1.47
	c-1.79-0.77-3.88,0.06-4.65,1.85c-0.5,1.16-0.34,2.51,0.41,3.52c0.37,0.5,0.87,0.89,1.44,1.14l3.41,1.47l-2.98,2.22
	c-1.57,1.17-1.89,3.39-0.72,4.96c1.17,1.57,3.39,1.89,4.96,0.72l2.98-2.22l0.43,3.69c0.07,0.62,0.31,1.21,0.68,1.7
	c0.75,1.01,2,1.55,3.25,1.4C39.29,327.72,40.68,325.96,40.46,324.02z M37.12,325.99c-0.58,0.07-1.12-0.19-1.45-0.62
	c-0.16-0.21-0.27-0.47-0.3-0.76l-0.83-7.07l-5.71,4.26c-0.7,0.52-1.68,0.38-2.2-0.32c-0.52-0.7-0.38-1.68,0.32-2.2l5.71-4.26
	l-6.54-2.82c-0.26-0.11-0.48-0.29-0.64-0.5c-0.33-0.44-0.41-1.03-0.18-1.56c0.34-0.8,1.27-1.17,2.07-0.82l6.54,2.82l-0.83-7.07
	c-0.1-0.86,0.52-1.65,1.38-1.75c0.86-0.1,1.65,0.52,1.75,1.38l0.83,7.07l5.71-4.26c0.7-0.52,1.68-0.38,2.2,0.32
	c0.52,0.7,0.38,1.68-0.32,2.2l-5.71,4.26l6.54,2.82c0.8,0.34,1.17,1.27,0.82,2.07c-0.34,0.8-1.27,1.17-2.07,0.82l-6.54-2.82
	l0.83,7.07C38.6,325.11,37.99,325.89,37.12,325.99z"/>
<path class="st1" d="M475.65,189.4l-0.43-3.69l3.41,1.47c1.79,0.77,3.88-0.06,4.65-1.85c0.5-1.16,0.34-2.51-0.41-3.52
	c-0.37-0.5-0.87-0.89-1.44-1.13l-3.41-1.47l2.98-2.22c1.57-1.17,1.89-3.39,0.72-4.96c-1.17-1.57-3.39-1.89-4.96-0.72l-2.98,2.22
	l-0.43-3.69c-0.07-0.62-0.31-1.21-0.68-1.7c-0.75-1.01-2-1.55-3.25-1.4c-1.94,0.23-3.33,1.99-3.1,3.93l0.43,3.69l-3.41-1.47
	c-1.79-0.77-3.88,0.06-4.65,1.85c-0.5,1.16-0.34,2.51,0.41,3.52c0.37,0.5,0.87,0.89,1.44,1.14l3.41,1.47l-2.98,2.22
	c-1.57,1.17-1.89,3.39-0.72,4.96c1.17,1.57,3.39,1.89,4.96,0.72l2.98-2.22l0.43,3.69c0.07,0.62,0.31,1.21,0.68,1.7
	c0.75,1.01,2,1.55,3.25,1.4C474.48,193.11,475.87,191.34,475.65,189.4z M472.31,191.38c-0.58,0.07-1.12-0.19-1.45-0.62
	c-0.16-0.21-0.27-0.47-0.3-0.76l-0.83-7.07l-5.71,4.26c-0.7,0.52-1.68,0.38-2.2-0.32c-0.52-0.7-0.38-1.68,0.32-2.2l5.71-4.26
	l-6.54-2.82c-0.26-0.11-0.48-0.29-0.64-0.5c-0.33-0.44-0.42-1.03-0.18-1.56c0.34-0.8,1.27-1.17,2.07-0.82l6.54,2.82l-0.83-7.07
	c-0.1-0.86,0.52-1.65,1.38-1.75c0.86-0.1,1.65,0.52,1.75,1.38l0.83,7.07l5.71-4.26c0.7-0.52,1.68-0.38,2.2,0.32
	c0.52,0.7,0.38,1.68-0.32,2.2l-5.71,4.26l6.54,2.82c0.8,0.34,1.17,1.27,0.82,2.07c-0.34,0.8-1.27,1.17-2.07,0.82l-6.54-2.82
	l0.83,7.07C473.79,190.5,473.18,191.28,472.31,191.38z"/>
<path class="st1" d="M419.86,63.75l1.86-3.22l1.86,3.22c0.98,1.69,3.15,2.27,4.84,1.3c1.09-0.63,1.77-1.81,1.77-3.07
	c0-0.62-0.16-1.23-0.47-1.77L427.85,57h3.71c1.95,0,3.54-1.59,3.54-3.54c0-1.95-1.59-3.54-3.54-3.54l-3.71,0l1.86-3.22
	c0.31-0.54,0.47-1.15,0.47-1.77c0-1.26-0.68-2.44-1.77-3.07c-1.69-0.98-3.86-0.39-4.84,1.3l-1.86,3.22l-1.86-3.22
	c-0.98-1.69-3.15-2.27-4.84-1.3c-1.09,0.63-1.77,1.81-1.77,3.07c0,0.62,0.16,1.23,0.48,1.77l1.86,3.21h-3.71
	c-1.95,0-3.54,1.59-3.54,3.54c0,1.95,1.59,3.54,3.54,3.54h3.71l-1.86,3.22c-0.31,0.54-0.47,1.15-0.47,1.77
	c0,1.26,0.68,2.44,1.77,3.07C416.72,66.03,418.89,65.45,419.86,63.75z M416.01,63.35c-0.5-0.29-0.79-0.82-0.79-1.36
	c0-0.27,0.07-0.54,0.21-0.79l3.56-6.17l-7.12,0c-0.87,0-1.57-0.7-1.57-1.57c0-0.87,0.7-1.57,1.57-1.57l7.12,0l-3.56-6.17
	c-0.14-0.25-0.21-0.52-0.21-0.79c0-0.54,0.28-1.07,0.79-1.36c0.75-0.43,1.72-0.18,2.15,0.58l3.56,6.17l3.56-6.17
	c0.43-0.75,1.4-1.01,2.15-0.58c0.75,0.43,1.01,1.4,0.58,2.15l-3.56,6.17h7.12c0.87,0,1.57,0.7,1.57,1.57c0,0.87-0.7,1.57-1.57,1.57
	h-7.12l3.56,6.17c0.43,0.75,0.18,1.72-0.58,2.15c-0.75,0.43-1.72,0.18-2.15-0.58l-3.56-6.17l-3.56,6.17
	C417.72,63.52,416.76,63.78,416.01,63.35z"/>
<path class="st1" d="M155.51,61.33l-1.36-2.6l2.93,0.13c1.54,0.07,2.85-1.13,2.92-2.68c0.04-1-0.45-1.95-1.3-2.48
	c-0.41-0.26-0.89-0.41-1.38-0.43l-2.93-0.13l1.57-2.48c0.83-1.3,0.44-3.04-0.86-3.86c-1.3-0.83-3.04-0.44-3.86,0.86l-1.57,2.48
	l-1.36-2.6c-0.23-0.43-0.57-0.8-0.98-1.07c-0.84-0.54-1.91-0.58-2.8-0.12c-1.37,0.71-1.9,2.41-1.19,3.78l1.36,2.6l-2.93-0.13
	c-1.54-0.07-2.85,1.13-2.92,2.68c-0.04,1,0.45,1.95,1.3,2.48c0.41,0.26,0.89,0.41,1.38,0.43l2.93,0.13l-1.57,2.48
	c-0.83,1.3-0.44,3.04,0.86,3.86c1.3,0.83,3.04,0.44,3.86-0.86l1.57-2.48l1.36,2.6c0.23,0.43,0.56,0.8,0.98,1.07
	c0.84,0.54,1.91,0.58,2.8,0.12C155.69,64.39,156.22,62.7,155.51,61.33z M153.6,63.73c-0.41,0.21-0.88,0.18-1.24-0.05
	c-0.18-0.11-0.33-0.27-0.43-0.47l-2.6-4.99l-3.02,4.75c-0.37,0.58-1.14,0.75-1.72,0.38c-0.58-0.37-0.75-1.14-0.38-1.72l3.02-4.75
	l-5.62-0.24c-0.23-0.01-0.44-0.08-0.61-0.19c-0.36-0.23-0.6-0.64-0.58-1.1c0.03-0.69,0.61-1.22,1.3-1.19l5.62,0.24l-2.6-4.99
	c-0.32-0.61-0.08-1.36,0.53-1.68c0.61-0.32,1.36-0.08,1.68,0.53l2.6,4.99l3.02-4.75c0.37-0.58,1.14-0.75,1.72-0.38
	c0.58,0.37,0.75,1.14,0.38,1.72l-3.02,4.75l5.62,0.24c0.69,0.03,1.22,0.61,1.19,1.3c-0.03,0.69-0.61,1.22-1.3,1.19l-5.62-0.24
	l2.6,4.99C154.45,62.66,154.21,63.41,153.6,63.73z"/>
<path class="st1" d="M217.78,123.71l-4.61-0.09l2.38-3.95c1.25-2.08,0.58-4.79-1.5-6.04c-1.34-0.81-3.03-0.84-4.4-0.08
	c-0.67,0.37-1.24,0.92-1.64,1.58l-2.38,3.95l-2.23-4.04c-1.17-2.12-3.86-2.9-5.98-1.72s-2.9,3.86-1.72,5.98l2.23,4.04l-4.61-0.09
	c-0.77-0.01-1.54,0.17-2.21,0.55c-1.37,0.76-2.24,2.2-2.27,3.77c-0.05,2.43,1.89,4.44,4.32,4.48l4.61,0.09l-2.38,3.95
	c-1.25,2.08-0.58,4.79,1.5,6.04c1.34,0.81,3.03,0.84,4.4,0.08c0.67-0.37,1.24-0.92,1.64-1.58l2.38-3.95l2.23,4.04
	c1.17,2.12,3.86,2.9,5.98,1.72s2.9-3.86,1.72-5.98l-2.23-4.04l4.61,0.09c0.77,0.01,1.53-0.17,2.21-0.55
	c1.37-0.76,2.24-2.2,2.27-3.77C222.15,125.77,220.21,123.76,217.78,123.71z M219.66,128.15c-0.01,0.72-0.42,1.35-1.01,1.68
	c-0.29,0.16-0.63,0.25-0.98,0.24l-8.85-0.17l4.28,7.74c0.52,0.95,0.18,2.14-0.77,2.66c-0.95,0.52-2.14,0.18-2.66-0.77l-4.28-7.74
	l-4.57,7.58c-0.18,0.3-0.44,0.54-0.73,0.7c-0.59,0.33-1.34,0.34-1.96-0.04c-0.93-0.56-1.22-1.76-0.67-2.68l4.57-7.58l-8.85-0.17
	c-1.08-0.02-1.94-0.91-1.92-1.99c0.02-1.08,0.91-1.94,1.99-1.92l8.85,0.17l-4.28-7.74c-0.52-0.95-0.18-2.14,0.77-2.66
	c0.95-0.52,2.14-0.18,2.66,0.77l4.28,7.74l4.57-7.58c0.56-0.93,1.76-1.22,2.68-0.67c0.93,0.56,1.22,1.76,0.67,2.68l-4.57,7.58
	l8.85,0.17C218.82,126.18,219.68,127.07,219.66,128.15z"/>
<path class="st1" d="M89.58,455.37l-4.49-2.13l4.09-2.83c2.15-1.49,2.69-4.44,1.2-6.6c-0.96-1.39-2.6-2.17-4.29-2.03
	c-0.83,0.07-1.63,0.35-2.31,0.83l-4.09,2.83l-0.4-4.95c-0.21-2.61-2.5-4.55-5.11-4.34c-2.61,0.21-4.55,2.5-4.34,5.11l0.4,4.95
	l-4.49-2.13c-0.75-0.36-1.58-0.51-2.41-0.44c-1.68,0.14-3.18,1.17-3.9,2.7c-1.12,2.36-0.11,5.19,2.26,6.31l4.49,2.13l-4.09,2.83
	c-2.15,1.49-2.69,4.44-1.2,6.6c0.96,1.39,2.6,2.17,4.29,2.03c0.83-0.07,1.63-0.35,2.31-0.83l4.09-2.83l0.4,4.95
	c0.21,2.61,2.5,4.55,5.11,4.34c2.61-0.21,4.55-2.5,4.34-5.11l-0.4-4.95l4.49,2.13c0.75,0.36,1.58,0.51,2.41,0.44
	c1.68-0.14,3.18-1.17,3.9-2.7C92.96,459.32,91.95,456.49,89.58,455.37z M89.46,460.56c-0.33,0.71-1.01,1.14-1.73,1.2
	c-0.36,0.03-0.72-0.03-1.07-0.2l-8.62-4.08l0.77,9.5c0.09,1.16-0.77,2.18-1.93,2.27c-1.16,0.09-2.18-0.77-2.27-1.93l-0.77-9.5
	L66,463.24c-0.32,0.22-0.67,0.34-1.02,0.37c-0.73,0.06-1.46-0.26-1.91-0.9c-0.66-0.96-0.42-2.27,0.53-2.93l7.84-5.42l-8.62-4.08
	c-1.05-0.5-1.5-1.75-1-2.81c0.5-1.05,1.75-1.5,2.81-1l8.61,4.08l-0.77-9.5c-0.09-1.16,0.77-2.18,1.93-2.27
	c1.16-0.09,2.18,0.77,2.27,1.93l0.77,9.5l7.84-5.42c0.96-0.66,2.27-0.42,2.93,0.53c0.66,0.96,0.42,2.27-0.53,2.93l-7.84,5.42
	l8.62,4.08C89.51,458.25,89.96,459.51,89.46,460.56z"/>
<path class="st1" d="M155.64,515.39l-2.13-0.59l1.58-1.55c0.83-0.82,0.84-2.15,0.02-2.98c-0.53-0.54-1.31-0.75-2.03-0.56
	c-0.36,0.09-0.69,0.28-0.95,0.54l-1.57,1.55l-0.56-2.14c-0.29-1.13-1.45-1.8-2.57-1.51c-1.13,0.29-1.8,1.45-1.51,2.57l0.56,2.14
	l-2.13-0.59c-0.36-0.1-0.73-0.1-1.09-0.01c-0.73,0.19-1.3,0.76-1.5,1.48c-0.31,1.12,0.35,2.28,1.47,2.59l2.13,0.59l-1.58,1.55
	c-0.83,0.82-0.84,2.15-0.02,2.98c0.53,0.54,1.31,0.75,2.03,0.56c0.36-0.09,0.69-0.28,0.95-0.54l1.57-1.55l0.56,2.14
	c0.29,1.13,1.45,1.8,2.57,1.51c1.13-0.29,1.8-1.45,1.51-2.57l-0.56-2.14l2.13,0.59c0.36,0.1,0.73,0.1,1.09,0.01
	c0.73-0.19,1.3-0.76,1.5-1.48C157.42,516.86,156.76,515.7,155.64,515.39z M155.98,517.67c-0.09,0.33-0.35,0.58-0.67,0.66
	c-0.15,0.04-0.32,0.04-0.48,0l-4.09-1.13l1.07,4.1c0.13,0.5-0.17,1.01-0.67,1.14c-0.5,0.13-1.01-0.17-1.14-0.67l-1.07-4.1
	l-3.02,2.97c-0.12,0.12-0.27,0.2-0.42,0.24c-0.31,0.08-0.66,0-0.9-0.25c-0.36-0.37-0.36-0.96,0.01-1.33l3.02-2.97l-4.09-1.13
	c-0.5-0.14-0.79-0.65-0.65-1.15c0.14-0.5,0.65-0.79,1.15-0.65l4.09,1.13l-1.07-4.1c-0.13-0.5,0.17-1.01,0.67-1.14
	c0.5-0.13,1.01,0.17,1.14,0.67l1.07,4.1l3.02-2.97c0.37-0.36,0.96-0.36,1.33,0.01c0.36,0.37,0.36,0.96-0.01,1.33l-3.02,2.97
	l4.09,1.13C155.83,516.66,156.12,517.17,155.98,517.67z"/>
<path class="st1" d="M118.66,210.7l-3.66-4.03l5.32-1.15c2.8-0.61,4.58-3.38,3.98-6.18c-0.39-1.81-1.73-3.28-3.49-3.85
	c-0.87-0.28-1.79-0.32-2.68-0.13l-5.32,1.15l1.66-5.19c0.87-2.73-0.63-5.66-3.36-6.53c-2.73-0.87-5.66,0.63-6.53,3.36l-1.66,5.19
	l-3.66-4.03c-0.61-0.67-1.39-1.18-2.26-1.46c-1.76-0.57-3.71-0.14-5.08,1.1c-2.12,1.92-2.28,5.22-0.36,7.34l3.66,4.03l-5.32,1.15
	c-2.8,0.61-4.58,3.38-3.98,6.18c0.39,1.81,1.73,3.28,3.49,3.85c0.87,0.28,1.79,0.32,2.69,0.13l5.32-1.15l-1.66,5.19
	c-0.87,2.73,0.63,5.66,3.36,6.53c2.73,0.87,5.66-0.63,6.53-3.36l1.66-5.19l3.66,4.03c0.61,0.67,1.39,1.18,2.26,1.46
	c1.76,0.57,3.71,0.14,5.08-1.1C120.43,216.11,120.59,212.82,118.66,210.7z M116.37,215.9c-0.63,0.57-1.5,0.73-2.26,0.49
	c-0.37-0.12-0.72-0.34-1-0.65l-7.02-7.74l-3.19,9.95c-0.39,1.21-1.69,1.88-2.9,1.49c-1.21-0.39-1.88-1.69-1.49-2.9l3.19-9.95
	l-10.21,2.21c-0.41,0.09-0.82,0.06-1.19-0.06c-0.76-0.24-1.37-0.88-1.55-1.71c-0.27-1.25,0.52-2.48,1.77-2.75l10.21-2.21l-7.02-7.74
	c-0.86-0.94-0.79-2.4,0.16-3.26c0.94-0.86,2.4-0.79,3.26,0.16l7.02,7.73l3.19-9.95c0.39-1.21,1.69-1.88,2.9-1.49
	c1.21,0.39,1.88,1.69,1.49,2.9l-3.19,9.95l10.21-2.21c1.25-0.27,2.48,0.52,2.75,1.77c0.27,1.25-0.52,2.48-1.77,2.75l-10.21,2.21
	l7.02,7.74C117.38,213.58,117.31,215.04,116.37,215.9z"/>
</svg>
