<?xml version="1.0" encoding="utf-8"?>
<!-- Generator: Adobe Illustrator 25.3.1, SVG Export Plug-In . SVG Version: 6.00 Build 0)  -->
<svg version="1.1" id="Layer_1" xmlns="http://www.w3.org/2000/svg" xmlns:xlink="http://www.w3.org/1999/xlink" x="0px" y="0px"
	 viewBox="0 0 500 740" style="enable-background:new 0 0 500 740;" xml:space="preserve">
<style type="text/css">
	.st0{fill:#4F4F60;}
	.st1{fill:#9B9BA8;}
	.st2{fill:#EAFF1F;}
	.st3{fill:#D6D6D6;}
	.st4{fill:#307530;}
	.st5{fill:#3C9640;}
	.st6{fill:#B24768;}
	.st7{fill:#8E3953;}
	.st8{opacity:0.2;enable-background:new    ;}
	.st9{fill:#FFFFFF;}
</style>
<rect x="38.28" y="30" class="st0" width="392.3" height="392.3"/>
<path class="st1" d="M237.48,30.08h-8.66H35.58V43.8c13.7,13.59,32.72,20.26,51.7,16.15l9.46-2.05
	c7.44,11.45,21.43,17.71,35.57,14.65c5.74-1.24,10.83-3.87,14.98-7.47c11.92,13.64,30.69,20.57,49.65,16.47
	c14.22-3.08,25.77-11.77,32.86-23.24c6.83,6.68,16.19,10.77,26.49,10.72c15.47-0.08,28.71-9.5,34.42-22.88
	c2.78,3.34,6.13,6.18,9.89,8.39c0.31,0.19,0.63,0.37,0.95,0.55c0.05,0.03,0.11,0.06,0.16,0.09c4.14,2.35,8.76,3.85,13.61,4.29
	c1.48,0.17,2.99,0.26,4.52,0.25c8.15-0.04,15.68-2.68,21.81-7.12c11.95,12.83,30.16,19.22,48.54,15.25
	c19.78-4.28,34.42-19.41,39.03-37.79H237.48V30.08z"/>
<polygon class="st2" points="109.02,33.44 91.79,29.6 75.4,60.4 85.84,62.73 66.25,101.46 109.5,53.84 99.36,51.58 "/>
<polygon class="st2" points="178.11,56.02 187.65,28.08 158.81,28.08 140.96,95.56 156.78,97.42 141.48,153.49 153.44,154.37 
	129.18,277.6 176.86,144.06 165.26,143.2 196.08,57.34 "/>
<polygon class="st2" points="303.1,103.28 295.61,68.75 303.97,68.14 295.15,27.5 279.79,27.5 287.24,61.85 282.56,62.19 
	287.92,86.88 279.34,87.5 305.08,156.41 294.32,103.92 "/>
<polygon class="st2" points="385.7,52.83 368.36,27.5 368.08,27.5 354.92,31.76 367.18,49.68 361.33,51.57 406.81,101.04 
	379.3,54.9 "/>
<polygon points="430.58,216.15 244.43,216.15 244.43,20 224.43,20 224.43,216.15 38.28,216.15 38.28,236.15 224.43,236.15 
	224.43,432.3 244.43,432.3 244.43,236.15 430.58,236.15 "/>
<polygon class="st3" points="430.58,221.15 239.43,221.15 239.43,20 229.43,20 229.43,221.15 38.28,221.15 38.28,231.15 
	229.43,231.15 229.43,432.3 239.43,432.3 239.43,231.15 430.58,231.15 "/>
<path d="M430.58,0H43.28h-25v25v407.3v50h25h387.3h20v-50V25V0H430.58z M53.28,417.3V35h362.3v382.3H53.28z"/>
<path class="st3" d="M440.58,472.3H28.28V10h412.3V472.3z M48.28,422.3h372.3V30H48.28V422.3z"/>
<polygon points="229.7,437.3 18.28,437.3 18.28,432.3 10,432.3 0,432.3 0,441.3 0,453.3 0,462.3 183.14,462.3 183.14,457.3 
	229.7,457.3 234.7,457.3 234.7,453.3 234.7,441.3 234.7,437.3 "/>
<rect x="10" y="442.3" class="st3" width="219.7" height="10"/>
<path class="st4" d="M118.34,394.69c-2.83-0.46-4.47-2.6-5.8-6.62c-0.71-2.14-2.52-4.86-2.48-8.93c0.03-2.59,1.68-5.55,2.08-9.14
	c0.31-2.73-0.71-5.98-0.15-9.37c0.74-4.5,3.16-8.5,4.32-12.57c1.27-4.49,1.36-9.15,2.88-12.98c1.82-4.59,5.04-8.04,6.78-11.43
	c3.68-7.19,1.96-6.7,5.75-12.11c0,0,0.66,4.37,1.74,10.81c0.5,2.99,2.44,6.34,2.79,10.3c0.29,3.26-0.96,6.88-0.91,10.63
	c0.04,3.37,1.41,6.95,1.16,10.61c-0.24,3.41-2.08,6.76-2.67,10.33c-0.44,2.65,0.56,5.34,0.1,7.55c-0.55,2.7-2.53,4.76-3.1,6.88
	c-0.76,2.8-0.16,5.59-0.96,7.5c-1.25,3-3.72,4.17-5.06,5.44C122.62,393.66,120.72,395.08,118.34,394.69z"/>
<path d="M119.13,397.26c-0.39,0-0.78-0.03-1.19-0.1l0,0c-4.71-0.77-6.62-4.84-7.77-8.3c-0.15-0.45-0.38-0.97-0.64-1.58
	c-0.85-1.95-2-4.61-1.97-8.16c0.02-1.69,0.52-3.31,1.05-5.02c0.43-1.41,0.88-2.86,1.05-4.38c0.11-0.96-0.01-2.15-0.13-3.41
	c-0.17-1.82-0.37-3.89-0.01-6.09c0.48-2.95,1.58-5.59,2.63-8.15c0.68-1.64,1.32-3.18,1.75-4.7c0.52-1.82,0.84-3.75,1.15-5.62
	c0.42-2.55,0.86-5.19,1.81-7.59c1.19-3.01,2.91-5.53,4.43-7.76c0.94-1.38,1.82-2.68,2.45-3.89c1.54-3.02,2.08-4.6,2.52-5.88
	c0.68-2,1.21-3.38,3.41-6.53l3.58-5.11l0.93,6.17c0.01,0.04,0.67,4.42,1.74,10.77c0.18,1.05,0.61,2.28,1.07,3.58
	c0.71,2.02,1.52,4.31,1.75,6.91c0.18,2.03-0.13,4.08-0.43,6.06c-0.24,1.58-0.49,3.21-0.47,4.76c0.02,1.27,0.27,2.67,0.54,4.14
	c0.38,2.12,0.78,4.31,0.61,6.67c-0.15,2.19-0.84,4.24-1.5,6.23c-0.5,1.5-0.97,2.92-1.2,4.33c-0.17,1.01-0.05,2.12,0.08,3.31
	c0.15,1.41,0.31,2.86,0.01,4.33c-0.39,1.9-1.26,3.42-2.04,4.77c-0.48,0.84-0.93,1.63-1.1,2.26c-0.29,1.09-0.34,2.28-0.38,3.42
	c-0.05,1.47-0.1,2.99-0.69,4.38c-1.18,2.83-3.17,4.35-4.62,5.46c-0.4,0.3-0.77,0.59-1.02,0.83
	C124.53,395.29,122.18,397.26,119.13,397.26z M118.74,392.23c1.11,0.18,2.24-0.46,4.34-2.46c0.44-0.42,0.93-0.79,1.43-1.18
	c1.17-0.89,2.37-1.81,3.04-3.41c0.23-0.56,0.27-1.56,0.3-2.63c0.05-1.36,0.1-2.91,0.55-4.56c0.34-1.25,0.98-2.36,1.59-3.44
	c0.64-1.12,1.25-2.18,1.47-3.28c0.15-0.72,0.04-1.73-0.08-2.8c-0.15-1.4-0.32-2.98-0.04-4.65c0.3-1.8,0.85-3.48,1.39-5.1
	c0.59-1.77,1.14-3.44,1.25-5c0.12-1.73-0.2-3.53-0.55-5.43c-0.29-1.61-0.59-3.28-0.62-4.97c-0.02-1.97,0.26-3.8,0.53-5.58
	c0.27-1.76,0.52-3.43,0.39-4.86c-0.18-1.98-0.84-3.87-1.49-5.7c-0.53-1.51-1.03-2.94-1.28-4.41c-0.18-1.09-0.35-2.12-0.51-3.08
	c-0.45,1.22-1.1,2.78-2.29,5.1c-0.76,1.5-1.74,2.92-2.77,4.43c-1.44,2.11-2.92,4.29-3.91,6.79c-0.76,1.91-1.13,4.17-1.53,6.57
	c-0.33,2-0.67,4.07-1.27,6.17c-0.51,1.8-1.23,3.55-1.94,5.25c-0.99,2.4-1.93,4.66-2.32,7.05c-0.26,1.56-0.1,3.21,0.05,4.8
	c0.14,1.46,0.28,2.97,0.12,4.44c-0.22,1.98-0.77,3.74-1.25,5.29c-0.44,1.41-0.81,2.63-0.82,3.6c-0.02,2.49,0.81,4.42,1.56,6.12
	c0.3,0.69,0.58,1.34,0.8,2C116.3,391.49,117.62,392.04,118.74,392.23L118.74,392.23z"/>
<polygon points="115.81,394.28 129.53,326.15 120.74,395.09 "/>
<path class="st5" d="M113.49,389.86c-2.4,0.25-4.22-1.29-6.27-3.49c-1.26-1.35-3.65-2.66-4.72-5.73c-0.68-1.95,0.08-4.69-0.51-7.54
	c-0.45-2.15-2.3-4.32-2.69-7.05c-0.32-2.24,0.83-4.86,0.55-7.53c-0.37-3.6-2.01-7.05-2.05-10.47c-0.04-3.66,1.54-7.16,1.78-10.52
	c0.27-3.74-0.76-7.43-0.28-10.67c0.59-3.93,2.72-7.16,3.4-10.11c1.46-6.37,1.24-5.78,3.03-10.75c0,0,0.18,3.56,2.55,8.51
	c1.09,2.27,3.64,4.39,4.87,7.48c1.01,2.52,0.67,5.79,1.65,8.77c0.88,2.66,3.11,5.07,3.88,8.04c0.71,2.75-0.07,5.94,0.47,8.92
	c0.52,2.82,2.39,5.53,2.7,8.51c0.23,2.19-1.04,4.37-0.9,6.28c0.16,2.24,1.73,4.21,1.78,6.09c0.06,2.31-1.41,4.34-1.5,6.16
	c-0.12,2.43,1.07,4.63,0.71,6.31c-0.56,2.61-2.66,3.78-3.67,5C116.78,387.86,115.54,389.65,113.49,389.86z"/>
<path d="M112.97,392.39c-3.27,0-5.62-2.21-7.59-4.31c-0.23-0.25-0.59-0.56-0.97-0.89c-1.38-1.19-3.27-2.82-4.29-5.72
	c-0.5-1.43-0.46-2.95-0.42-4.42c0.03-1.15,0.06-2.33-0.17-3.44c-0.13-0.64-0.54-1.46-0.97-2.32c-0.69-1.39-1.48-2.97-1.75-4.89
	c-0.21-1.49,0.03-2.93,0.26-4.33c0.2-1.18,0.38-2.29,0.28-3.3c-0.15-1.43-0.53-2.87-0.94-4.4c-0.54-2.02-1.1-4.11-1.12-6.3
	c-0.03-2.37,0.5-4.53,1.01-6.62c0.35-1.46,0.69-2.83,0.78-4.11c0.11-1.55-0.04-3.2-0.19-4.79c-0.18-1.99-0.37-4.06-0.07-6.07
	c0.39-2.58,1.33-4.82,2.16-6.8c0.53-1.27,1.04-2.47,1.28-3.51l0.47-2.04c1-4.4,1.05-4.57,2.65-9l4.21-11.69l0.64,12.41
	c0,0.02,0.22,3.19,2.31,7.56c0.35,0.74,1.02,1.59,1.73,2.5c1.12,1.43,2.38,3.05,3.21,5.13c0.65,1.62,0.83,3.34,1.02,5
	c0.15,1.4,0.29,2.72,0.69,3.92c0.32,0.96,0.92,1.98,1.56,3.07c0.87,1.49,1.86,3.17,2.37,5.13c0.46,1.79,0.41,3.59,0.37,5.32
	c-0.04,1.35-0.07,2.62,0.14,3.77c0.19,1.03,0.64,2.15,1.13,3.33c0.65,1.59,1.39,3.4,1.6,5.38c0.17,1.61-0.2,3.04-0.53,4.31
	c-0.21,0.8-0.4,1.55-0.37,2.05c0.05,0.73,0.4,1.56,0.76,2.44c0.46,1.11,0.98,2.37,1.02,3.76c0.05,1.76-0.52,3.3-0.97,4.54
	c-0.25,0.68-0.51,1.38-0.53,1.81c-0.04,0.84,0.16,1.74,0.37,2.68c0.29,1.29,0.59,2.63,0.29,4.03c-0.57,2.68-2.28,4.26-3.41,5.3
	c-0.31,0.29-0.61,0.57-0.78,0.77l-0.43,0.53c-1.47,1.81-3.14,3.85-6.01,4.15l0,0C113.48,392.37,113.23,392.39,112.97,392.39z
	 M105.7,314.87c-0.03,0.12-0.06,0.25-0.09,0.39l-0.47,2.05c-0.33,1.45-0.92,2.85-1.54,4.32c-0.75,1.79-1.53,3.64-1.83,5.6
	c-0.21,1.42-0.06,3.09,0.1,4.87c0.16,1.79,0.33,3.64,0.19,5.6c-0.12,1.69-0.52,3.33-0.91,4.93c-0.46,1.88-0.89,3.65-0.87,5.38
	c0.02,1.57,0.47,3.27,0.95,5.07c0.44,1.65,0.9,3.35,1.09,5.17c0.17,1.69-0.09,3.26-0.32,4.64c-0.18,1.07-0.35,2.07-0.24,2.79
	c0.16,1.12,0.7,2.21,1.28,3.36c0.55,1.11,1.12,2.26,1.39,3.53c0.35,1.67,0.31,3.22,0.27,4.58c-0.03,1.07-0.05,2.07,0.15,2.64
	c0.57,1.64,1.72,2.63,2.83,3.59c0.48,0.42,0.94,0.81,1.36,1.26c1.97,2.12,3.07,2.83,4.19,2.71l0,0c0.76-0.08,1.51-0.94,2.65-2.34
	l0.46-0.56c0.38-0.46,0.82-0.86,1.24-1.25c0.9-0.83,1.68-1.55,1.92-2.68c0.07-0.33-0.12-1.19-0.28-1.89
	c-0.25-1.11-0.56-2.5-0.48-4.02c0.06-1.19,0.45-2.25,0.83-3.29c0.35-0.96,0.69-1.87,0.67-2.67c-0.01-0.47-0.33-1.24-0.64-1.99
	c-0.48-1.15-1.02-2.46-1.13-3.99c-0.1-1.31,0.23-2.56,0.51-3.66c0.24-0.94,0.47-1.83,0.4-2.54c-0.13-1.27-0.67-2.6-1.25-4
	c-0.56-1.37-1.14-2.78-1.42-4.32c-0.3-1.66-0.26-3.26-0.22-4.8c0.04-1.45,0.07-2.83-0.21-3.94c-0.33-1.28-1.06-2.52-1.84-3.84
	c-0.74-1.27-1.51-2.58-2-4.04c-0.56-1.7-0.75-3.42-0.91-4.95c-0.15-1.39-0.29-2.7-0.68-3.68c-0.57-1.42-1.56-2.69-2.52-3.92
	c-0.84-1.08-1.71-2.19-2.29-3.41C105.91,315.35,105.8,315.11,105.7,314.87z"/>
<polygon points="111.07,390.11 106.38,320.78 116.04,389.6 "/>
<path class="st5" d="M120.84,406.87c-2.71-0.94-3.96-3.33-4.58-7.51c-0.33-2.23-1.65-5.23-0.91-9.23c0.47-2.55,2.61-5.18,3.62-8.65
	c0.77-2.64,0.33-6.01,1.46-9.25c1.5-4.31,4.57-7.83,6.41-11.64c2.02-4.2,2.91-8.78,5.06-12.29c2.58-4.21,6.35-7.06,8.64-10.1
	c4.86-6.45,3.08-6.26,7.74-10.94c0,0-0.1,4.41-0.14,10.95c-0.02,3.03,1.31,6.66,0.99,10.62c-0.27,3.26-2.12,6.61-2.72,10.32
	c-0.54,3.33,0.2,7.09-0.68,10.65c-0.82,3.32-3.21,6.3-4.4,9.72c-0.88,2.54-0.37,5.35-1.19,7.46c-1.01,2.57-3.31,4.26-4.24,6.24
	c-1.23,2.63-1.12,5.48-2.23,7.22c-1.75,2.74-4.38,3.47-5.92,4.49C125.24,406.58,123.12,407.66,120.84,406.87z"/>
<path d="M122.39,409.63c-0.77,0-1.56-0.12-2.37-0.41l0,0c-4.5-1.57-5.69-5.9-6.23-9.51c-0.07-0.47-0.2-1.02-0.36-1.67
	c-0.5-2.06-1.18-4.89-0.54-8.38c0.31-1.67,1.08-3.17,1.89-4.77c0.67-1.31,1.36-2.67,1.79-4.13c0.27-0.93,0.36-2.12,0.46-3.38
	c0.14-1.82,0.3-3.89,1.04-6c0.98-2.82,2.51-5.24,3.99-7.57c0.95-1.5,1.84-2.91,2.53-4.33c0.82-1.71,1.47-3.55,2.09-5.34
	c0.85-2.44,1.74-4.97,3.09-7.17c1.69-2.76,3.82-4.95,5.69-6.88c1.16-1.2,2.26-2.33,3.08-3.42c2.04-2.71,2.84-4.18,3.49-5.36
	c1.01-1.85,1.77-3.12,4.48-5.84l4.41-4.42l-0.14,6.24c0,0.04-0.1,4.47-0.14,10.91c-0.01,1.06,0.21,2.35,0.44,3.7
	c0.35,2.11,0.76,4.51,0.54,7.11c-0.17,2.03-0.83,4-1.46,5.89c-0.51,1.51-1.03,3.08-1.28,4.61c-0.2,1.26-0.19,2.67-0.18,4.18
	c0.01,2.15,0.03,4.38-0.54,6.68c-0.53,2.13-1.55,4.03-2.54,5.88c-0.75,1.39-1.46,2.71-1.93,4.06c-0.34,0.96-0.41,2.08-0.49,3.27
	c-0.09,1.41-0.19,2.87-0.74,4.27c-0.71,1.8-1.83,3.16-2.82,4.35c-0.62,0.74-1.2,1.44-1.48,2.03c-0.48,1.02-0.72,2.19-0.96,3.31
	c-0.3,1.44-0.61,2.92-1.43,4.2c-1.65,2.59-3.87,3.74-5.49,4.59c-0.44,0.23-0.86,0.45-1.15,0.64
	C127.16,408.31,124.91,409.63,122.39,409.63z M121.66,404.51c1.06,0.37,2.29-0.07,4.7-1.68c0.51-0.34,1.05-0.62,1.62-0.92
	c1.3-0.68,2.65-1.38,3.58-2.84c0.32-0.51,0.53-1.49,0.75-2.54c0.28-1.34,0.6-2.85,1.32-4.4c0.55-1.17,1.37-2.16,2.16-3.11
	c0.82-0.99,1.6-1.93,2.02-2.98c0.27-0.68,0.33-1.7,0.4-2.78c0.09-1.4,0.2-2.99,0.76-4.59c0.6-1.73,1.44-3.28,2.24-4.78
	c0.88-1.64,1.72-3.19,2.09-4.71c0.42-1.69,0.41-3.51,0.39-5.44c-0.01-1.64-0.02-3.33,0.25-5c0.31-1.94,0.9-3.7,1.48-5.41
	c0.57-1.69,1.1-3.29,1.22-4.72c0.16-1.98-0.17-3.96-0.49-5.87c-0.26-1.58-0.51-3.07-0.51-4.56c0.01-1.1,0.02-2.15,0.02-3.13
	c-0.65,1.12-1.57,2.55-3.13,4.63c-1.01,1.34-2.21,2.58-3.49,3.89c-1.78,1.83-3.61,3.72-5.02,6.01c-1.07,1.75-1.83,3.91-2.63,6.21
	c-0.67,1.92-1.36,3.9-2.31,5.86c-0.81,1.68-1.83,3.29-2.81,4.84c-1.39,2.19-2.7,4.26-3.49,6.54c-0.52,1.49-0.65,3.14-0.77,4.74
	c-0.11,1.46-0.23,2.97-0.65,4.4c-0.56,1.92-1.4,3.55-2.14,5c-0.67,1.32-1.25,2.45-1.43,3.4c-0.45,2.44,0.04,4.49,0.48,6.3
	c0.18,0.73,0.34,1.42,0.45,2.11C119.38,403.36,120.59,404.13,121.66,404.51L121.66,404.51z"/>
<polygon points="118.42,406.02 143.63,341.26 123.14,407.67 "/>
<path class="st5" d="M104.21,403.68c-2.28,0.77-4.4-0.32-6.89-2.02c-1.52-1.04-4.15-1.79-5.87-4.54c-1.09-1.75-0.96-4.6-2.16-7.24
	c-0.91-1.99-4.16-6.55-5.14-9.13c-0.8-2.11,0.7-2.07-0.16-4.62c-1.16-3.43-3.52-6.43-4.31-9.76c-0.85-3.56,0.41-5.87-0.09-9.2
	c-0.56-3.71-1.86-5.53-2.1-8.8c-0.29-3.96,0.06-10.59,0.07-13.62c0.02-6.53-0.45-11.25-0.45-11.25s2.49,4.03,6.47,9.21
	c1.85,2.4,5.13,4.45,7.3,7.78c1.79,2.74,2.39,6.52,4.19,9.81c1.62,2.96,4.51,5.47,6,8.82c1.39,3.13,1.34,6.94,2.49,10.37
	c0.86,2.54,3,4.45,3.64,6.62c0.78,2.65,0,5.39,0.49,7.53c0.65,2.83,1.84,3.11,2.03,5.16c0.3,3.23-0.68,7.33-1.27,9.08
	C107.5,400.76,106.49,402.91,104.21,403.68z"/>
<path d="M102.69,406.44c-2.54,0-4.8-1.36-6.78-2.71c-0.28-0.19-0.7-0.42-1.14-0.65c-1.61-0.86-3.81-2.03-5.44-4.64
	c-0.8-1.28-1.1-2.77-1.39-4.21c-0.23-1.13-0.46-2.29-0.93-3.32c-0.32-0.7-1.12-2-1.9-3.27c-1.3-2.11-2.65-4.3-3.3-6.01
	c-0.64-1.67-0.4-2.78-0.14-3.69c0.11-0.38,0.13-0.45-0.06-1.01c-0.46-1.36-1.15-2.68-1.89-4.08c-0.97-1.85-1.98-3.76-2.49-5.9
	c-0.56-2.36-0.36-4.25-0.19-5.91c0.13-1.23,0.24-2.29,0.06-3.49c-0.23-1.54-0.61-2.7-1-3.92c-0.48-1.49-0.97-3.03-1.12-5.06
	c-0.21-2.91-0.1-7.04-0.01-10.36c0.04-1.35,0.07-2.56,0.07-3.44c0.02-6.31-0.43-10.94-0.43-10.99l-1.06-10.74l5.67,9.18
	c0.02,0.04,2.48,3.99,6.33,9c0.65,0.84,1.61,1.72,2.62,2.66c1.58,1.45,3.37,3.09,4.79,5.28c1.12,1.71,1.8,3.66,2.47,5.55
	c0.53,1.51,1.08,3.06,1.82,4.43c0.61,1.12,1.49,2.23,2.42,3.41c1.33,1.69,2.71,3.44,3.68,5.6c0.89,2.01,1.25,4.14,1.6,6.2
	c0.27,1.56,0.52,3.03,0.97,4.39c0.33,0.96,0.96,1.9,1.63,2.88c0.79,1.17,1.61,2.38,2.04,3.82c0.55,1.86,0.49,3.62,0.45,5.17
	c-0.03,0.96-0.06,1.88,0.09,2.51c0.24,1.04,0.54,1.56,0.9,2.16c0.46,0.78,1.04,1.75,1.18,3.33c0.34,3.66-0.71,8.07-1.38,10.1
	c-0.98,2.94-2.32,6.18-5.82,7.37l0,0C104.21,406.32,103.44,406.44,102.69,406.44z M86.39,379.61c0,0,0.02,0.08,0.08,0.25
	c0.49,1.27,1.82,3.43,2.89,5.17c0.94,1.52,1.75,2.84,2.2,3.82c0.71,1.55,1.01,3.07,1.28,4.41c0.21,1.05,0.41,2.03,0.73,2.54
	c0.92,1.47,2.26,2.18,3.55,2.87c0.57,0.3,1.1,0.58,1.61,0.93c2.39,1.63,3.62,2.08,4.68,1.72l0,0c1.06-0.36,1.76-1.46,2.68-4.21
	c0.6-1.79,1.4-5.42,1.15-8.06c-0.04-0.45-0.14-0.63-0.51-1.25c-0.45-0.76-1.06-1.8-1.48-3.6c-0.29-1.26-0.25-2.54-0.21-3.78
	c0.04-1.29,0.08-2.51-0.24-3.59c-0.21-0.7-0.78-1.54-1.39-2.44c-0.79-1.16-1.68-2.48-2.22-4.09c-0.59-1.73-0.88-3.47-1.17-5.15
	c-0.31-1.84-0.61-3.57-1.24-5.01c-0.71-1.59-1.84-3.02-3.03-4.54c-1.02-1.29-2.07-2.62-2.88-4.1c-0.95-1.73-1.56-3.48-2.16-5.17
	c-0.59-1.68-1.15-3.27-1.93-4.47c-1.09-1.66-2.56-3.02-3.99-4.33c-1.18-1.08-2.29-2.11-3.2-3.29c-0.55-0.71-1.07-1.41-1.56-2.07
	c0.01,0.82,0.02,1.69,0.02,2.59c0,0.92-0.04,2.16-0.07,3.56c-0.09,3.21-0.2,7.21,0,9.86c0.11,1.44,0.47,2.58,0.9,3.9
	c0.42,1.3,0.89,2.77,1.18,4.7c0.28,1.83,0.12,3.39-0.03,4.76c-0.15,1.45-0.28,2.7,0.08,4.23c0.36,1.52,1.18,3.08,2.05,4.73
	c0.79,1.51,1.61,3.07,2.2,4.8c0.64,1.9,0.4,3.08,0.11,4.03C86.44,379.44,86.41,379.52,86.39,379.61z"/>
<polygon points="101.84,404.48 81.96,337.9 106.57,402.88 "/>
<path class="st6" d="M126.52,439.3h-25.94c-12.51,0-22.65-10.14-22.65-22.65v-25.71c0-2.48,2.01-4.48,4.48-4.48h62.28
	c2.48,0,4.48,2.01,4.48,4.48v25.71C149.18,429.16,139.03,439.3,126.52,439.3z"/>
<path d="M126.52,441.8h-25.94c-13.87,0-25.15-11.28-25.15-25.15v-25.71c0-3.85,3.13-6.98,6.98-6.98h62.28
	c3.85,0,6.98,3.13,6.98,6.98v25.71C151.68,430.52,140.39,441.8,126.52,441.8z M82.41,388.96c-1.09,0-1.98,0.89-1.98,1.98v25.71
	c0,11.11,9.04,20.15,20.15,20.15h25.94c11.11,0,20.15-9.04,20.15-20.15v-25.71c0-1.09-0.89-1.98-1.98-1.98H82.41z"/>
<path class="st7" d="M135.58,404.66c-3.57,0-5.46-1.37-6.98-2.48c-1.26-0.92-2.1-1.52-4.04-1.52s-2.77,0.61-4.04,1.52
	c-1.52,1.1-3.41,2.48-6.98,2.48s-5.46-1.37-6.98-2.48c-1.26-0.92-2.1-1.52-4.04-1.52s-2.77,0.61-4.04,1.52
	c-1.52,1.1-3.41,2.48-6.98,2.48c-3.56,0-5.46-1.37-6.97-2.48c-1.26-0.92-2.09-1.52-4.03-1.52v-5c3.56,0,5.46,1.37,6.97,2.48
	c1.26,0.92,2.1,1.52,4.04,1.52s2.77-0.61,4.04-1.52c1.52-1.1,3.41-2.48,6.98-2.48s5.46,1.37,6.98,2.48c1.26,0.92,2.1,1.52,4.04,1.52
	s2.77-0.61,4.04-1.52c1.52-1.1,3.41-2.48,6.98-2.48c3.57,0,5.46,1.37,6.98,2.48c1.26,0.92,2.1,1.52,4.04,1.52
	c1.94,0,2.78-0.61,4.04-1.52c1.52-1.1,3.41-2.48,6.98-2.48v5c-1.94,0-2.78,0.61-4.04,1.52
	C141.04,403.29,139.14,404.66,135.58,404.66z"/>
<path class="st7" d="M135.58,417.38c-3.57,0-5.46-1.37-6.98-2.48c-1.26-0.92-2.1-1.52-4.04-1.52s-2.77,0.61-4.04,1.52
	c-1.52,1.1-3.41,2.48-6.98,2.48s-5.46-1.37-6.98-2.48c-1.26-0.92-2.1-1.52-4.04-1.52s-2.77,0.61-4.04,1.52
	c-1.52,1.1-3.41,2.48-6.98,2.48c-3.56,0-5.46-1.37-6.97-2.48c-1.26-0.92-2.09-1.52-4.03-1.52v-5c3.56,0,5.46,1.37,6.97,2.48
	c1.26,0.92,2.1,1.52,4.04,1.52s2.77-0.61,4.04-1.52c1.52-1.1,3.41-2.48,6.98-2.48s5.46,1.37,6.98,2.48c1.26,0.92,2.1,1.52,4.04,1.52
	s2.77-0.61,4.04-1.52c1.52-1.1,3.41-2.48,6.98-2.48c3.57,0,5.46,1.37,6.98,2.48c1.26,0.92,2.1,1.52,4.04,1.52
	c1.94,0,2.78-0.61,4.04-1.52c1.52-1.1,3.41-2.48,6.98-2.48v5c-1.94,0-2.78,0.61-4.04,1.52
	C141.04,416.01,139.14,417.38,135.58,417.38z"/>
<ellipse class="st8" cx="332.66" cy="725.44" rx="138.37" ry="14.56"/>
<path class="st9" d="M389.53,632.83c-8.04,0-12.35-5.93-19.27-16.41c-7.47-11.31-16.77-25.39-35.96-25.39s-28.49,14.08-35.96,25.39
	c-6.92,10.48-11.24,16.41-19.27,16.41s-12.35-5.93-19.27-16.41c-7.47-11.31-16.77-25.39-35.96-25.39s-28.49,14.08-35.96,25.39
	c-3.48,5.27-6.3,9.39-9.27,12.19V608.4V337.86c0-85.85,69.85-155.7,155.7-155.7s155.7,69.85,155.7,155.7V628.6
	c-2.97-2.79-5.79-6.92-9.28-12.19c-7.47-11.31-16.78-25.39-35.96-25.39c-19.19,0-28.49,14.08-35.96,25.39
	C401.88,626.9,397.57,632.83,389.53,632.83z"/>
<path d="M334.3,192.16c38.92,0,75.51,15.16,103.03,42.68s42.68,64.11,42.68,103.02V598.4c-7.7-9.06-18.54-17.37-35.24-17.37
	c-24.57,0-36.44,17.98-44.3,29.88c-2.84,4.3-5.52,8.36-7.98,10.59c-1.47,1.34-2.06,1.34-2.95,1.34s-1.48,0-2.95-1.34
	c-2.46-2.23-5.14-6.29-7.98-10.59c-7.86-11.9-19.74-29.88-44.31-29.88s-36.44,17.98-44.3,29.88c-2.84,4.3-5.52,8.36-7.98,10.59
	c-1.47,1.34-2.06,1.34-2.95,1.34s-1.48,0-2.95-1.34c-2.46-2.23-5.14-6.29-7.98-10.59c-7.86-11.9-19.74-29.88-44.3-29.88
	c-16.7,0-27.53,8.31-35.23,17.36V337.86c0-38.92,15.16-75.51,42.68-103.03C258.8,207.32,295.38,192.16,334.3,192.16 M334.3,172.16
	c-91.52,0-165.7,74.19-165.7,165.7v270.53l-0.01,34.43c27.62,0,27.62-41.8,55.24-41.8s27.62,41.8,55.23,41.8
	c27.62,0,27.62-41.8,55.23-41.8c27.62,0,27.62,41.8,55.24,41.8s27.62-41.8,55.23-41.8c27.62,0,27.62,41.8,55.24,41.8v-34.43V337.86
	C500.01,246.35,425.82,172.16,334.3,172.16L334.3,172.16z"/>
<path d="M393.09,364.45c-11.75,0-22.17-5.46-25.92-13.59c-0.58-1.25-0.03-2.74,1.22-3.32c1.25-0.58,2.74-0.03,3.32,1.22
	c2.9,6.29,11.69,10.68,21.38,10.68s18.48-4.39,21.38-10.68c0.58-1.25,2.06-1.8,3.32-1.22c1.25,0.58,1.8,2.06,1.22,3.32
	C415.26,358.99,404.84,364.45,393.09,364.45z"/>
<ellipse cx="367.32" cy="308.56" rx="12.53" ry="17.99"/>
<path d="M418.86,290.57c-6.91,0-12.53,8.07-12.53,17.99s5.62,17.99,12.53,17.99s12.53-8.07,12.53-17.99S425.76,290.57,418.86,290.57
	z"/>
<path class="st9" d="M362.01,302.42c-0.1-0.88,0.08-1.72,0.39-2.51c0.32-0.78,0.81-1.51,1.45-2.12c0.63-0.6,1.42-1.08,2.29-1.31
	c0.86-0.22,1.81-0.21,2.59,0.21c-0.78,0.42-1.39,0.8-1.95,1.22c-0.56,0.41-1.06,0.85-1.56,1.32s-0.99,0.97-1.5,1.51
	C363.2,301.29,362.68,301.85,362.01,302.42z"/>
<path class="st9" d="M412.66,302.42c-0.1-0.88,0.08-1.72,0.39-2.51c0.32-0.78,0.81-1.51,1.45-2.12c0.63-0.6,1.42-1.08,2.29-1.31
	c0.86-0.22,1.81-0.21,2.59,0.21c-0.78,0.42-1.39,0.8-1.95,1.22c-0.56,0.41-1.06,0.85-1.56,1.32s-0.99,0.97-1.5,1.51
	C413.86,301.29,413.34,301.85,412.66,302.42z"/>
</svg>
